<svg width="138" height="32" viewBox="0 0 138 32" fill="none" xmlns="http://www.w3.org/2000/svg">
<path d="M44.1157 17.4948V22.669H47.3428C48.424 22.669 49.2257 22.4578 49.7438 22.0353C50.2681 21.6061 50.5292 20.953 50.5292 20.078C50.5292 19.2059 50.2671 18.5451 49.7438 18.1285C49.2257 17.706 48.426 17.4948 47.3428 17.4948H44.1157ZM44.1157 11.6848V15.9434H47.094C48.0772 15.9434 48.8075 15.769 49.2848 15.4231C49.7693 15.0694 50.0121 14.5336 50.0121 13.8146C50.0121 13.1015 49.7693 12.5685 49.2848 12.2158C48.8003 11.8631 48.0762 11.6858 47.094 11.6858H44.1157V11.6848ZM42.1033 10.1161H47.2439C48.7779 10.1161 49.96 10.4194 50.7903 11.025C51.6205 11.6306 52.0346 12.492 52.0346 13.6082C52.0346 14.4726 51.8225 15.1605 51.3972 15.6721C50.9718 16.1837 50.3466 16.5016 49.5245 16.6275C50.5139 16.8291 51.2809 17.2525 51.8256 17.8872C52.3763 18.5248 52.6415 19.3212 52.6415 20.2805C52.6415 21.5421 52.1897 22.5169 51.287 23.2049C50.3843 23.8928 49.0992 24.2358 47.4316 24.2358H42.0931V10.1113" fill="#B2D3F3"/>
<path d="M60.229 14.863C59.7753 14.8486 59.3248 14.9413 58.918 15.1329C58.5113 15.3245 58.1609 15.609 57.8984 15.9609C57.3272 16.6876 57.0416 17.6827 57.0416 18.9511C57.0416 20.2195 57.3242 21.2185 57.8882 21.951C58.4594 22.6777 59.2397 23.0392 60.229 23.0392C60.6812 23.0529 61.1299 22.9598 61.5349 22.7682C61.9399 22.5766 62.2885 22.2924 62.5494 21.9413C63.1206 21.2098 63.4062 20.2127 63.4062 18.9511C63.4062 17.6953 63.1206 16.7031 62.5494 15.9706C61.9783 15.2322 61.2051 14.863 60.229 14.863ZM60.229 13.3873C61.8222 13.3873 63.0849 13.8795 63.9845 14.863C64.8841 15.8465 65.3492 17.2099 65.3492 18.9521C65.3492 20.6943 64.8943 22.0498 63.9845 23.0411C63.0747 24.0256 61.8222 24.5168 60.229 24.5168C58.6277 24.5168 57.3731 24.0246 56.4552 23.0411C55.5525 22.0508 55.1006 20.6885 55.1006 18.9521C55.1006 17.2108 55.5525 15.8485 56.4552 14.863C57.365 13.8786 58.6195 13.3873 60.229 13.3873Z" fill="#B2D3F3"/>
<path d="M72.5981 14.863C72.1443 14.8486 71.6939 14.9413 71.2871 15.1329C70.8804 15.3245 70.53 15.609 70.2675 15.9609C69.6963 16.6876 69.4107 17.6827 69.4107 18.9511C69.4107 20.2195 69.6932 21.2185 70.2573 21.951C70.8285 22.6777 71.6087 23.0392 72.5981 23.0392C73.0503 23.0529 73.499 22.9598 73.904 22.7682C74.309 22.5766 74.6576 22.2924 74.9185 21.9413C75.4897 21.2098 75.7753 20.2127 75.7753 18.9511C75.7753 17.6953 75.4897 16.7031 74.9185 15.9706C74.3473 15.2322 73.5742 14.863 72.5981 14.863ZM72.5981 13.3873C74.1913 13.3873 75.454 13.8795 76.3536 14.863C77.2532 15.8465 77.7183 17.2099 77.7183 18.9521C77.7183 20.6943 77.2634 22.0498 76.3536 23.0411C75.4438 24.0256 74.1913 24.5168 72.5981 24.5168C70.9968 24.5168 69.7422 24.0246 68.8242 23.0411C67.9216 22.0508 67.4697 20.6885 67.4697 18.9521C67.4697 17.2108 67.9216 15.8485 68.8242 14.863C69.734 13.8786 70.9886 13.3873 72.5981 13.3873Z" fill="#B2D3F3"/>
<path d="M82.456 10.6326V13.6412H86.2299V14.9939H82.456V20.7476C82.456 21.6119 82.5784 22.1671 82.8232 22.4142C83.0752 22.6603 83.5831 22.7824 84.347 22.7824H86.2299V24.2397H84.346C82.9313 24.2397 81.9552 23.9907 81.4187 23.4936C80.8812 22.9898 80.6028 22.0741 80.6028 20.7495V14.9939H79.2585V13.6412H80.6028V10.6345H82.4458L82.456 10.6326ZM95.6503 13.9552V15.6024C95.1384 15.3522 94.5966 15.1615 94.0367 15.0346C93.4788 14.9086 92.9015 14.8456 92.3027 14.8456C91.3929 14.8456 90.7085 14.9784 90.2506 15.2332C89.7987 15.4977 89.5733 15.896 89.5733 16.425C89.5733 16.8291 89.7365 17.1469 90.0629 17.3804C90.3893 17.6072 91.0421 17.8262 92.0253 18.0335L92.6526 18.1663C93.9541 18.4308 94.8761 18.8058 95.4218 19.2922C95.9726 19.7718 96.2378 20.4433 96.2378 21.3077C96.2524 21.7629 96.1484 22.2145 95.9348 22.6223C95.7213 23.0301 95.4049 23.3813 95.0138 23.6448C94.1978 24.2184 93.0718 24.5169 91.6479 24.5169C91.0502 24.5169 90.426 24.4587 89.7753 24.3463C89.1307 24.2494 88.4493 24.075 87.7333 23.8541V22.0567C88.4106 22.391 89.0776 22.6429 89.7355 22.8125C90.3724 22.9739 91.0285 23.0567 91.6877 23.0586C92.5506 23.0586 93.2146 22.92 93.6797 22.6419C94.1448 22.358 94.3774 21.9607 94.3774 21.4501C94.3774 20.9772 94.208 20.6139 93.8694 20.3619C93.5369 20.11 92.8035 19.8775 91.6683 19.6333L91.0309 19.4918C89.8956 19.2651 89.0756 18.9182 88.5707 18.4511C88.0658 17.9783 87.8139 17.331 87.8139 16.5113C87.8139 15.5132 88.1862 14.7449 88.9297 14.2022C89.6733 13.6596 90.7289 13.3883 92.0967 13.3883C92.7372 13.3854 93.3769 13.4327 94.0091 13.5298C94.5745 13.6159 95.1287 13.7585 95.6625 13.9552H95.6503ZM100.898 10.6316V13.6402H104.672V14.9929H100.898V20.7466C100.898 21.6109 101.02 22.1662 101.265 22.4132C101.517 22.6594 102.025 22.7814 102.789 22.7814H104.674V24.2388H102.791C101.376 24.2388 100.4 23.9897 99.8637 23.4927C99.3262 22.9888 99.0478 22.0731 99.0478 20.7486V14.9929H97.7034V13.6402H99.0478V10.6345H100.9L100.898 10.6316ZM113.446 15.271C113.235 15.1557 113.006 15.0726 112.768 15.0249C112.508 14.9651 112.241 14.9364 111.973 14.9396C110.936 14.9396 110.14 15.2613 109.582 15.9047C109.031 16.5423 108.766 17.4599 108.766 18.6585V24.2417H106.923V13.6412H108.766V15.2885C109.151 14.6451 109.653 14.1683 110.27 13.8592C110.887 13.5433 111.637 13.3864 112.521 13.3864C112.661 13.3872 112.801 13.3966 112.94 13.4145L113.448 13.4804L113.458 15.2691L113.446 15.271ZM120.367 18.9124C118.886 18.9124 117.86 19.0732 117.289 19.3949C116.718 19.7166 116.432 20.265 116.432 21.0422C116.432 21.6604 116.644 22.1526 117.069 22.5179C117.501 22.8764 118.085 23.0576 118.824 23.0576C119.84 23.0576 120.654 22.7165 121.265 22.0353C121.882 21.3571 122.191 20.4366 122.191 19.3009V18.9133H120.368L120.367 18.9124ZM124.024 18.1944V24.2407H122.191V22.6322C121.783 23.2756 121.252 23.7523 120.627 24.0614C120.003 24.3638 119.24 24.5169 118.336 24.5169C117.194 24.5169 116.284 24.2145 115.607 23.6089C114.936 22.9966 114.601 22.1797 114.601 21.1575C114.601 19.9656 115.009 19.0664 115.856 18.4608C116.702 17.8552 117.954 17.5529 119.63 17.5529H122.2V17.3824C122.2 16.581 121.921 15.9628 121.364 15.5278C120.813 15.0859 120.036 14.865 119.033 14.865C118.395 14.865 117.774 14.9377 117.17 15.083C116.563 15.2295 115.977 15.449 115.427 15.7361V14.1276C116.098 13.8815 116.749 13.6984 117.38 13.5792C117.985 13.4557 118.603 13.3923 119.223 13.3902C120.836 13.3902 122.042 13.7778 122.838 14.5821C123.635 15.3863 124.034 16.582 124.034 18.1963L124.024 18.1944ZM129.491 22.6497V28.2697H127.647V13.6422H129.491V15.2507C129.876 14.6208 130.361 14.1528 130.945 13.8505C131.537 13.5404 132.24 13.3854 133.056 13.3854C133.695 13.3715 134.328 13.5034 134.901 13.7702C135.475 14.0369 135.973 14.4307 136.353 14.9183C137.202 15.9406 137.628 17.2826 137.628 18.9492C137.628 20.6158 137.202 21.9578 136.353 22.9801C135.973 23.4677 135.475 23.8614 134.901 24.1282C134.328 24.395 133.695 24.5269 133.056 24.513C132.24 24.513 131.526 24.3618 130.945 24.0576C130.361 23.7475 129.876 23.2785 129.491 22.6477V22.6497ZM135.726 18.9482C135.726 17.6673 135.447 16.6644 134.889 15.9396C134.338 15.208 133.578 14.8418 132.609 14.8418C132.16 14.8275 131.716 14.9205 131.315 15.1124C130.915 15.3042 130.572 15.5887 130.318 15.9396C129.767 16.6663 129.502 17.6682 129.502 18.9482C129.502 20.2282 129.777 21.235 130.318 21.9665C130.876 22.6933 131.64 23.0547 132.609 23.0547C133.578 23.0547 134.338 22.6923 134.889 21.9665C135.447 21.235 135.726 20.2282 135.726 18.9482Z" fill="#B2D3F3"/>
<path d="M27.8717 0.693924H6.04949C3.17333 0.693924 0.841736 2.90894 0.841736 5.64129V26.4992C0.841736 29.2315 3.17333 31.4465 6.04949 31.4465H27.8717C30.7478 31.4465 33.0794 29.2315 33.0794 26.4992V5.64129C33.0794 2.90894 30.7478 0.693924 27.8717 0.693924Z" fill="url(#paint0_linear_104_747)"/>
<path d="M17.2039 13.9329C18.0273 13.9329 18.6513 13.7654 19.0767 13.4226C19.502 13.0798 19.7146 12.5805 19.7146 11.9171C19.7146 11.2621 19.502 10.7645 19.0767 10.4243C18.6486 10.0755 18.0271 9.90107 17.2039 9.90107H14.3129V13.9331H17.2039V13.9329ZM17.3801 22.2649C18.4295 22.2649 19.2167 22.0568 19.7415 21.6398C20.2754 21.2231 20.5423 20.5936 20.5423 19.7515C20.5423 18.9262 20.2799 18.3097 19.7551 17.9015C19.2303 17.4848 18.4388 17.2764 17.3804 17.2764H14.3131V22.2654H17.3804L17.3801 22.2649ZM22.2389 15.4137C23.3607 15.72 24.2293 16.2858 24.8445 17.1106C25.4597 17.9355 25.7672 18.948 25.7674 20.1475C25.7674 21.9848 25.1069 23.3544 23.7861 24.2561C22.4652 25.1578 20.4569 25.6085 17.7606 25.6085H9.08878V6.55849H16.9331C19.7468 6.55849 21.7825 6.95801 23.0399 7.75777C24.3066 8.55729 24.9399 9.83768 24.9399 11.5984C24.9399 12.5257 24.7093 13.3166 24.2479 13.9716C23.7866 14.6181 23.1147 15.096 22.2394 15.4135" fill="white"/>
<defs>
<linearGradient id="paint0_linear_104_747" x1="2.70147" y1="29.8518" x2="29.6165" y2="1.02541" gradientUnits="userSpaceOnUse">
<stop stop-color="#150135"/>
<stop offset="1" stop-color="#50B5FF"/>
</linearGradient>
</defs>
</svg>
