<svg width="105" height="45" viewBox="0 0 105 45" fill="none" xmlns="http://www.w3.org/2000/svg">
<path d="M37.0336 22.1315C37.0336 19.8975 35.2226 18.0863 32.9888 18.0863C32.845 18.0863 32.7033 18.094 32.5635 18.1088L38.119 1.72193H14.5099L20.0578 18.0945C19.9759 18.0893 19.8939 18.0867 19.8119 18.0865C17.5781 18.0865 15.7671 19.8973 15.7671 22.1316C15.7671 23.9374 16.9505 25.4663 18.5837 25.9865C17.7211 27.4807 16.6356 28.8267 15.4033 29.9896C13.7275 31.5705 11.8096 32.7694 9.73533 33.5081C7.26565 32.2393 6.09949 29.4175 7.15171 26.9435C7.27058 26.664 7.39191 26.3808 7.50785 26.0989C9.29698 25.6813 10.6304 24.0772 10.6304 22.1606C10.6304 19.9264 8.81936 18.1154 6.58541 18.1154C4.35147 18.1154 2.54063 19.9264 2.54063 22.1606C2.54063 23.5306 3.2221 24.7407 4.26401 25.4725C3.2629 27.752 1.79126 30.1378 1.33274 32.9029C0.783217 36.2166 1.33089 39.7342 4.19673 41.7208C10.871 46.347 18.1159 38.8528 25.7546 36.9688C28.523 36.2862 31.5619 36.3962 34.001 34.9835C35.8326 33.9226 37.0402 32.1643 37.3828 30.1904C37.7215 28.2403 37.2279 26.2987 36.0928 24.7244C36.7017 23.9978 37.0349 23.0796 37.0336 22.1315Z" fill="#99425B"/>
<path d="M36.4095 30.0212C36.112 31.735 35.0536 33.2319 33.5059 34.1286C32.0631 34.9642 30.3342 35.2137 28.5035 35.4776C27.5228 35.619 26.5088 35.7654 25.5181 36.0096C22.8988 36.6556 20.3617 37.9159 17.9083 39.1347C12.9982 41.5738 8.75792 43.68 4.75963 40.9086C1.83082 38.8786 1.966 35.1227 2.3072 33.0645C2.62345 31.1576 3.47845 29.4014 4.30511 27.7031C4.44595 27.4145 4.58565 27.1253 4.72422 26.8356C5.14093 27.0022 5.57818 27.1119 6.02418 27.1617C5.18259 29.9394 6.50611 32.9597 9.28388 34.3868L9.66418 34.5822L10.0667 34.4388C12.2627 33.6566 14.2864 32.4016 16.0812 30.708C17.2413 29.6133 18.2389 28.4022 19.0588 27.1082C19.3081 27.1458 19.5598 27.1647 19.8119 27.1647C22.3615 27.1647 24.4727 25.2585 24.7994 22.7966C25.843 22.7584 26.9514 22.7581 28.0011 22.7963C28.3275 25.2585 30.439 27.1648 32.9886 27.1648C34.0547 27.1648 35.0435 26.8307 35.8581 26.2631C36.4237 27.4209 36.6348 28.7236 36.4095 30.0212ZM6.58556 19.1033C8.27122 19.1033 9.64247 20.4749 9.64247 22.1607C9.64247 22.7661 9.46479 23.3308 9.15978 23.8063C8.65168 24.5988 7.78791 25.1421 6.79557 25.2099C6.72613 25.2145 6.65608 25.2179 6.58556 25.2179C6.20987 25.2179 5.85004 25.1493 5.51732 25.0249C4.84721 24.7729 4.28606 24.2949 3.93066 23.6734C3.66675 23.213 3.52809 22.6914 3.52849 22.1607C3.52849 20.4749 4.8999 19.1033 6.58556 19.1033ZM16.7551 22.1316C16.7551 20.5999 17.8872 19.3282 19.3583 19.1083C19.5064 19.0859 19.6579 19.0744 19.812 19.0744C20.792 19.0744 21.6646 19.5387 22.2241 20.2581C22.3643 20.4374 22.484 20.6319 22.581 20.8378C22.771 21.2426 22.8693 21.6844 22.8689 22.1316C22.8689 22.3759 22.8394 22.6135 22.785 22.8414C22.4871 24.0887 21.4236 25.0422 20.1204 25.1734C20.0191 25.1835 19.9163 25.1888 19.812 25.1888C19.224 25.1892 18.6485 25.0191 18.1553 24.6989C17.3137 24.1537 16.7551 23.2068 16.7551 22.1316ZM29.5138 18.496C28.8486 19.1311 28.3698 19.9361 28.1295 20.8238C26.9772 20.7813 25.8238 20.7813 24.6716 20.8238C24.4129 19.8642 23.8768 19.0176 23.1555 18.3745L26.3188 11.9778L29.5138 18.496ZM15.8878 2.71014H36.741L31.8157 17.2377C31.6038 17.2884 31.3954 17.353 31.1919 17.4309L26.3265 7.50471L21.4472 17.3716C21.2345 17.2986 21.0171 17.24 20.7965 17.1963L15.8878 2.71014ZM36.0455 22.1317C36.0455 22.4382 35.9998 22.7341 35.9156 23.0136C35.7158 23.6716 35.3008 24.2434 34.7372 24.6373C34.225 24.9968 33.6144 25.1895 32.9886 25.1889C31.5772 25.1889 30.3865 24.227 30.0364 22.9243C29.9669 22.6658 29.9317 22.3994 29.9317 22.1317C29.9317 21.7138 30.0161 21.3153 30.1685 20.9522C30.2471 20.7664 30.344 20.5889 30.4576 20.4222C31.0078 19.6101 31.9361 19.0745 32.9886 19.0745C33.0851 19.0745 33.1803 19.0795 33.2747 19.0884C34.8267 19.233 36.0457 20.5423 36.0457 22.1317H36.0455ZM38.0214 22.1317C38.0214 19.6745 36.2511 17.6242 33.9193 17.1863L39.4971 0.733917H13.132L18.7184 17.2195C16.4676 17.7204 14.7794 19.7319 14.7794 22.1316C14.7794 23.9335 15.7315 25.5161 17.1585 26.4055C16.4721 27.4283 15.6582 28.3907 14.7255 29.2709C13.2461 30.6664 11.5982 31.7249 9.82154 32.4213C8.03195 31.2971 7.2755 29.1769 8.06105 27.33L8.12264 27.1853L8.23812 26.9137C10.2037 26.228 11.6182 24.3571 11.6182 22.1607C11.6182 19.3853 9.36055 17.1274 6.58556 17.1274C3.81056 17.1274 1.55259 19.3853 1.55259 22.1607C1.55259 23.5615 2.12844 24.83 3.05503 25.7434C2.88222 26.1096 2.70679 26.4745 2.52876 26.8382C1.68147 28.5784 0.721312 30.5508 0.358097 32.7412C-0.363097 37.0912 0.800298 40.5686 3.63411 42.5327C5.35365 43.7245 7.09997 44.1932 8.85723 44.1932C12.166 44.1932 15.5133 42.5307 18.7872 40.9043C21.1449 39.7332 23.583 38.5222 25.9913 37.9281C26.8874 37.7071 27.8094 37.5741 28.7855 37.4333C30.7214 37.154 32.723 36.8653 34.4961 35.8384C36.5515 34.6478 37.9583 32.6506 38.3561 30.3594C38.6976 28.3922 38.2867 26.422 37.2844 24.751C37.7673 23.9627 38.0225 23.056 38.0214 22.1316V22.1317Z" fill="white"/>
<g style="mix-blend-mode:lighten" filter="url(#filter0_d_104_765)">
<path d="M57.6422 28.0357C57.1102 28.0357 56.6155 27.9284 56.1582 27.7137C55.7009 27.4991 55.3275 27.1911 55.0382 26.7897C54.9262 26.6217 54.8702 26.4584 54.8702 26.2997C54.8702 26.0664 54.9589 25.8704 55.1362 25.7117C55.3229 25.5531 55.5049 25.4737 55.6822 25.4737C55.8222 25.4737 55.9575 25.5157 56.0882 25.5997C56.2282 25.6837 56.3542 25.7817 56.4662 25.8937C56.6529 26.0617 56.8349 26.1831 57.0122 26.2577C57.1989 26.3231 57.4089 26.3557 57.6422 26.3557C57.9222 26.3557 58.1835 26.2857 58.4262 26.1457C58.6689 26.0057 58.8649 25.8191 59.0142 25.5857C59.1635 25.3524 59.2382 25.1004 59.2382 24.8297V18.9497C59.2382 18.7071 59.3269 18.5064 59.5042 18.3477C59.6815 18.1797 59.8869 18.0957 60.1202 18.0957C60.3815 18.0957 60.5915 18.1797 60.7502 18.3477C60.9089 18.5064 60.9882 18.7071 60.9882 18.9497V24.8297C60.9882 25.3991 60.8389 25.9264 60.5402 26.4117C60.2415 26.8971 59.8402 27.2891 59.3362 27.5877C58.8322 27.8864 58.2675 28.0357 57.6422 28.0357ZM66.4728 28.0357C65.6795 28.0357 64.9888 27.8724 64.4008 27.5457C63.8221 27.2097 63.3741 26.7571 63.0568 26.1877C62.7488 25.6184 62.5948 24.9744 62.5948 24.2557C62.5948 23.4157 62.7628 22.7017 63.0988 22.1137C63.4441 21.5164 63.8921 21.0591 64.4428 20.7417C64.9935 20.4244 65.5768 20.2657 66.1928 20.2657C66.6688 20.2657 67.1168 20.3637 67.5368 20.5597C67.9661 20.7557 68.3441 21.0264 68.6708 21.3717C68.9975 21.7077 69.2541 22.0997 69.4408 22.5477C69.6368 22.9957 69.7348 23.4717 69.7348 23.9757C69.7255 24.1997 69.6368 24.3817 69.4688 24.5217C69.3008 24.6617 69.1048 24.7317 68.8808 24.7317H63.5328L63.1128 23.3317H68.2508L67.9428 23.6117V23.2337C67.9241 22.9631 67.8261 22.7204 67.6488 22.5057C67.4808 22.2911 67.2661 22.1231 67.0048 22.0017C66.7528 21.8711 66.4821 21.8057 66.1928 21.8057C65.9128 21.8057 65.6515 21.8431 65.4088 21.9177C65.1661 21.9924 64.9561 22.1184 64.7788 22.2957C64.6015 22.4731 64.4615 22.7111 64.3588 23.0097C64.2561 23.3084 64.2048 23.6864 64.2048 24.1437C64.2048 24.6477 64.3075 25.0771 64.5128 25.4317C64.7275 25.7771 64.9981 26.0431 65.3248 26.2297C65.6608 26.4071 66.0155 26.4957 66.3888 26.4957C66.7341 26.4957 67.0095 26.4677 67.2148 26.4117C67.4201 26.3557 67.5835 26.2904 67.7048 26.2157C67.8355 26.1317 67.9521 26.0617 68.0548 26.0057C68.2228 25.9217 68.3815 25.8797 68.5308 25.8797C68.7361 25.8797 68.9041 25.9497 69.0348 26.0897C69.1748 26.2297 69.2448 26.3931 69.2448 26.5797C69.2448 26.8317 69.1141 27.0604 68.8528 27.2657C68.6101 27.4711 68.2695 27.6531 67.8308 27.8117C67.3921 27.9611 66.9395 28.0357 66.4728 28.0357ZM70.7686 26.7337C70.6753 26.6031 70.6333 26.4351 70.6426 26.2297C70.652 26.0244 70.7733 25.8471 71.0066 25.6977C71.156 25.6044 71.3146 25.5671 71.4826 25.5857C71.6506 25.5951 71.814 25.6791 71.9726 25.8377C72.2433 26.1084 72.528 26.3184 72.8266 26.4677C73.1253 26.6171 73.4986 26.6917 73.9466 26.6917C74.0866 26.6824 74.2406 26.6637 74.4086 26.6357C74.5766 26.5984 74.7213 26.5237 74.8426 26.4117C74.9733 26.2904 75.0386 26.1084 75.0386 25.8657C75.0386 25.6604 74.9686 25.4971 74.8286 25.3757C74.6886 25.2544 74.502 25.1517 74.2686 25.0677C74.0446 24.9837 73.7926 24.9044 73.5126 24.8297C73.2233 24.7457 72.9246 24.6524 72.6166 24.5497C72.318 24.4471 72.0426 24.3164 71.7906 24.1577C71.5386 23.9897 71.3333 23.7704 71.1746 23.4997C71.016 23.2291 70.9366 22.8884 70.9366 22.4777C70.9366 22.0111 71.0673 21.6144 71.3286 21.2877C71.59 20.9611 71.926 20.7091 72.3366 20.5317C72.7566 20.3544 73.1953 20.2657 73.6526 20.2657C73.942 20.2657 74.2453 20.3031 74.5626 20.3777C74.88 20.4431 75.1833 20.5551 75.4726 20.7137C75.762 20.8631 76.0046 21.0637 76.2006 21.3157C76.3033 21.4557 76.364 21.6237 76.3826 21.8197C76.4013 22.0157 76.3126 22.1931 76.1166 22.3517C75.9766 22.4637 75.8133 22.5151 75.6266 22.5057C75.44 22.4871 75.286 22.4217 75.1646 22.3097C75.006 22.1044 74.7913 21.9411 74.5206 21.8197C74.2593 21.6984 73.956 21.6377 73.6106 21.6377C73.4706 21.6377 73.3166 21.6564 73.1486 21.6937C72.99 21.7217 72.85 21.7917 72.7286 21.9037C72.6073 22.0064 72.5466 22.1744 72.5466 22.4077C72.5466 22.6224 72.6166 22.7951 72.7566 22.9257C72.8966 23.0471 73.0833 23.1497 73.3166 23.2337C73.5593 23.3084 73.816 23.3831 74.0866 23.4577C74.3666 23.5324 74.6513 23.6211 74.9406 23.7237C75.23 23.8264 75.496 23.9617 75.7386 24.1297C75.9813 24.2977 76.1773 24.5171 76.3266 24.7877C76.476 25.0491 76.5506 25.3851 76.5506 25.7957C76.5506 26.2717 76.4106 26.6777 76.1306 27.0137C75.8506 27.3497 75.5006 27.6064 75.0806 27.7837C74.6606 27.9517 74.2313 28.0357 73.7926 28.0357C73.242 28.0357 72.6913 27.9424 72.1406 27.7557C71.59 27.5597 71.1326 27.2191 70.7686 26.7337ZM78.0405 20.5457H81.3585C81.5825 20.5457 81.7692 20.6204 81.9185 20.7697C82.0679 20.9191 82.1425 21.1057 82.1425 21.3297C82.1425 21.5444 82.0679 21.7264 81.9185 21.8757C81.7692 22.0157 81.5825 22.0857 81.3585 22.0857H78.0405C77.8165 22.0857 77.6299 22.0111 77.4805 21.8617C77.3312 21.7124 77.2565 21.5257 77.2565 21.3017C77.2565 21.0871 77.3312 20.9097 77.4805 20.7697C77.6299 20.6204 77.8165 20.5457 78.0405 20.5457ZM79.5385 18.7957C79.7812 18.7957 79.9772 18.8797 80.1265 19.0477C80.2852 19.2064 80.3645 19.4071 80.3645 19.6497V25.8797C80.3645 26.0104 80.3879 26.1177 80.4345 26.2017C80.4905 26.2857 80.5605 26.3464 80.6445 26.3837C80.7379 26.4211 80.8359 26.4397 80.9385 26.4397C81.0505 26.4397 81.1532 26.4211 81.2465 26.3837C81.3399 26.3371 81.4472 26.3137 81.5685 26.3137C81.6992 26.3137 81.8159 26.3744 81.9185 26.4957C82.0305 26.6171 82.0865 26.7851 82.0865 26.9997C82.0865 27.2611 81.9419 27.4757 81.6525 27.6437C81.3725 27.8117 81.0692 27.8957 80.7425 27.8957C80.5465 27.8957 80.3272 27.8817 80.0845 27.8537C79.8512 27.8164 79.6272 27.7371 79.4125 27.6157C79.2072 27.4851 79.0345 27.2891 78.8945 27.0277C78.7545 26.7664 78.6845 26.4071 78.6845 25.9497V19.6497C78.6845 19.4071 78.7639 19.2064 78.9225 19.0477C79.0905 18.8797 79.2959 18.7957 79.5385 18.7957Z" fill="#B2D3F3"/>
<path d="M56.1582 27.7137L55.7333 28.619H55.7333L56.1582 27.7137ZM55.0382 26.7897L54.2062 27.3444L54.2163 27.3597L54.227 27.3745L55.0382 26.7897ZM55.1362 25.7117L54.4886 24.9498L54.4789 24.958L54.4694 24.9665L55.1362 25.7117ZM56.0882 25.5997L55.5474 26.4409L55.5604 26.4493L55.5737 26.4572L56.0882 25.5997ZM56.4662 25.8937L55.7591 26.6008L55.7777 26.6194L55.7972 26.637L56.4662 25.8937ZM57.0122 26.2577L56.6241 27.1794L56.6527 27.1914L56.6819 27.2016L57.0122 26.2577ZM58.4262 26.1457L57.9265 25.2795L58.4262 26.1457ZM59.5042 18.3477L60.171 19.093L60.1816 19.0835L60.1919 19.0737L59.5042 18.3477ZM60.7502 18.3477L60.0232 19.0343L60.033 19.0447L60.0431 19.0548L60.7502 18.3477ZM60.5402 26.4117L59.6885 25.8876L60.5402 26.4117ZM59.3362 27.5877L59.846 28.448L59.3362 27.5877ZM57.6422 27.0357C57.2491 27.0357 56.9004 26.9574 56.5831 26.8085L55.7333 28.619C56.3306 28.8993 56.9713 29.0357 57.6422 29.0357V27.0357ZM56.5831 26.8085C56.2763 26.6645 56.0371 26.4653 55.8494 26.2049L54.227 27.3745C54.618 27.9168 55.1255 28.3336 55.7333 28.619L56.5831 26.8085ZM55.8703 26.235C55.8541 26.2108 55.854 26.2048 55.8581 26.2169C55.8628 26.2304 55.8702 26.2594 55.8702 26.2997H53.8702C53.8702 26.7033 54.0144 27.0567 54.2062 27.3444L55.8703 26.235ZM55.8702 26.2997C55.8702 26.313 55.8669 26.3477 55.8478 26.3899C55.8289 26.4316 55.807 26.4534 55.803 26.457L54.4694 24.9665C54.0848 25.3106 53.8702 25.7755 53.8702 26.2997H55.8702ZM55.7838 26.4737C55.8192 26.4436 55.8292 26.4425 55.8123 26.4499C55.7923 26.4586 55.7466 26.4737 55.6822 26.4737V24.4737C55.1908 24.4737 54.7873 24.6958 54.4886 24.9498L55.7838 26.4737ZM55.6822 26.4737C55.6505 26.4737 55.6194 26.4687 55.5923 26.4603C55.5659 26.4521 55.5508 26.4431 55.5474 26.4409L56.629 24.7585C56.3553 24.5826 56.0346 24.4737 55.6822 24.4737V26.4737ZM55.5737 26.4572C55.6458 26.5004 55.7067 26.5484 55.7591 26.6008L57.1733 25.1866C57.0017 25.015 56.8106 24.867 56.6027 24.7422L55.5737 26.4572ZM55.7972 26.637C56.043 26.8582 56.3179 27.0504 56.6241 27.1794L57.4003 25.3361C57.3519 25.3157 57.2627 25.2652 57.1352 25.1504L55.7972 26.637ZM56.6819 27.2016C56.9918 27.3101 57.3161 27.3557 57.6422 27.3557V25.3557C57.5016 25.3557 57.4059 25.336 57.3426 25.3139L56.6819 27.2016ZM57.6422 27.3557C58.0977 27.3557 58.5314 27.2395 58.9259 27.0119L57.9265 25.2795C57.8357 25.3319 57.7467 25.3557 57.6422 25.3557V27.3557ZM58.9259 27.0119C59.3057 26.7928 59.6198 26.4946 59.8565 26.1248L58.1719 25.0467C58.1099 25.1435 58.032 25.2186 57.9265 25.2795L58.9259 27.0119ZM59.8565 26.1248C60.1062 25.7345 60.2382 25.2961 60.2382 24.8297H58.2382C58.2382 24.9046 58.2208 24.9703 58.1719 25.0467L59.8565 26.1248ZM60.2382 24.8297V18.9497H58.2382V24.8297H60.2382ZM60.2382 18.9497C60.2382 18.9527 60.237 18.9815 60.2194 19.0214C60.2015 19.0618 60.1792 19.0856 60.171 19.093L58.8374 17.6025C58.4433 17.9551 58.2382 18.429 58.2382 18.9497H60.2382ZM60.1919 19.0737C60.1999 19.0661 60.1927 19.0749 60.1698 19.0843C60.1593 19.0886 60.1485 19.0917 60.1385 19.0936C60.1287 19.0955 60.1222 19.0957 60.1202 19.0957V17.0957C59.618 17.0957 59.1699 17.2869 58.8165 17.6218L60.1919 19.0737ZM60.1202 19.0957C60.1432 19.0957 60.1323 19.0992 60.1023 19.0872C60.0878 19.0814 60.0723 19.0733 60.0573 19.063C60.0423 19.0528 60.0309 19.0425 60.0232 19.0343L61.4772 17.6611C61.1041 17.266 60.617 17.0957 60.1202 17.0957V19.0957ZM60.0431 19.0548C60.0297 19.0414 60.0114 19.0168 59.9987 18.9849C59.9867 18.9545 59.9882 18.9386 59.9882 18.9497H61.9882C61.9882 18.4657 61.8197 18.003 61.4573 17.6406L60.0431 19.0548ZM59.9882 18.9497V24.8297H61.9882V18.9497H59.9882ZM59.9882 24.8297C59.9882 25.2138 59.8903 25.5597 59.6885 25.8876L61.3919 26.9358C61.7874 26.293 61.9882 25.5843 61.9882 24.8297H59.9882ZM59.6885 25.8876C59.4773 26.2309 59.1949 26.509 58.8264 26.7274L59.846 28.448C60.4855 28.0691 61.0057 27.5632 61.3919 26.9358L59.6885 25.8876ZM58.8264 26.7274C58.4872 26.9284 58.1007 27.0357 57.6422 27.0357V29.0357C58.4344 29.0357 59.1772 28.8443 59.846 28.448L58.8264 26.7274ZM64.4008 27.5457L63.8987 28.4105L63.9069 28.4153L63.9152 28.4199L64.4008 27.5457ZM63.0568 26.1877L62.1772 26.6636L62.1833 26.6746L63.0568 26.1877ZM63.0988 22.1137L62.2331 21.6132L62.2306 21.6176L63.0988 22.1137ZM64.4428 20.7417L63.9435 19.8753L64.4428 20.7417ZM67.5368 20.5597L67.1139 21.4659L67.1215 21.4694L67.5368 20.5597ZM68.6708 21.3717L67.9443 22.059L67.9538 22.0688L68.6708 21.3717ZM69.4408 22.5477L68.5177 22.9323L68.5211 22.9405L68.5247 22.9485L69.4408 22.5477ZM69.7348 23.9757L70.7339 24.0174L70.7348 23.9965V23.9757H69.7348ZM69.4688 24.5217L70.109 25.2899L69.4688 24.5217ZM63.5328 24.7317L62.575 25.0191L62.7888 25.7317H63.5328V24.7317ZM63.1128 23.3317V22.3317H61.7688L62.155 23.6191L63.1128 23.3317ZM68.2508 23.3317L68.9235 24.0717L70.8374 22.3317H68.2508V23.3317ZM67.9428 23.6117H66.9428V25.8723L68.6155 24.3517L67.9428 23.6117ZM67.9428 23.2337H68.9428V23.1993L68.9404 23.1649L67.9428 23.2337ZM67.6488 22.5057L66.8613 23.122L66.8694 23.1324L66.8778 23.1426L67.6488 22.5057ZM67.0048 22.0017L66.5445 22.8895L66.5639 22.8995L66.5837 22.9087L67.0048 22.0017ZM65.4088 21.9177L65.7029 22.8735L65.4088 21.9177ZM64.7788 22.2957L65.4859 23.0028V23.0028L64.7788 22.2957ZM64.3588 23.0097L65.3045 23.3348L64.3588 23.0097ZM64.5128 25.4317L63.6474 25.9328L63.6552 25.9463L63.6635 25.9597L64.5128 25.4317ZM65.3248 26.2297L64.8287 27.098L64.8432 27.1063L64.8581 27.1141L65.3248 26.2297ZM67.2148 26.4117L66.9517 25.447V25.447L67.2148 26.4117ZM67.7048 26.2157L68.2289 27.0674L68.2373 27.0622L68.2456 27.0569L67.7048 26.2157ZM68.0548 26.0057L67.6076 25.1113L67.5916 25.1193L67.576 25.1278L68.0548 26.0057ZM69.0348 26.0897L68.3038 26.772L68.3155 26.7846L68.3277 26.7968L69.0348 26.0897ZM68.8528 27.2657L68.235 26.4794L68.2207 26.4906L68.2069 26.5023L68.8528 27.2657ZM67.8308 27.8117L68.1531 28.7584L68.162 28.7553L68.1709 28.7521L67.8308 27.8117ZM66.4728 27.0357C65.8188 27.0357 65.3013 26.902 64.8865 26.6716L63.9152 28.4199C64.6763 28.8428 65.5401 29.0357 66.4728 29.0357V27.0357ZM64.9029 26.6809C64.4754 26.4327 64.1577 26.1088 63.9303 25.7009L62.1833 26.6746C62.5906 27.4053 63.1688 27.9867 63.8987 28.4105L64.9029 26.6809ZM63.9364 25.7119C63.7158 25.3043 63.5948 24.8269 63.5948 24.2557H61.5948C61.5948 25.1219 61.7818 25.9325 62.1773 26.6635L63.9364 25.7119ZM63.5948 24.2557C63.5948 23.5484 63.7358 23.0145 63.9671 22.6099L62.2306 21.6176C61.7898 22.389 61.5948 23.2831 61.5948 24.2557H63.5948ZM63.9645 22.6142C64.2297 22.1555 64.5565 21.8304 64.9421 21.6082L63.9435 19.8753C63.2278 20.2877 62.6585 20.8773 62.2331 21.6132L63.9645 22.6142ZM64.9421 21.6082C65.346 21.3754 65.7578 21.2657 66.1928 21.2657V19.2657C65.3958 19.2657 64.641 19.4734 63.9435 19.8753L64.9421 21.6082ZM66.1928 21.2657C66.5267 21.2657 66.83 21.3334 67.1139 21.4659L67.9597 19.6535C67.4036 19.394 66.8109 19.2657 66.1928 19.2657V21.2657ZM67.1215 21.4694C67.4329 21.6116 67.7055 21.8064 67.9443 22.0589L69.3973 20.6845C68.9828 20.2464 68.4994 19.8999 67.9521 19.65L67.1215 21.4694ZM67.9538 22.0688C68.1896 22.3113 68.3777 22.5963 68.5177 22.9323L70.3639 22.1631C70.1306 21.6031 69.8053 21.1041 69.3878 20.6746L67.9538 22.0688ZM68.5247 22.9485C68.6636 23.2662 68.7348 23.6053 68.7348 23.9757H70.7348C70.7348 23.3381 70.61 22.7252 70.357 22.1469L68.5247 22.9485ZM68.7357 23.9341C68.7361 23.9233 68.7402 23.8878 68.7623 23.8423C68.7848 23.7962 68.8128 23.7667 68.8286 23.7535L70.109 25.2899C70.5 24.9641 70.7132 24.5153 70.7339 24.0174L68.7357 23.9341ZM68.8286 23.7535C68.8286 23.7535 68.8288 23.7533 68.8292 23.753C68.8296 23.7527 68.8302 23.7523 68.831 23.7517C68.8326 23.7506 68.8349 23.7491 68.8378 23.7474C68.8439 23.7439 68.8513 23.7404 68.8595 23.7375C68.8774 23.7311 68.887 23.7317 68.8808 23.7317V25.7317C69.3325 25.7317 69.7566 25.5836 70.109 25.2899L68.8286 23.7535ZM68.8808 23.7317H63.5328V25.7317H68.8808V23.7317ZM64.4906 24.4444L64.0706 23.0444L62.155 23.6191L62.575 25.0191L64.4906 24.4444ZM63.1128 24.3317H68.2508V22.3317H63.1128V24.3317ZM67.5781 22.5918L67.2701 22.8718L68.6155 24.3517L68.9235 24.0717L67.5781 22.5918ZM68.9428 23.6117V23.2337H66.9428V23.6117H68.9428ZM68.9404 23.1649C68.907 22.6801 68.7264 22.24 68.4198 21.8688L66.8778 23.1426C66.9259 23.2008 66.9413 23.246 66.9452 23.3025L68.9404 23.1649ZM68.4363 21.8894C68.1653 21.5431 67.8222 21.2787 67.4259 21.0947L66.5837 22.9087C66.71 22.9674 66.7963 23.039 66.8613 23.122L68.4363 21.8894ZM67.4651 21.114C67.0681 20.9081 66.6391 20.8057 66.1928 20.8057V22.8057C66.3251 22.8057 66.4375 22.834 66.5445 22.8895L67.4651 21.114ZM66.1928 20.8057C65.8233 20.8057 65.4619 20.8551 65.1147 20.9619L65.7029 22.8735C65.841 22.831 66.0023 22.8057 66.1928 22.8057V20.8057ZM65.1147 20.9619C64.7182 21.084 64.3659 21.2945 64.0717 21.5886L65.4859 23.0028C65.5464 22.9423 65.6141 22.9008 65.7029 22.8735L65.1147 20.9619ZM64.0717 21.5886C63.7626 21.8977 63.5528 22.2784 63.4131 22.6846L65.3045 23.3348C65.3702 23.1437 65.4403 23.0484 65.4859 23.0028L64.0717 21.5886ZM63.4131 22.6846C63.2623 23.1234 63.2048 23.6209 63.2048 24.1437H65.2048C65.2048 23.7519 65.25 23.4934 65.3045 23.3348L63.4131 22.6846ZM63.2048 24.1437C63.2048 24.7835 63.3357 25.3945 63.6474 25.9328L65.3782 24.9307C65.2792 24.7596 65.2048 24.5119 65.2048 24.1437H63.2048ZM63.6635 25.9597C63.9586 26.4343 64.3464 26.8224 64.8287 27.098L65.8209 25.3615C65.6499 25.2637 65.4964 25.1198 65.3621 24.9038L63.6635 25.9597ZM64.8581 27.1141C65.3353 27.366 65.8498 27.4957 66.3888 27.4957V25.4957C66.1811 25.4957 65.9863 25.4481 65.7916 25.3453L64.8581 27.1141ZM66.3888 27.4957C66.7752 27.4957 67.1505 27.4658 67.4779 27.3765L66.9517 25.447C66.8685 25.4697 66.6931 25.4957 66.3888 25.4957V27.4957ZM67.4779 27.3765C67.7346 27.3065 67.997 27.2101 68.2289 27.0674L67.1807 25.3641C67.1699 25.3707 67.1057 25.405 66.9517 25.447L67.4779 27.3765ZM68.2456 27.0569C68.3621 26.982 68.4576 26.9251 68.5337 26.8836L67.576 25.1278C67.4467 25.1983 67.3088 25.2815 67.1641 25.3745L68.2456 27.0569ZM68.502 26.9001C68.5661 26.8681 68.5715 26.8797 68.5308 26.8797V24.8797C68.1914 24.8797 67.8796 24.9753 67.6076 25.1113L68.502 26.9001ZM68.5308 26.8797C68.5183 26.8797 68.4787 26.8772 68.4262 26.8553C68.3721 26.8328 68.3303 26.8005 68.3038 26.772L69.7659 25.4074C69.4313 25.049 68.9909 24.8797 68.5308 24.8797V26.8797ZM68.3277 26.7968C68.318 26.7871 68.2937 26.759 68.2732 26.7111C68.2521 26.6621 68.2448 26.6149 68.2448 26.5797H70.2448C70.2448 26.1105 70.0568 25.6975 69.7419 25.3826L68.3277 26.7968ZM68.2448 26.5797C68.2448 26.5552 68.2481 26.5285 68.2553 26.502C68.2625 26.4758 68.2716 26.4562 68.2786 26.4441C68.2916 26.4213 68.2898 26.4363 68.235 26.4794L69.4706 28.052C69.8902 27.7224 70.2448 27.2306 70.2448 26.5797H68.2448ZM68.2069 26.5023C68.0866 26.6041 67.8651 26.7359 67.4907 26.8713L68.1709 28.7521C68.6739 28.5702 69.1336 28.338 69.4988 28.0291L68.2069 26.5023ZM67.5085 26.8651C67.1744 26.9788 66.8306 27.0357 66.4728 27.0357V29.0357C67.0483 29.0357 67.6099 28.9433 68.1531 28.7584L67.5085 26.8651ZM70.7686 26.7337L69.9549 27.315L69.9616 27.3244L69.9686 27.3337L70.7686 26.7337ZM71.0066 25.6977L70.4766 24.8497L70.4676 24.8554L71.0066 25.6977ZM71.4826 25.5857L71.3722 26.5796L71.3996 26.5827L71.4272 26.5842L71.4826 25.5857ZM71.9726 25.8377L71.2655 26.5448L71.9726 25.8377ZM73.9466 26.6917V27.6917H73.9799L74.0131 27.6895L73.9466 26.6917ZM74.4086 26.6357L74.573 27.6221L74.5994 27.6177L74.6256 27.6119L74.4086 26.6357ZM74.8426 26.4117L75.5209 27.1465L75.5231 27.1445L74.8426 26.4117ZM74.8286 25.3757L74.1737 26.1314L74.8286 25.3757ZM74.2686 25.0677L73.9175 26.0041L73.9299 26.0086L74.2686 25.0677ZM73.5126 24.8297L73.2338 25.7901L73.2444 25.7931L73.255 25.796L73.5126 24.8297ZM72.6166 24.5497L72.2915 25.4954L72.3004 25.4984L72.6166 24.5497ZM71.7906 24.1577L71.2359 24.9898L71.2468 24.997L71.2578 25.004L71.7906 24.1577ZM71.1746 23.4997L70.3119 24.0054V24.0054L71.1746 23.4997ZM71.3286 21.2877L70.5478 20.663L71.3286 21.2877ZM72.3366 20.5317L71.9476 19.6104L71.9402 19.6137L72.3366 20.5317ZM74.5626 20.3777L74.3336 21.3511L74.3472 21.3544L74.361 21.3572L74.5626 20.3777ZM75.4726 20.7137L74.9918 21.5905L75.0028 21.5966L75.014 21.6023L75.4726 20.7137ZM76.2006 21.3157L77.007 20.7244L76.9987 20.7129L76.99 20.7018L76.2006 21.3157ZM76.3826 21.8197L77.3781 21.7249V21.7249L76.3826 21.8197ZM76.1166 22.3517L76.7413 23.1326L76.7458 23.129L76.1166 22.3517ZM75.6266 22.5057L75.5271 23.5008L75.5519 23.5032L75.5767 23.5045L75.6266 22.5057ZM75.1646 22.3097L74.3733 22.9212L74.4247 22.9876L74.4863 23.0445L75.1646 22.3097ZM74.5206 21.8197L74.0995 22.7268L74.1116 22.7322L74.5206 21.8197ZM73.1486 21.6937L73.3224 22.6785L73.3441 22.6747L73.3656 22.6699L73.1486 21.6937ZM72.7286 21.9037L73.3746 22.6671L73.391 22.6532L73.4069 22.6385L72.7286 21.9037ZM72.7566 22.9257L72.0743 23.6568L72.0878 23.6693L72.1017 23.6814L72.7566 22.9257ZM73.3166 23.2337L72.9779 24.1746L73 24.1826L73.0225 24.1895L73.3166 23.2337ZM74.0866 23.4577L73.8207 24.4217L73.829 24.424L74.0866 23.4577ZM75.7386 24.1297L76.3078 23.3075V23.3075L75.7386 24.1297ZM76.3266 24.7877L75.451 25.2708L75.4547 25.2774L75.4584 25.2839L76.3266 24.7877ZM76.1306 27.0137L76.8988 27.6539L76.1306 27.0137ZM75.0806 27.7837L75.452 28.7122L75.4608 28.7087L75.4696 28.705L75.0806 27.7837ZM72.1406 27.7557L71.8053 28.6978L71.8124 28.7004L71.8196 28.7028L72.1406 27.7557ZM71.5824 26.1525C71.6142 26.197 71.6302 26.2391 71.6373 26.2672C71.6437 26.2929 71.6405 26.2985 71.6416 26.2751L69.6437 26.1843C69.627 26.5499 69.6987 26.9563 69.9549 27.315L71.5824 26.1525ZM71.6416 26.2751C71.6374 26.367 71.6053 26.4498 71.5659 26.5074C71.5323 26.5566 71.5108 26.5623 71.5457 26.54L70.4676 24.8554C70.0645 25.1134 69.6726 25.5481 69.6437 26.1843L71.6416 26.2751ZM71.5366 26.5457C71.526 26.5524 71.5021 26.5648 71.4667 26.5731C71.4307 26.5816 71.3974 26.5824 71.3722 26.5796L71.5931 24.5918C71.1914 24.5472 70.8083 24.6424 70.4766 24.8497L71.5366 26.5457ZM71.4272 26.5842C71.3586 26.5804 71.3054 26.5613 71.2738 26.545C71.2454 26.5304 71.2438 26.5232 71.2655 26.5448L72.6797 25.1306C72.4061 24.8569 72.0239 24.6143 71.5381 24.5873L71.4272 26.5842ZM71.2655 26.5448C71.6013 26.8806 71.9717 27.1583 72.3794 27.3621L73.2738 25.5733C73.0842 25.4785 72.8853 25.3362 72.6797 25.1306L71.2655 26.5448ZM72.3794 27.3621C72.856 27.6005 73.394 27.6917 73.9466 27.6917V25.6917C73.6033 25.6917 73.3945 25.6336 73.2738 25.5733L72.3794 27.3621ZM74.0131 27.6895C74.192 27.6776 74.3792 27.6544 74.573 27.6221L74.2442 25.6493C74.1021 25.673 73.9813 25.6872 73.8801 25.6939L74.0131 27.6895ZM74.6256 27.6119C74.9584 27.538 75.2642 27.3835 75.5209 27.1465L74.1643 25.6769C74.1687 25.6729 74.1759 25.6675 74.1845 25.6631C74.1929 25.6588 74.1965 25.6585 74.1917 25.6595L74.6256 27.6119ZM75.5231 27.1445C75.923 26.7732 76.0386 26.2823 76.0386 25.8657H74.0386C74.0386 25.9 74.0337 25.8874 74.0484 25.8464C74.0652 25.7997 74.1005 25.7362 74.1622 25.6789L75.5231 27.1445ZM76.0386 25.8657C76.0386 25.4056 75.868 24.9532 75.4836 24.62L74.1737 26.1314C74.1344 26.0974 74.0941 26.0464 74.067 25.9831C74.041 25.9225 74.0386 25.8776 74.0386 25.8657H76.0386ZM75.4836 24.62C75.2248 24.3958 74.9197 24.2393 74.6073 24.1268L73.9299 26.0086C74.0842 26.0642 74.1524 26.113 74.1737 26.1314L75.4836 24.62ZM74.6197 24.1314C74.3595 24.0338 74.0756 23.9449 73.7703 23.8635L73.255 25.796C73.5097 25.8639 73.7297 25.9336 73.9175 26.0041L74.6197 24.1314ZM73.7914 23.8694C73.5156 23.7893 73.2294 23.6999 72.9328 23.601L72.3004 25.4984C72.6198 25.6049 72.931 25.7022 73.2338 25.7901L73.7914 23.8694ZM72.9417 23.604C72.7115 23.5249 72.5064 23.4267 72.3234 23.3115L71.2578 25.004C71.5788 25.2061 71.9244 25.3692 72.2915 25.4954L72.9417 23.604ZM72.3453 23.3257C72.224 23.2448 72.1222 23.1388 72.0373 22.994L70.3119 24.0054C70.5444 24.402 70.8533 24.7347 71.2359 24.9898L72.3453 23.3257ZM72.0373 22.994C71.9922 22.9171 71.9366 22.7641 71.9366 22.4777H69.9366C69.9366 23.0127 70.0397 23.541 70.3119 24.0054L72.0373 22.994ZM71.9366 22.4777C71.9366 22.2103 72.0065 22.0412 72.1095 21.9124L70.5478 20.663C70.1281 21.1876 69.9366 21.8118 69.9366 22.4777H71.9366ZM72.1095 21.9124C72.2616 21.7223 72.4619 21.5669 72.7331 21.4498L71.9402 19.6137C71.39 19.8512 70.9183 20.1998 70.5478 20.663L72.1095 21.9124ZM72.7256 21.453C73.0221 21.3278 73.3285 21.2657 73.6526 21.2657V19.2657C73.0621 19.2657 72.4911 19.381 71.9477 19.6105L72.7256 21.453ZM73.6526 21.2657C73.8558 21.2657 74.082 21.2919 74.3336 21.3511L74.7917 19.4043C74.4086 19.3142 74.0281 19.2657 73.6526 19.2657V21.2657ZM74.361 21.3572C74.5788 21.402 74.7882 21.4789 74.9918 21.5905L75.9535 19.8369C75.5783 19.6312 75.1811 19.4841 74.7643 19.3983L74.361 21.3572ZM75.014 21.6023C75.1771 21.6865 75.3061 21.7944 75.4113 21.9297L76.99 20.7018C76.7031 20.333 76.3468 20.0396 75.9313 19.8251L75.014 21.6023ZM75.3942 21.9071C75.3911 21.9029 75.3885 21.8986 75.3863 21.8945C75.3841 21.8904 75.383 21.8875 75.3826 21.8864C75.3816 21.8838 75.385 21.8917 75.3871 21.9145L77.3781 21.7249C77.3447 21.374 77.2301 21.0285 77.007 20.7244L75.3942 21.9071ZM75.3871 21.9145C75.3786 21.8246 75.3968 21.7302 75.4357 21.6525C75.4701 21.5838 75.5036 21.5614 75.4874 21.5745L76.7458 23.129C77.12 22.826 77.4374 22.3478 77.3781 21.7249L75.3871 21.9145ZM75.4919 21.5709C75.5139 21.5532 75.5474 21.5334 75.5893 21.5202C75.6306 21.5073 75.6624 21.5063 75.6766 21.507L75.5767 23.5045C75.996 23.5254 76.4019 23.4041 76.7413 23.1326L75.4919 21.5709ZM75.7261 21.5107C75.721 21.5102 75.7355 21.511 75.7617 21.5221C75.7891 21.5338 75.8179 21.5519 75.8429 21.5749L74.4863 23.0445C74.7885 23.3235 75.1552 23.4636 75.5271 23.5008L75.7261 21.5107ZM75.9559 21.6983C75.683 21.345 75.3289 21.0862 74.9297 20.9072L74.1116 22.7322C74.2537 22.7959 74.329 22.8637 74.3733 22.9212L75.9559 21.6983ZM74.9417 20.9127C74.5249 20.7192 74.073 20.6377 73.6106 20.6377V22.6377C73.8389 22.6377 73.9937 22.6776 74.0995 22.7267L74.9417 20.9127ZM73.6106 20.6377C73.3833 20.6377 73.1554 20.6678 72.9317 20.7175L73.3656 22.6699C73.4779 22.6449 73.5579 22.6377 73.6106 22.6377V20.6377ZM72.9748 20.7089C72.6226 20.7711 72.3087 20.9304 72.0503 21.1689L73.4069 22.6385C73.4022 22.6428 73.3905 22.6523 73.3718 22.6616C73.353 22.6711 73.3353 22.6762 73.3224 22.6785L72.9748 20.7089ZM72.0827 21.1403C71.6478 21.5083 71.5466 22.0212 71.5466 22.4077H73.5466C73.5466 22.3733 73.5517 22.3938 73.5327 22.4464C73.5111 22.5062 73.4634 22.5919 73.3746 22.6671L72.0827 21.1403ZM71.5466 22.4077C71.5466 22.8625 71.7061 23.3131 72.0743 23.6568L73.4389 22.1947C73.4722 22.2257 73.5047 22.2702 73.5259 22.3225C73.546 22.3723 73.5466 22.4057 73.5466 22.4077H71.5466ZM72.1017 23.6814C72.3604 23.9057 72.6656 24.0622 72.9779 24.1746L73.6553 22.2928C73.501 22.2373 73.4328 22.1885 73.4116 22.17L72.1017 23.6814ZM73.0225 24.1895C73.2755 24.2673 73.5416 24.3447 73.8207 24.4217L74.3526 22.4937C74.0903 22.4214 73.8431 22.3495 73.6107 22.2779L73.0225 24.1895ZM73.829 24.424C74.0816 24.4913 74.3407 24.5719 74.6062 24.6661L75.275 22.7813C74.9619 22.6702 74.6516 22.5735 74.3443 22.4915L73.829 24.424ZM74.6062 24.6661C74.8157 24.7405 75.0022 24.8362 75.1694 24.9519L76.3078 23.3075C75.9897 23.0873 75.6442 22.9123 75.275 22.7813L74.6062 24.6661ZM75.1694 24.9519C75.2791 25.0279 75.3727 25.1287 75.451 25.2708L77.2022 24.3046C76.9819 23.9054 76.6835 23.5676 76.3078 23.3075L75.1694 24.9519ZM75.4584 25.2839C75.4955 25.3489 75.5506 25.4983 75.5506 25.7957H77.5506C77.5506 25.2718 77.4564 24.7492 77.1949 24.2916L75.4584 25.2839ZM75.5506 25.7957C75.5506 26.06 75.479 26.2336 75.3624 26.3735L76.8988 27.6539C77.3422 27.1219 77.5506 26.4835 77.5506 25.7957H75.5506ZM75.3624 26.3735C75.189 26.5817 74.9711 26.7445 74.6917 26.8625L75.4696 28.705C76.0302 28.4683 76.5123 28.1178 76.8988 27.6539L75.3624 26.3735ZM74.7092 26.8552C74.4036 26.9775 74.1001 27.0357 73.7926 27.0357V29.0357C74.3625 29.0357 74.9177 28.9259 75.452 28.7122L74.7092 26.8552ZM73.7926 27.0357C73.3571 27.0357 72.9147 26.9622 72.4617 26.8087L71.8196 28.7028C72.4678 28.9225 73.1268 29.0357 73.7926 29.0357V27.0357ZM72.4759 26.8136C72.1177 26.6861 71.8194 26.4681 71.5686 26.1337L69.9686 27.3337C70.4458 27.97 71.0622 28.4333 71.8053 28.6978L72.4759 26.8136ZM81.9185 20.7697L81.2114 21.4768V21.4768L81.9185 20.7697ZM81.9185 21.8757L82.6025 22.6053L82.6142 22.5942L82.6256 22.5828L81.9185 21.8757ZM77.4805 20.7697L78.1645 21.4993L78.1762 21.4882L78.1876 21.4768L77.4805 20.7697ZM80.1265 19.0477L79.3791 19.7121L79.3986 19.734L79.4194 19.7548L80.1265 19.0477ZM80.4345 26.2017L79.5604 26.6874L79.58 26.7227L79.6025 26.7564L80.4345 26.2017ZM80.6445 26.3837L80.2384 27.2975L80.2556 27.3052L80.2731 27.3122L80.6445 26.3837ZM81.2465 26.3837L81.6179 27.3122L81.6565 27.2967L81.6937 27.2781L81.2465 26.3837ZM81.9185 26.4957L81.1551 27.1417L81.1691 27.1581L81.1837 27.174L81.9185 26.4957ZM81.6525 27.6437L81.1504 26.7789L81.1442 26.7825L81.138 26.7862L81.6525 27.6437ZM80.0845 27.8537L79.9265 28.8412L79.9482 28.8446L79.9699 28.8471L80.0845 27.8537ZM79.4125 27.6157L78.8757 28.4594L78.8977 28.4734L78.9205 28.4863L79.4125 27.6157ZM78.8945 27.0277L78.013 27.4999L78.8945 27.0277ZM78.9225 19.0477L78.2154 18.3406L78.9225 19.0477ZM78.0405 21.5457H81.3585V19.5457H78.0405V21.5457ZM81.3585 21.5457C81.3589 21.5457 81.3525 21.5457 81.3406 21.5436C81.3286 21.5414 81.3129 21.5373 81.2951 21.5302C81.2564 21.5147 81.2276 21.493 81.2114 21.4768L82.6256 20.0626C82.2765 19.7135 81.8299 19.5457 81.3585 19.5457V21.5457ZM81.2114 21.4768C81.1952 21.4607 81.1735 21.4318 81.1581 21.3931C81.1509 21.3753 81.1468 21.3596 81.1447 21.3476C81.1425 21.3358 81.1425 21.3294 81.1425 21.3297H83.1425C83.1425 20.8584 82.9748 20.4117 82.6256 20.0626L81.2114 21.4768ZM81.1425 21.3297C81.1425 21.3188 81.1449 21.2877 81.1614 21.2477C81.1779 21.2073 81.1994 21.1806 81.2114 21.1686L82.6256 22.5828C82.9659 22.2425 83.1425 21.8047 83.1425 21.3297H81.1425ZM81.2346 21.1462C81.2535 21.1285 81.2819 21.1095 81.3154 21.0969C81.3473 21.0849 81.3653 21.0857 81.3585 21.0857V23.0857C81.8105 23.0857 82.2496 22.9361 82.6025 22.6053L81.2346 21.1462ZM81.3585 21.0857H78.0405V23.0857H81.3585V21.0857ZM78.0405 21.0857C78.0402 21.0857 78.0466 21.0857 78.0584 21.0879C78.0704 21.09 78.0861 21.0941 78.1039 21.1012C78.1426 21.1167 78.1715 21.1384 78.1876 21.1546L76.7734 22.5688C77.1226 22.918 77.5692 23.0857 78.0405 23.0857V21.0857ZM78.1876 21.1546C78.2038 21.1708 78.2255 21.1996 78.241 21.2383C78.2481 21.2561 78.2522 21.2718 78.2544 21.2838C78.2565 21.2957 78.2565 21.3021 78.2565 21.3017H76.2565C76.2565 21.7731 76.4243 22.2197 76.7734 22.5688L78.1876 21.1546ZM78.2565 21.3017C78.2565 21.3122 78.2542 21.3481 78.2342 21.3958C78.2137 21.4445 78.1855 21.4796 78.1645 21.4993L76.7966 20.0402C76.4348 20.3793 76.2565 20.8258 76.2565 21.3017H78.2565ZM78.1876 21.4768C78.1715 21.493 78.1426 21.5147 78.1039 21.5302C78.0861 21.5373 78.0704 21.5414 78.0584 21.5436C78.0466 21.5457 78.0402 21.5457 78.0405 21.5457V19.5457C77.5692 19.5457 77.1226 19.7135 76.7734 20.0626L78.1876 21.4768ZM79.5385 19.7957C79.543 19.7957 79.5161 19.7961 79.4736 19.7779C79.4292 19.7588 79.3967 19.7319 79.3791 19.7121L80.8739 18.3834C80.5185 17.9835 80.0412 17.7957 79.5385 17.7957V19.7957ZM79.4194 19.7548C79.406 19.7414 79.3877 19.7168 79.3751 19.6849C79.363 19.6545 79.3645 19.6386 79.3645 19.6497H81.3645C81.3645 19.1657 81.1961 18.703 80.8336 18.3406L79.4194 19.7548ZM79.3645 19.6497V25.8797H81.3645V19.6497H79.3645ZM79.3645 25.8797C79.3645 26.1218 79.4068 26.4109 79.5604 26.6874L81.3087 25.7161C81.3689 25.8245 81.3645 25.899 81.3645 25.8797H79.3645ZM79.6025 26.7564C79.7529 26.982 79.9644 27.1758 80.2384 27.2975L81.0507 25.4699C81.1566 25.517 81.2282 25.5894 81.2666 25.647L79.6025 26.7564ZM80.2731 27.3122C80.4871 27.3978 80.7114 27.4397 80.9385 27.4397V25.4397C80.9482 25.4397 80.9607 25.4406 80.9751 25.4434C80.9896 25.4461 81.0035 25.4503 81.0159 25.4552L80.2731 27.3122ZM80.9385 27.4397C81.1632 27.4397 81.3937 27.4019 81.6179 27.3122L80.8751 25.4552C80.8929 25.4481 80.9086 25.444 80.9206 25.4419C80.9325 25.4397 80.9389 25.4397 80.9385 25.4397V27.4397ZM81.6937 27.2781C81.6273 27.3114 81.5772 27.3137 81.5685 27.3137V25.3137C81.3172 25.3137 81.0524 25.3627 80.7993 25.4893L81.6937 27.2781ZM81.5685 27.3137C81.4722 27.3137 81.3759 27.2897 81.2927 27.2464C81.2142 27.2056 81.1707 27.1601 81.1551 27.1417L82.6819 25.8498C82.4343 25.5571 82.0566 25.3137 81.5685 25.3137V27.3137ZM81.1837 27.174C81.1367 27.1231 81.1094 27.0695 81.0958 27.0289C81.0835 26.992 81.0865 26.9778 81.0865 26.9997H83.0865C83.0865 26.6113 82.9821 26.1736 82.6533 25.8174L81.1837 27.174ZM81.0865 26.9997C81.0865 26.9715 81.0906 26.9356 81.1026 26.8962C81.1146 26.8567 81.1316 26.8233 81.1488 26.7979C81.1819 26.7487 81.2012 26.7495 81.1504 26.7789L82.1547 28.5085C82.6525 28.2194 83.0865 27.7194 83.0865 26.9997H81.0865ZM81.138 26.7862C81.0135 26.8609 80.888 26.8957 80.7425 26.8957V28.8957C81.2504 28.8957 81.7315 28.7625 82.167 28.5012L81.138 26.7862ZM80.7425 26.8957C80.5928 26.8957 80.4126 26.8849 80.1992 26.8603L79.9699 28.8471C80.2418 28.8785 80.5003 28.8957 80.7425 28.8957V26.8957ZM80.2425 26.8663C80.1317 26.8485 80.0203 26.8106 79.9046 26.7452L78.9205 28.4863C79.2341 28.6635 79.5707 28.7842 79.9265 28.8412L80.2425 26.8663ZM79.9494 26.7721C79.9174 26.7517 79.8525 26.6983 79.776 26.5555L78.013 27.4999C78.2165 27.8798 78.497 28.2184 78.8757 28.4594L79.9494 26.7721ZM79.776 26.5555C79.7448 26.4973 79.6845 26.3237 79.6845 25.9497H77.6845C77.6845 26.4905 77.7642 27.0355 78.013 27.4999L79.776 26.5555ZM79.6845 25.9497V19.6497H77.6845V25.9497H79.6845ZM79.6845 19.6497C79.6845 19.6386 79.686 19.6545 79.674 19.6849C79.6614 19.7168 79.6431 19.7414 79.6296 19.7548L78.2154 18.3406C77.853 18.703 77.6845 19.1657 77.6845 19.6497H79.6845ZM79.6296 19.7548C79.6265 19.758 79.6099 19.7725 79.5812 19.7843C79.5528 19.7959 79.5348 19.7957 79.5385 19.7957V17.7957C79.037 17.7957 78.5754 17.9806 78.2154 18.3406L79.6296 19.7548Z" fill="black"/>
</g>
<defs>
<filter id="filter0_d_104_765" x="50.8702" y="18.0957" width="35.2723" height="17.94" filterUnits="userSpaceOnUse" color-interpolation-filters="sRGB">
<feFlood flood-opacity="0" result="BackgroundImageFix"/>
<feColorMatrix in="SourceAlpha" type="matrix" values="0 0 0 0 0 0 0 0 0 0 0 0 0 0 0 0 0 0 127 0" result="hardAlpha"/>
<feOffset dy="4"/>
<feGaussianBlur stdDeviation="2"/>
<feComposite in2="hardAlpha" operator="out"/>
<feColorMatrix type="matrix" values="0 0 0 0 0 0 0 0 0 0 0 0 0 0 0 0 0 0 0.25 0"/>
<feBlend mode="normal" in2="BackgroundImageFix" result="effect1_dropShadow_104_765"/>
<feBlend mode="normal" in="SourceGraphic" in2="effect1_dropShadow_104_765" result="shape"/>
</filter>
</defs>
</svg>
