<svg width="156" height="27" viewBox="0 0 156 27" fill="none" xmlns="http://www.w3.org/2000/svg">
<path d="M3.96149 16.4792C3.96149 15.6648 3.68707 15.085 3.13581 14.7411C2.58455 14.3971 1.80156 14.2251 0.76001 14.2251V11.2156C1.27712 11.2156 1.7357 11.1787 2.13573 11.1019C2.5443 11.0178 2.88579 10.887 3.16142 10.7113C3.43583 10.527 3.64073 10.2912 3.77428 10.0062C3.91575 9.7206 3.97856 9.37665 3.9621 8.97312V4.96854C3.9621 4.34697 4.04137 3.81815 4.20602 3.38145C4.36432 2.93633 4.66314 2.55575 5.0567 2.29801C5.4738 2.0124 6.03604 1.80235 6.74586 1.66845C7.45567 1.53456 8.35574 1.46699 9.44729 1.46699V4.30091C9.11373 4.30951 8.80944 4.33899 8.53442 4.38935C8.26732 4.43972 8.03864 4.53185 7.84656 4.66574C7.66361 4.79165 7.52153 4.96793 7.42152 5.19395C7.32151 5.41998 7.27151 5.71479 7.27151 6.07594V9.84221C7.22151 11.4127 6.24582 12.3445 4.34444 12.6387V12.7898C5.30306 12.9322 6.03665 13.235 6.53974 13.6969C7.04283 14.1588 7.2898 14.7841 7.27151 15.5739V19.3402C7.27151 19.7013 7.32151 19.9949 7.42152 20.2222C7.52153 20.4494 7.663 20.6251 7.84656 20.7504C8.03803 20.8855 8.27342 20.9776 8.53442 21.0268C8.836 21.0798 9.1412 21.1094 9.44729 21.1152V23.962C8.34965 23.962 7.45445 23.9006 6.74586 23.7606C6.03726 23.6205 5.47441 23.4166 5.0567 23.131C4.66314 22.8733 4.36432 22.4927 4.20602 22.0476C4.04747 21.6023 3.9621 21.0692 3.9621 20.4476V16.4799L3.96149 16.4792ZM11.0785 18.0792C11.0785 17.6843 11.1395 17.3526 11.2413 17.0842C11.3633 16.8078 11.5158 16.5849 11.717 16.4166C11.9182 16.2483 12.1439 16.1267 12.417 16.0511C12.6981 15.9736 12.9885 15.9354 13.2799 15.9375C13.5591 15.9358 13.8371 15.9741 14.1056 16.0511C14.3721 16.1267 14.6056 16.2477 14.8057 16.4166C15.0057 16.5855 15.1642 16.8072 15.2813 17.0842C15.4033 17.3533 15.4563 17.6849 15.4563 18.0792C15.4563 18.457 15.3978 18.7806 15.2813 19.0497C15.1648 19.3187 15.0069 19.541 14.8057 19.7173C14.6035 19.8947 14.3642 20.0238 14.1056 20.095C13.847 20.1792 13.572 20.2209 13.2799 20.2209C12.9714 20.2209 12.6835 20.1792 12.417 20.095C12.1584 20.0238 11.9191 19.8947 11.717 19.7173C11.5113 19.533 11.3489 19.3049 11.2413 19.0497C11.1328 18.7813 11.0785 18.4576 11.0785 18.0792ZM18.1334 26.0835C17.7192 26.0823 17.3056 26.0528 16.8955 25.995C16.4704 25.9361 16.1161 25.8599 15.8326 25.7678V22.7447C16.0691 22.8233 16.3116 22.8823 16.5576 22.921C16.7833 22.9627 17.0369 22.9836 17.3199 22.9836C17.5202 22.9849 17.7191 22.9508 17.9077 22.8829C18.1013 22.8229 18.2717 22.704 18.3956 22.5426C18.5371 22.3829 18.6499 22.1649 18.7334 21.8879C18.817 21.6195 18.8584 21.2706 18.8584 20.8425V5.79771H22.6727V21.3984C22.6727 22.0451 22.5892 22.6495 22.4288 23.2121C22.2703 23.7833 22.002 24.2783 21.641 24.6985C21.2824 25.1266 20.8153 25.4625 20.2402 25.7057C19.6652 25.949 18.9645 26.0712 18.1395 26.0712L18.1334 26.0835ZM18.7023 2.15183C18.7023 1.79068 18.7633 1.49279 18.8651 1.25755C18.9627 1.03181 19.1129 0.833116 19.303 0.678362C19.4983 0.525563 19.7246 0.417983 19.9658 0.363278C20.2327 0.303403 20.5053 0.273737 20.7787 0.274833C21.0481 0.273348 21.3167 0.303024 21.5794 0.363278C21.8233 0.422241 22.0465 0.52727 22.2294 0.678362C22.4209 0.820857 22.5709 1.01433 22.6795 1.25755C22.8014 1.49279 22.8545 1.79068 22.8545 2.15183C22.8545 2.50438 22.7959 2.80288 22.6795 3.0461C22.5709 3.28994 22.4209 3.48709 22.2294 3.63819C22.0465 3.78068 21.8294 3.88571 21.5794 3.95327C21.3354 4.01223 21.0623 4.04172 20.7793 4.04172C20.5059 4.04276 20.2333 4.0131 19.9664 3.95327C19.7277 3.8915 19.5027 3.78457 19.3036 3.63819C19.1206 3.48709 18.9743 3.28994 18.8657 3.0461C18.7572 2.80226 18.7029 2.50438 18.7029 2.15183H18.7023ZM35.9238 15.6986C35.9238 16.4375 35.7897 17.0842 35.5238 17.6382C35.262 18.1864 34.8714 18.6621 34.3859 19.0239C33.8938 19.3924 33.298 19.6706 32.5973 19.8549C31.8967 20.0391 31.1131 20.1313 30.2465 20.1313C29.788 20.1313 29.3623 20.1147 28.9708 20.0809C28.5973 20.0584 28.2256 20.0121 27.8579 19.9421L26.8456 19.6964C26.5089 19.5913 26.179 19.4651 25.8578 19.3187V16.1335C26.2078 16.3097 26.5749 16.4694 26.9585 16.6125L28.1214 16.9903L29.2343 17.2359C29.6014 17.2949 29.9386 17.3244 30.2465 17.3244C30.588 17.3244 30.8807 17.2949 31.1222 17.2359C31.3332 17.1868 31.5328 17.0971 31.7101 16.9718C31.8558 16.8697 31.9723 16.7307 32.0479 16.5689C32.1229 16.4092 32.1607 16.2416 32.1607 16.0653C32.1607 15.889 32.1314 15.7336 32.0729 15.5985C32.0229 15.456 31.9021 15.3086 31.7101 15.1575C31.5186 14.9978 31.2344 14.8215 30.8594 14.6293L29.3715 13.8922L27.7835 13.0735C27.3414 12.7971 26.9749 12.49 26.6828 12.1541C26.3993 11.8181 26.1871 11.4354 26.045 11.008C25.9029 10.5805 25.8315 10.0547 25.8315 9.45895C25.8315 8.80422 25.9565 8.23301 26.2066 7.73919C26.4505 7.24354 26.8164 6.83202 27.2695 6.5108C27.7225 6.18957 28.2781 5.93959 28.9202 5.77376C29.5703 5.60608 30.2923 5.52808 31.0838 5.52808C31.9174 5.52808 32.7095 5.62451 33.4596 5.81798C34.2097 6.01145 34.9811 6.30074 35.7732 6.68707L34.6164 9.43868C34.0272 9.15457 33.4216 8.90639 32.8028 8.6955C32.2278 8.50264 31.6521 8.4056 31.0771 8.4056C30.56 8.4056 30.1849 8.49773 29.9514 8.68199C29.7258 8.86625 29.6136 9.11193 29.6136 9.43745C29.6136 9.60513 29.6428 9.75684 29.7014 9.89073C29.7599 10.0166 29.8764 10.1512 30.0514 10.2936C30.2264 10.4288 30.4783 10.5792 30.7832 10.7469L32.0211 11.339L33.6218 12.119C34.0975 12.3647 34.506 12.6608 34.8414 12.9881C35.1768 13.3155 35.4512 13.6975 35.6293 14.1342C35.8073 14.5709 35.9037 15.0998 35.9037 15.7213L35.9238 15.6986ZM42.7109 20.447C42.7109 21.0685 42.6317 21.6017 42.467 22.047C42.3024 22.4923 42.0219 22.8534 41.6041 23.1304C41.1956 23.416 40.637 23.6261 39.9284 23.76C39.2198 23.8939 38.3185 23.9614 37.227 23.9614V21.1085C37.529 21.1029 37.8302 21.0733 38.1277 21.02C38.3941 20.9697 38.6198 20.8775 38.8027 20.7436C38.9971 20.6146 39.1494 20.4306 39.2405 20.2148C39.3491 19.9876 39.4034 19.694 39.4034 19.3328V15.5665C39.379 14.7773 39.6198 14.1514 40.1351 13.6896C40.6504 13.2277 41.373 12.9255 42.3304 12.7824V12.6313C40.4376 12.3365 39.4668 11.4053 39.4168 9.83484V6.06857C39.4168 5.70742 39.3558 5.41384 39.254 5.18658C39.1629 4.97075 39.0106 4.78679 38.8161 4.65776C38.6332 4.52263 38.4075 4.4305 38.1411 4.38137C37.8436 4.32852 37.5424 4.29895 37.2404 4.29292V1.45901C38.338 1.45901 39.2332 1.52043 39.9418 1.66047C40.6504 1.8005 41.209 2.00442 41.6176 2.29002C42.0347 2.56641 42.3219 2.92879 42.4804 3.37347C42.639 3.80341 42.7244 4.33899 42.7244 4.96056V8.96514C42.7158 9.36805 42.7853 9.71262 42.9122 9.99822C43.039 10.2838 43.25 10.5191 43.525 10.7033C43.7994 10.8796 44.1379 11.0104 44.5373 11.0939C44.9459 11.1695 45.4093 11.2076 45.9252 11.2076V14.2172C44.8886 14.2172 44.0867 14.3891 43.5366 14.7331C42.9878 15.077 42.7237 15.6568 42.7237 16.4713V20.439" fill="#555588"/>
<path d="M54.135 24.3832C53.7479 24.3832 53.4123 24.3574 53.1259 24.3032C52.8381 24.2581 52.589 24.1935 52.3774 24.1096V22.2927C52.6497 22.364 52.9265 22.417 53.2059 22.4514C53.5211 22.4983 53.8395 22.5212 54.1582 22.5198C54.4416 22.519 54.7236 22.4808 54.997 22.4063C55.2809 22.34 55.5453 22.2078 55.7687 22.0204C56.0035 21.8307 56.1919 21.5688 56.3365 21.2384C56.481 20.9081 56.552 20.4822 56.552 19.9686V3.38785H58.6734V19.7428C58.6734 20.5364 58.5599 21.2242 58.3328 21.8075C58.1374 22.3527 57.819 22.8455 57.4024 23.2476C56.9994 23.6391 56.51 23.9303 55.9739 24.098C55.4215 24.2877 54.6679 24.3819 53.9956 24.3819L54.135 24.3832ZM69.2137 18.2459H69.1234C68.8967 18.5595 68.6465 18.8555 68.3749 19.1312C68.1318 19.3685 67.8569 19.5709 67.5581 19.7325C67.2476 19.8966 66.9151 20.0153 66.5709 20.0848C66.207 20.1622 65.7889 20.1983 65.3114 20.1983C64.7901 20.1983 64.3101 20.1209 63.8713 19.9712C63.4419 19.8408 63.0493 19.6109 62.7254 19.3002C62.408 18.9905 62.1576 18.6034 61.977 18.144C61.7963 17.6755 61.7189 17.1116 61.7189 16.4883C61.7189 15.2495 62.1537 14.2946 63.0093 13.63C63.8868 12.9642 65.203 12.6015 67.0019 12.5409L69.0885 12.4609V11.6789C69.0885 11.1717 69.0318 10.7498 68.9182 10.4091C68.8124 10.0684 68.6537 9.79615 68.4407 9.59226C68.2282 9.37523 67.962 9.21849 67.6691 9.13803C67.3294 9.04268 66.9778 8.99704 66.6251 9.00253C66.0285 8.99778 65.435 9.08929 64.8675 9.27352C64.3339 9.45375 63.8146 9.67374 63.3138 9.93164L62.5886 8.37796C63.1487 8.076 63.772 7.81791 64.4598 7.60628C65.162 7.39257 65.8924 7.28556 66.6264 7.28883C67.3981 7.28883 68.0626 7.36884 68.6227 7.52757C69.1905 7.67855 69.655 7.92502 70.0164 8.26311C70.3968 8.61302 70.6819 9.05399 70.8448 9.54451C71.0281 10.0646 71.1029 10.6982 71.1029 11.4389V19.9699H69.6267L69.2137 18.2459ZM65.8586 18.5234C66.2951 18.5273 66.7288 18.4544 67.14 18.3079C67.5236 18.1713 67.8719 17.9509 68.1594 17.6626C68.4472 17.3684 68.6704 17.0006 68.8305 16.5632C68.9982 16.1167 69.0795 15.5954 69.0795 14.9979V13.8752L67.4574 13.9552C66.7774 13.9849 66.2057 14.061 65.745 14.1823C65.2843 14.3036 64.9127 14.474 64.6353 14.6934C64.3772 14.905 64.1668 15.1656 64.0455 15.4753C63.9195 15.8047 63.8578 16.1551 63.8636 16.5077C63.8636 17.2045 64.0442 17.7143 64.4081 18.0394C64.7785 18.3646 65.2624 18.5272 65.8599 18.5272L65.8586 18.5234ZM72.854 7.51724H74.9858L77.2441 14.4469L77.5409 15.4108L77.8816 16.6135L78.1874 17.7697L78.381 18.5982H78.461L78.6545 17.7697L78.9604 16.6135L79.301 15.4108L79.5978 14.4469L81.8561 7.51724H83.9879L79.7243 19.9699H77.1047L72.854 7.51724ZM92.4132 18.2459H92.3228C92.0961 18.5595 91.8459 18.8555 91.5744 19.1312C91.0754 19.6134 90.4498 19.9441 89.7703 20.0848C89.4064 20.1622 88.9883 20.1983 88.5109 20.1983C87.9895 20.1983 87.5095 20.1209 87.0708 19.9712C86.6413 19.8408 86.2487 19.6109 85.9248 19.3002C85.6074 18.9905 85.3571 18.6034 85.1764 18.144C84.9957 17.6755 84.9183 17.1116 84.9183 16.4883C84.9183 15.2495 85.3532 14.2946 86.2087 13.63C87.0862 12.9642 88.4025 12.6015 90.2013 12.5409L92.288 12.4609V11.6789C92.288 11.1717 92.2312 10.7498 92.1176 10.4091C92.0118 10.0684 91.8531 9.79615 91.6402 9.59226C91.4277 9.37523 91.1614 9.21849 90.8685 9.13803C90.5289 9.04268 90.1772 8.99704 89.8245 9.00253C89.2279 8.99778 88.6344 9.08929 88.067 9.27352C87.5334 9.45375 87.014 9.67374 86.5133 9.93164L85.7881 8.37796C86.3481 8.076 86.9714 7.81791 87.6592 7.60628C88.3618 7.39244 89.0927 7.28543 89.8271 7.28883C90.5988 7.28883 91.2634 7.36884 91.8234 7.52757C92.3912 7.67855 92.8558 7.92502 93.2171 8.26311C93.5975 8.61302 93.8826 9.05399 94.0456 9.54451C94.2288 10.0646 94.3036 10.6982 94.3036 11.4389V19.9699H92.8196L92.4132 18.2459ZM89.058 18.5298C89.4945 18.5338 89.9283 18.4608 90.3394 18.3143C90.723 18.1778 91.0713 17.9573 91.3589 17.6691C91.6466 17.3723 91.8699 17.0071 92.0299 16.5696C92.1977 16.1231 92.2789 15.6018 92.2789 15.0043V13.8817L90.6569 13.9617C89.9768 13.9914 89.4052 14.0675 88.9445 14.1888C88.4838 14.3101 88.1121 14.4804 87.8347 14.6998C87.5766 14.9114 87.3663 15.1721 87.245 15.4818C87.119 15.8112 87.0572 16.1616 87.063 16.5141C87.063 17.211 87.2437 17.7207 87.6076 18.0459C87.9779 18.3711 88.4618 18.5337 89.0593 18.5337L89.058 18.5298ZM107.039 15.536C107.039 16.269 106.906 16.9271 106.641 17.5104C106.39 18.078 106.01 18.5791 105.53 18.9737C105.047 19.3608 104.457 19.6809 103.763 19.8925C103.066 20.0964 102.284 20.1983 101.414 20.1983C100.623 20.2024 99.8335 20.1341 99.055 19.9944C98.3285 19.8654 97.7207 19.6718 97.2291 19.4163V17.3981L98.1027 17.7594L99.135 18.0653L100.258 18.2924C100.637 18.3444 101.02 18.3711 101.404 18.3724C102.613 18.3724 103.507 18.1453 104.08 17.6923C104.661 17.2381 104.954 16.589 104.954 15.7412C104.961 15.3786 104.903 15.0175 104.783 14.6753C104.677 14.3733 104.486 14.0972 104.205 13.8468C103.947 13.5887 103.566 13.3306 103.104 13.1113C102.538 12.8158 101.955 12.5546 101.357 12.3293C100.747 12.0953 100.158 11.8068 99.5996 11.4673C99.1092 11.1498 98.7002 10.7937 98.3737 10.4014C98.0562 10.0078 97.8188 9.56257 97.6588 9.06318C97.5078 8.56378 97.4317 7.99729 97.4317 7.36239C97.4317 6.69653 97.553 6.10421 97.793 5.58158C98.0269 5.06982 98.3763 4.61928 98.8137 4.26535C99.2763 3.88945 99.8081 3.60798 100.379 3.43689C100.992 3.24849 101.664 3.15299 102.397 3.15299C103.297 3.15299 104.106 3.23945 104.823 3.41365C105.542 3.58141 106.181 3.79562 106.74 4.05887L105.965 5.82677C105.475 5.6074 104.915 5.41899 104.288 5.25898C103.659 5.09163 103.011 5.00789 102.36 5.00992C101.437 5.00992 100.721 5.22542 100.218 5.65514C99.9661 5.86479 99.7657 6.12902 99.6315 6.42775C99.4973 6.72648 99.433 7.05185 99.4434 7.37916C99.4434 7.81016 99.5002 8.18439 99.6138 8.50184C99.7356 8.82466 99.9293 9.11549 100.18 9.35224C100.445 9.6013 100.793 9.84002 101.213 10.0671C101.651 10.2865 102.188 10.5214 102.823 10.7704C103.442 11.0097 104.044 11.2899 104.626 11.6092C105.108 11.8665 105.547 12.1954 105.93 12.5848C106.278 12.9444 106.544 13.3737 106.712 13.8442C106.893 14.3217 106.99 14.905 106.99 15.5554L107.039 15.536ZM114.672 20.1971C113.908 20.1971 113.193 20.068 112.53 19.8448C111.87 19.6077 111.275 19.2187 110.794 18.7092C110.304 18.1878 109.917 17.5259 109.638 16.7245C109.358 15.9154 109.218 14.9437 109.218 13.8081C109.218 12.6209 109.348 11.6144 109.649 10.7911C109.937 9.95874 110.33 9.28642 110.829 8.77283C111.321 8.26133 111.927 7.8724 112.597 7.63725C113.268 7.4011 113.991 7.28496 114.765 7.28496C115.345 7.28383 115.923 7.34833 116.489 7.47724C116.979 7.57952 117.455 7.73935 117.907 7.95341L117.294 9.70065C117.12 9.62323 116.928 9.55355 116.716 9.48515C116.504 9.40966 116.289 9.34505 116.071 9.29158C115.844 9.23093 115.619 9.18577 115.4 9.1561C115.194 9.11968 114.985 9.10068 114.776 9.09931C113.589 9.09931 112.712 9.48128 112.179 10.2452C111.634 11.0014 111.362 12.1809 111.362 13.7836C111.362 15.3786 111.62 16.5477 112.179 17.2884C112.731 18.0214 113.566 18.3879 114.685 18.3879C115.243 18.3946 115.8 18.326 116.34 18.184C116.806 18.0525 117.261 17.8855 117.702 17.6846V19.5222C117.287 19.745 116.844 19.9129 116.386 20.0216C115.925 20.1351 115.327 20.1919 114.654 20.1919L114.672 20.1971ZM125.971 7.29013L126.706 7.32367C126.942 7.33449 127.177 7.36123 127.41 7.40368L127.152 9.30965L126.506 9.21932C126.287 9.18835 126.081 9.17416 125.883 9.17416C125.406 9.17416 124.972 9.27223 124.593 9.46838C124.193 9.66247 123.844 9.94595 123.572 10.2968C123.275 10.6818 123.056 11.121 122.927 11.5898C122.77 12.1314 122.693 12.6932 122.7 13.2571V19.9699H120.635V7.51724H122.313L122.562 9.79743H122.652L123.253 8.85542C123.463 8.56288 123.707 8.29645 123.98 8.06181C124.25 7.82843 124.556 7.64058 124.887 7.50563C125.259 7.35769 125.656 7.28446 126.056 7.29013H125.971ZM131.761 19.9699H129.696V7.51724H131.761V19.9699ZM129.877 3.16202C130.116 2.9561 130.424 2.84701 130.739 2.85619C130.898 2.85411 131.055 2.88123 131.204 2.9362C131.349 2.97833 131.482 3.05642 131.589 3.16331C131.707 3.27666 131.797 3.41643 131.85 3.57109C131.919 3.72981 131.953 3.92338 131.953 4.1492C131.953 4.58795 131.832 4.91701 131.592 5.13638C131.357 5.34801 131.076 5.45383 130.74 5.45383C130.405 5.45383 130.104 5.29511 129.869 5.08219C129.642 4.87055 129.534 4.54021 129.536 4.12211C129.538 3.69626 129.665 3.36591 129.878 3.16202H129.877ZM141.239 20.1958C140.83 20.2005 140.422 20.151 140.026 20.0486C139.665 19.9506 139.335 19.8215 139.039 19.6615C138.759 19.5011 138.5 19.3069 138.267 19.0834C138.052 18.8692 137.855 18.6379 137.678 18.3917H137.542L137.611 19.1273L137.656 19.7402L137.679 20.228V25.5472H135.614V7.51724H137.292L137.589 9.19481H137.679C137.852 8.93131 138.05 8.68462 138.269 8.45797C138.491 8.22111 138.747 8.01846 139.029 7.85662C139.338 7.6769 139.67 7.53973 140.016 7.44884C140.415 7.3383 140.827 7.28486 141.241 7.29013C141.95 7.29013 142.598 7.42562 143.18 7.6979C143.762 7.97018 144.258 8.37796 144.664 8.92382C145.08 9.46064 145.4 10.1304 145.628 10.9317C145.857 11.7331 145.969 12.6635 145.969 13.7216C145.969 14.7875 145.855 15.7257 145.628 16.5348C145.401 17.3349 145.08 18.0098 144.664 18.553C144.256 19.0976 143.761 19.508 143.18 19.7893C142.599 20.0474 141.808 20.1971 141.097 20.1971L141.239 20.1958ZM140.843 9.00253C140.269 9.00253 139.781 9.08899 139.38 9.2632C138.986 9.43741 138.665 9.70195 138.416 10.0568C138.167 10.4117 137.993 10.8543 137.871 11.3834C137.749 11.9997 137.684 12.6262 137.679 13.2545V13.7191C137.673 14.4024 137.722 15.0851 137.826 15.7605C137.932 16.3503 138.106 16.8497 138.347 17.2574C138.586 17.6482 138.928 17.966 139.335 18.1762C139.742 18.3801 140.253 18.4821 140.866 18.4821C141.899 18.4821 142.634 18.0691 143.112 17.2458C143.589 16.4225 143.837 15.2379 143.838 13.6971C143.838 12.1228 143.596 10.9485 143.113 10.1704C142.63 9.39224 141.881 9.00253 140.844 9.00253H140.843ZM152.845 18.5066C152.981 18.5066 153.133 18.4937 153.3 18.4834L153.799 18.4266L154.23 18.3466L154.536 18.2666V19.8319C154.438 19.877 154.313 19.9222 154.149 19.9674C153.985 20.0152 153.818 20.0531 153.649 20.0809C153.469 20.1196 153.279 20.1454 153.082 20.1609C152.89 20.1835 152.697 20.1947 152.504 20.1945C152.035 20.1945 151.6 20.1338 151.213 20.0138C150.818 19.8962 150.459 19.682 150.168 19.3905C149.88 19.0937 149.654 18.6989 149.488 18.1995C149.32 17.6923 149.239 17.0574 149.239 16.2935V9.06705H147.481V8.14826L149.239 7.26302L150.124 4.65376H151.315V7.51208H154.473V9.06576H151.342V16.2922C151.342 17.0252 151.471 17.5775 151.693 17.9478C151.915 18.3182 152.328 18.5027 152.873 18.5027" fill="#B2D3F3"/>
<path d="M152.845 18.5066C152.981 18.5066 153.133 18.4937 153.3 18.4834L153.799 18.4266L154.23 18.3466L154.536 18.2666V19.8319C154.438 19.877 154.313 19.9222 154.149 19.9674C153.985 20.0152 153.818 20.0531 153.649 20.0809C153.469 20.1196 153.279 20.1454 153.082 20.1609C152.89 20.1835 152.697 20.1947 152.504 20.1945C152.035 20.1945 151.6 20.1338 151.213 20.0138C150.818 19.8962 150.459 19.682 150.168 19.3905C149.88 19.0937 149.654 18.6989 149.488 18.1995C149.32 17.6923 149.239 17.0574 149.239 16.2935V9.06705H147.481V8.14826L149.239 7.26302L150.124 4.65376H151.315V7.51208H154.473V9.06576H151.342V16.2922C151.342 17.0252 151.471 17.5775 151.693 17.9478C151.915 18.3182 152.328 18.5027 152.873 18.5027M54.135 24.3832C53.7479 24.3832 53.4123 24.3574 53.1259 24.3032C52.8381 24.2581 52.589 24.1935 52.3774 24.1096V22.2927C52.6497 22.364 52.9265 22.417 53.2059 22.4514C53.5211 22.4983 53.8395 22.5212 54.1582 22.5198C54.4416 22.519 54.7236 22.4808 54.997 22.4063C55.2809 22.34 55.5453 22.2078 55.7687 22.0204C56.0035 21.8307 56.1919 21.5688 56.3365 21.2384C56.481 20.9081 56.552 20.4822 56.552 19.9686V3.38785H58.6734V19.7428C58.6734 20.5364 58.5599 21.2242 58.3328 21.8075C58.1374 22.3527 57.819 22.8455 57.4024 23.2476C56.9994 23.6391 56.51 23.9303 55.9739 24.098C55.4215 24.2877 54.6679 24.3819 53.9956 24.3819L54.135 24.3832ZM69.2137 18.2459H69.1234C68.8967 18.5595 68.6465 18.8555 68.3749 19.1312C68.1318 19.3685 67.8569 19.5709 67.5581 19.7325C67.2476 19.8966 66.9151 20.0153 66.5709 20.0848C66.207 20.1622 65.7889 20.1983 65.3114 20.1983C64.7901 20.1983 64.3101 20.1209 63.8713 19.9712C63.4419 19.8408 63.0493 19.6109 62.7254 19.3002C62.408 18.9905 62.1576 18.6034 61.977 18.144C61.7963 17.6755 61.7189 17.1116 61.7189 16.4883C61.7189 15.2495 62.1537 14.2946 63.0093 13.63C63.8868 12.9642 65.203 12.6015 67.0019 12.5409L69.0885 12.4609V11.6789C69.0885 11.1717 69.0318 10.7498 68.9182 10.4091C68.8124 10.0684 68.6537 9.79615 68.4407 9.59226C68.2282 9.37523 67.962 9.21849 67.6691 9.13803C67.3294 9.04268 66.9778 8.99704 66.6251 9.00253C66.0285 8.99778 65.435 9.08929 64.8675 9.27352C64.3339 9.45375 63.8146 9.67374 63.3138 9.93164L62.5886 8.37796C63.1487 8.076 63.772 7.81791 64.4598 7.60628C65.162 7.39257 65.8924 7.28556 66.6264 7.28883C67.3981 7.28883 68.0626 7.36884 68.6227 7.52756C69.1905 7.67855 69.655 7.92502 70.0164 8.26311C70.3968 8.61302 70.6819 9.05399 70.8448 9.54451C71.0281 10.0646 71.1029 10.6982 71.1029 11.4389V19.9699H69.6267L69.2137 18.2459ZM65.8586 18.5234C66.2951 18.5273 66.7288 18.4544 67.14 18.3079C67.5236 18.1713 67.8719 17.9509 68.1594 17.6626C68.4472 17.3684 68.6704 17.0006 68.8305 16.5632C68.9982 16.1167 69.0795 15.5954 69.0795 14.9979V13.8752L67.4574 13.9552C66.7774 13.9849 66.2057 14.061 65.745 14.1823C65.2843 14.3036 64.9127 14.474 64.6353 14.6934C64.3772 14.905 64.1668 15.1656 64.0455 15.4753C63.9195 15.8047 63.8578 16.1551 63.8636 16.5077C63.8636 17.2045 64.0442 17.7143 64.4081 18.0394C64.7785 18.3646 65.2624 18.5272 65.8599 18.5272L65.8586 18.5234ZM72.854 7.51724H74.9858L77.2441 14.4469L77.5409 15.4108L77.8816 16.6135L78.1874 17.7697L78.381 18.5982H78.461L78.6545 17.7697L78.9604 16.6135L79.301 15.4108L79.5978 14.4469L81.8561 7.51724H83.9879L79.7243 19.9699H77.1047L72.854 7.51724ZM92.4132 18.2459H92.3228C92.0961 18.5595 91.8459 18.8555 91.5744 19.1312C91.0754 19.6134 90.4498 19.9441 89.7703 20.0848C89.4064 20.1622 88.9883 20.1983 88.5109 20.1983C87.9895 20.1983 87.5095 20.1209 87.0708 19.9712C86.6413 19.8408 86.2487 19.6109 85.9248 19.3002C85.6074 18.9905 85.3571 18.6034 85.1764 18.144C84.9957 17.6755 84.9183 17.1116 84.9183 16.4883C84.9183 15.2495 85.3532 14.2946 86.2087 13.63C87.0862 12.9642 88.4025 12.6015 90.2013 12.5409L92.288 12.4609V11.6789C92.288 11.1717 92.2312 10.7498 92.1176 10.4091C92.0118 10.0684 91.8531 9.79615 91.6402 9.59226C91.4277 9.37523 91.1614 9.21849 90.8685 9.13803C90.5289 9.04268 90.1772 8.99704 89.8245 9.00253C89.2279 8.99778 88.6344 9.08929 88.067 9.27352C87.5334 9.45375 87.014 9.67374 86.5133 9.93164L85.7881 8.37796C86.3481 8.076 86.9714 7.81791 87.6592 7.60628C88.3618 7.39244 89.0927 7.28543 89.8271 7.28883C90.5988 7.28883 91.2634 7.36884 91.8234 7.52756C92.3912 7.67855 92.8558 7.92502 93.2171 8.26311C93.5975 8.61302 93.8826 9.05399 94.0456 9.54451C94.2288 10.0646 94.3036 10.6982 94.3036 11.4389V19.9699H92.8196L92.4132 18.2459ZM89.058 18.5298C89.4945 18.5338 89.9283 18.4608 90.3394 18.3143C90.723 18.1778 91.0713 17.9574 91.3589 17.6691C91.6466 17.3723 91.8699 17.0071 92.0299 16.5696C92.1976 16.1231 92.2789 15.6018 92.2789 15.0043V13.8817L90.6569 13.9617C89.9768 13.9914 89.4052 14.0675 88.9445 14.1888C88.4838 14.3101 88.1121 14.4804 87.8347 14.6998C87.5766 14.9114 87.3663 15.1721 87.245 15.4818C87.119 15.8112 87.0572 16.1616 87.063 16.5141C87.063 17.211 87.2437 17.7207 87.6076 18.0459C87.9779 18.3711 88.4618 18.5337 89.0593 18.5337L89.058 18.5298ZM107.039 15.536C107.039 16.269 106.906 16.9271 106.641 17.5104C106.39 18.078 106.01 18.5791 105.53 18.9737C105.047 19.3608 104.457 19.6809 103.763 19.8925C103.066 20.0964 102.284 20.1983 101.414 20.1983C100.623 20.2024 99.8335 20.1341 99.055 19.9944C98.3285 19.8654 97.7207 19.6718 97.2291 19.4163V17.3981L98.1027 17.7594L99.135 18.0653L100.258 18.2924C100.637 18.3444 101.02 18.3711 101.404 18.3724C102.613 18.3724 103.507 18.1453 104.08 17.6923C104.661 17.2381 104.954 16.589 104.954 15.7412C104.961 15.3786 104.903 15.0175 104.783 14.6753C104.677 14.3733 104.486 14.0972 104.205 13.8468C103.947 13.5887 103.566 13.3306 103.104 13.1113C102.538 12.8158 101.955 12.5546 101.357 12.3293C100.747 12.0953 100.158 11.8068 99.5996 11.4673C99.1092 11.1498 98.7002 10.7937 98.3737 10.4014C98.0562 10.0078 97.8188 9.56257 97.6588 9.06318C97.5078 8.56378 97.4317 7.99729 97.4317 7.36239C97.4317 6.69653 97.553 6.10421 97.793 5.58158C98.0269 5.06982 98.3763 4.61928 98.8137 4.26535C99.2763 3.88945 99.8081 3.60798 100.379 3.43689C100.992 3.24849 101.664 3.15299 102.397 3.15299C103.297 3.15299 104.106 3.23945 104.823 3.41365C105.542 3.58141 106.181 3.79562 106.74 4.05887L105.965 5.82677C105.475 5.6074 104.915 5.41899 104.288 5.25898C103.659 5.09163 103.011 5.00789 102.36 5.00992C101.437 5.00992 100.721 5.22542 100.218 5.65514C99.9661 5.86479 99.7657 6.12902 99.6315 6.42775C99.4973 6.72648 99.433 7.05185 99.4434 7.37916C99.4434 7.81016 99.5002 8.18439 99.6138 8.50184C99.7356 8.82466 99.9293 9.11549 100.18 9.35224C100.445 9.6013 100.793 9.84002 101.213 10.0671C101.651 10.2865 102.188 10.5214 102.823 10.7704C103.442 11.0097 104.044 11.2899 104.626 11.6092C105.108 11.8665 105.547 12.1954 105.93 12.5848C106.278 12.9444 106.544 13.3737 106.712 13.8442C106.893 14.3217 106.99 14.905 106.99 15.5554L107.039 15.536ZM114.672 20.1971C113.908 20.1971 113.193 20.068 112.53 19.8448C111.87 19.6077 111.275 19.2187 110.794 18.7092C110.304 18.1878 109.917 17.5259 109.638 16.7245C109.358 15.9154 109.218 14.9437 109.218 13.8081C109.218 12.6209 109.348 11.6144 109.649 10.7911C109.937 9.95874 110.33 9.28642 110.829 8.77283C111.321 8.26133 111.927 7.8724 112.597 7.63725C113.268 7.4011 113.991 7.28496 114.765 7.28496C115.345 7.28383 115.923 7.34833 116.489 7.47724C116.979 7.57952 117.455 7.73935 117.907 7.95341L117.294 9.70065C117.12 9.62323 116.928 9.55355 116.716 9.48515C116.504 9.40966 116.289 9.34505 116.071 9.29159C115.844 9.23093 115.619 9.18577 115.4 9.15609C115.194 9.11968 114.985 9.10068 114.776 9.09931C113.589 9.09931 112.712 9.48128 112.179 10.2452C111.634 11.0014 111.362 12.1809 111.362 13.7836C111.362 15.3786 111.62 16.5477 112.179 17.2884C112.731 18.0214 113.566 18.3879 114.685 18.3879C115.243 18.3946 115.8 18.326 116.34 18.184C116.806 18.0525 117.261 17.8855 117.702 17.6846V19.5222C117.287 19.745 116.844 19.9129 116.386 20.0216C115.925 20.1351 115.327 20.1919 114.654 20.1919L114.672 20.1971ZM125.971 7.29013L126.706 7.32367C126.942 7.33449 127.177 7.36123 127.41 7.40368L127.152 9.30965L126.506 9.21932C126.287 9.18835 126.081 9.17416 125.883 9.17416C125.406 9.17416 124.972 9.27223 124.593 9.46838C124.193 9.66247 123.844 9.94595 123.572 10.2968C123.275 10.6818 123.056 11.121 122.927 11.5898C122.77 12.1314 122.693 12.6932 122.7 13.2571V19.9699H120.635V7.51724H122.313L122.562 9.79743H122.652L123.253 8.85542C123.463 8.56288 123.707 8.29645 123.98 8.06181C124.25 7.82843 124.556 7.64058 124.887 7.50563C125.259 7.35769 125.656 7.28446 126.056 7.29013H125.971ZM131.761 19.9699H129.696V7.51724H131.761V19.9699ZM129.877 3.16202C130.116 2.9561 130.424 2.84701 130.739 2.85619C130.898 2.85411 131.055 2.88123 131.204 2.9362C131.349 2.97833 131.482 3.05642 131.589 3.16331C131.707 3.27666 131.797 3.41643 131.85 3.57109C131.919 3.72981 131.953 3.92338 131.953 4.1492C131.953 4.58795 131.832 4.91701 131.592 5.13638C131.357 5.34801 131.076 5.45383 130.74 5.45383C130.405 5.45383 130.104 5.29511 129.869 5.08219C129.642 4.87055 129.534 4.54021 129.536 4.12211C129.538 3.69626 129.665 3.36591 129.878 3.16202H129.877ZM141.239 20.1958C140.83 20.2005 140.422 20.151 140.026 20.0486C139.665 19.9506 139.335 19.8215 139.039 19.6615C138.759 19.5011 138.5 19.3069 138.267 19.0834C138.052 18.8692 137.855 18.6379 137.678 18.3917H137.542L137.611 19.1273L137.656 19.7402L137.679 20.228V25.5472H135.614V7.51724H137.292L137.589 9.19481H137.679C137.852 8.93131 138.05 8.68462 138.269 8.45797C138.491 8.22111 138.747 8.01846 139.029 7.85662C139.338 7.6769 139.67 7.53973 140.016 7.44884C140.415 7.3383 140.827 7.28486 141.241 7.29013C141.95 7.29013 142.598 7.42562 143.18 7.6979C143.762 7.97018 144.258 8.37796 144.664 8.92382C145.08 9.46064 145.4 10.1304 145.628 10.9317C145.857 11.7331 145.969 12.6635 145.969 13.7216C145.969 14.7875 145.855 15.7257 145.628 16.5348C145.401 17.3349 145.08 18.0098 144.664 18.553C144.256 19.0976 143.761 19.508 143.18 19.7893C142.599 20.0474 141.808 20.1971 141.097 20.1971L141.239 20.1958ZM140.843 9.00253C140.269 9.00253 139.781 9.08899 139.38 9.2632C138.986 9.43741 138.665 9.70195 138.416 10.0568C138.167 10.4117 137.993 10.8543 137.871 11.3834C137.749 11.9997 137.684 12.6262 137.679 13.2545V13.7191C137.673 14.4024 137.722 15.0851 137.826 15.7605C137.932 16.3503 138.106 16.8497 138.347 17.2574C138.586 17.6482 138.928 17.966 139.335 18.1762C139.742 18.3801 140.253 18.4821 140.866 18.4821C141.899 18.4821 142.634 18.0691 143.112 17.2458C143.589 16.4225 143.837 15.2379 143.838 13.6971C143.838 12.1228 143.596 10.9485 143.113 10.1704C142.63 9.39224 141.881 9.00253 140.844 9.00253H140.843Z" stroke="#B2D3F3"/>
</svg>
