<svg width="125" height="59" viewBox="0 0 125 59" fill="none" xmlns="http://www.w3.org/2000/svg">
<g style="mix-blend-mode:lighten" filter="url(#filter0_d_104_769)">
<path d="M72.0027 25.273C72.2267 25.273 72.4087 25.3477 72.5487 25.497C72.6887 25.6464 72.7587 25.833 72.7587 26.057V34.219C72.7587 34.4617 72.6747 34.667 72.5067 34.835C72.348 34.9937 72.1473 35.073 71.9047 35.073C71.7833 35.073 71.6573 35.0544 71.5267 35.017C71.4053 34.9704 71.312 34.9097 71.2467 34.835L65.7447 27.849L66.1087 27.625V34.289C66.1087 34.513 66.034 34.6997 65.8847 34.849C65.7447 34.9984 65.558 35.073 65.3247 35.073C65.1007 35.073 64.9187 34.9984 64.7787 34.849C64.6387 34.6997 64.5687 34.513 64.5687 34.289V26.127C64.5687 25.8844 64.648 25.6837 64.8067 25.525C64.9747 25.357 65.18 25.273 65.4227 25.273C65.5533 25.273 65.6887 25.301 65.8287 25.357C65.9687 25.4037 66.0713 25.4784 66.1367 25.581L71.4707 32.385L71.2327 32.553V26.057C71.2327 25.833 71.3027 25.6464 71.4427 25.497C71.5827 25.3477 71.7693 25.273 72.0027 25.273ZM78.2516 35.213C77.4582 35.213 76.7676 35.0497 76.1796 34.723C75.6009 34.387 75.1529 33.9344 74.8356 33.365C74.5276 32.7957 74.3736 32.1517 74.3736 31.433C74.3736 30.593 74.5416 29.879 74.8776 29.291C75.2229 28.6937 75.6709 28.2364 76.2216 27.919C76.7722 27.6017 77.3556 27.443 77.9716 27.443C78.4476 27.443 78.8956 27.541 79.3156 27.737C79.7449 27.933 80.1229 28.2037 80.4496 28.549C80.7762 28.885 81.0329 29.277 81.2196 29.725C81.4156 30.173 81.5136 30.649 81.5136 31.153C81.5042 31.377 81.4156 31.559 81.2476 31.699C81.0796 31.839 80.8836 31.909 80.6596 31.909H75.3116L74.8916 30.509H80.0296L79.7216 30.789V30.411C79.7029 30.1404 79.6049 29.8977 79.4276 29.683C79.2596 29.4684 79.0449 29.3004 78.7836 29.179C78.5316 29.0484 78.2609 28.983 77.9716 28.983C77.6916 28.983 77.4302 29.0204 77.1876 29.095C76.9449 29.1697 76.7349 29.2957 76.5576 29.473C76.3802 29.6504 76.2402 29.8884 76.1376 30.187C76.0349 30.4857 75.9836 30.8637 75.9836 31.321C75.9836 31.825 76.0862 32.2544 76.2916 32.609C76.5062 32.9544 76.7769 33.2204 77.1036 33.407C77.4396 33.5844 77.7942 33.673 78.1676 33.673C78.5129 33.673 78.7882 33.645 78.9936 33.589C79.1989 33.533 79.3622 33.4677 79.4836 33.393C79.6142 33.309 79.7309 33.239 79.8336 33.183C80.0016 33.099 80.1602 33.057 80.3096 33.057C80.5149 33.057 80.6829 33.127 80.8136 33.267C80.9536 33.407 81.0236 33.5704 81.0236 33.757C81.0236 34.009 80.8929 34.2377 80.6316 34.443C80.3889 34.6484 80.0482 34.8304 79.6096 34.989C79.1709 35.1384 78.7182 35.213 78.2516 35.213ZM83.1354 27.583C83.4061 27.583 83.6347 27.6997 83.8214 27.933L88.4974 33.743C88.6187 33.8924 88.6794 34.0604 88.6794 34.247C88.6794 34.4804 88.5907 34.681 88.4134 34.849C88.2361 35.017 88.0401 35.101 87.8254 35.101C87.5547 35.101 87.3261 34.9797 87.1394 34.737L82.4634 28.927C82.3421 28.7777 82.2814 28.6097 82.2814 28.423C82.2814 28.1804 82.3654 27.9797 82.5334 27.821C82.7107 27.6624 82.9114 27.583 83.1354 27.583ZM83.1494 35.087C82.9627 35.087 82.7761 35.017 82.5894 34.877C82.4121 34.7277 82.3234 34.5504 82.3234 34.345C82.3234 34.1584 82.3934 33.981 82.5334 33.813L84.6754 31.195L85.5154 32.595L83.8214 34.737C83.6441 34.9704 83.4201 35.087 83.1494 35.087ZM87.8114 27.583C88.0354 27.583 88.2221 27.6624 88.3714 27.821C88.5301 27.9704 88.6094 28.143 88.6094 28.339C88.6094 28.4324 88.5954 28.5257 88.5674 28.619C88.5394 28.7124 88.4881 28.801 88.4134 28.885L86.2994 31.461L85.4174 30.243L87.1394 27.961C87.3261 27.709 87.5501 27.583 87.8114 27.583ZM90.5849 27.723H93.9029C94.1269 27.723 94.3136 27.7977 94.4629 27.947C94.6123 28.0964 94.6869 28.283 94.6869 28.507C94.6869 28.7217 94.6123 28.9037 94.4629 29.053C94.3136 29.193 94.1269 29.263 93.9029 29.263H90.5849C90.3609 29.263 90.1743 29.1884 90.0249 29.039C89.8756 28.8897 89.8009 28.703 89.8009 28.479C89.8009 28.2644 89.8756 28.087 90.0249 27.947C90.1743 27.7977 90.3609 27.723 90.5849 27.723ZM92.0829 25.973C92.3256 25.973 92.5216 26.057 92.6709 26.225C92.8296 26.3837 92.9089 26.5844 92.9089 26.827V33.057C92.9089 33.1877 92.9323 33.295 92.9789 33.379C93.0349 33.463 93.1049 33.5237 93.1889 33.561C93.2823 33.5984 93.3803 33.617 93.4829 33.617C93.5949 33.617 93.6976 33.5984 93.7909 33.561C93.8843 33.5144 93.9916 33.491 94.1129 33.491C94.2436 33.491 94.3603 33.5517 94.4629 33.673C94.5749 33.7944 94.6309 33.9624 94.6309 34.177C94.6309 34.4384 94.4863 34.653 94.1969 34.821C93.9169 34.989 93.6136 35.073 93.2869 35.073C93.0909 35.073 92.8716 35.059 92.6289 35.031C92.3956 34.9937 92.1716 34.9144 91.9569 34.793C91.7516 34.6624 91.5789 34.4664 91.4389 34.205C91.2989 33.9437 91.2289 33.5844 91.2289 33.127V26.827C91.2289 26.5844 91.3083 26.3837 91.4669 26.225C91.6349 26.057 91.8403 25.973 92.0829 25.973ZM102.575 35.213C102.043 35.213 101.549 35.1057 101.091 34.891C100.634 34.6764 100.261 34.3684 99.9713 33.967C99.8593 33.799 99.8033 33.6357 99.8033 33.477C99.8033 33.2437 99.8919 33.0477 100.069 32.889C100.256 32.7304 100.438 32.651 100.615 32.651C100.755 32.651 100.891 32.693 101.021 32.777C101.161 32.861 101.287 32.959 101.399 33.071C101.586 33.239 101.768 33.3604 101.945 33.435C102.132 33.5004 102.342 33.533 102.575 33.533C102.855 33.533 103.117 33.463 103.359 33.323C103.602 33.183 103.798 32.9964 103.947 32.763C104.097 32.5297 104.171 32.2777 104.171 32.007V26.127C104.171 25.8844 104.26 25.6837 104.437 25.525C104.615 25.357 104.82 25.273 105.053 25.273C105.315 25.273 105.525 25.357 105.683 25.525C105.842 25.6837 105.921 25.8844 105.921 26.127V32.007C105.921 32.5764 105.772 33.1037 105.473 33.589C105.175 34.0744 104.773 34.4664 104.269 34.765C103.765 35.0637 103.201 35.213 102.575 35.213ZM107.444 33.911C107.351 33.7804 107.309 33.6124 107.318 33.407C107.327 33.2017 107.449 33.0244 107.682 32.875C107.831 32.7817 107.99 32.7444 108.158 32.763C108.326 32.7724 108.489 32.8564 108.648 33.015C108.919 33.2857 109.203 33.4957 109.502 33.645C109.801 33.7944 110.174 33.869 110.622 33.869C110.762 33.8597 110.916 33.841 111.084 33.813C111.252 33.7757 111.397 33.701 111.518 33.589C111.649 33.4677 111.714 33.2857 111.714 33.043C111.714 32.8377 111.644 32.6744 111.504 32.553C111.364 32.4317 111.177 32.329 110.944 32.245C110.72 32.161 110.468 32.0817 110.188 32.007C109.899 31.923 109.6 31.8297 109.292 31.727C108.993 31.6244 108.718 31.4937 108.466 31.335C108.214 31.167 108.009 30.9477 107.85 30.677C107.691 30.4064 107.612 30.0657 107.612 29.655C107.612 29.1884 107.743 28.7917 108.004 28.465C108.265 28.1384 108.601 27.8864 109.012 27.709C109.432 27.5317 109.871 27.443 110.328 27.443C110.617 27.443 110.921 27.4804 111.238 27.555C111.555 27.6204 111.859 27.7324 112.148 27.891C112.437 28.0404 112.68 28.241 112.876 28.493C112.979 28.633 113.039 28.801 113.058 28.997C113.077 29.193 112.988 29.3704 112.792 29.529C112.652 29.641 112.489 29.6924 112.302 29.683C112.115 29.6644 111.961 29.599 111.84 29.487C111.681 29.2817 111.467 29.1184 111.196 28.997C110.935 28.8757 110.631 28.815 110.286 28.815C110.146 28.815 109.992 28.8337 109.824 28.871C109.665 28.899 109.525 28.969 109.404 29.081C109.283 29.1837 109.222 29.3517 109.222 29.585C109.222 29.7997 109.292 29.9724 109.432 30.103C109.572 30.2244 109.759 30.327 109.992 30.411C110.235 30.4857 110.491 30.5604 110.762 30.635C111.042 30.7097 111.327 30.7984 111.616 30.901C111.905 31.0037 112.171 31.139 112.414 31.307C112.657 31.475 112.853 31.6944 113.002 31.965C113.151 32.2264 113.226 32.5624 113.226 32.973C113.226 33.449 113.086 33.855 112.806 34.191C112.526 34.527 112.176 34.7837 111.756 34.961C111.336 35.129 110.907 35.213 110.468 35.213C109.917 35.213 109.367 35.1197 108.816 34.933C108.265 34.737 107.808 34.3964 107.444 33.911Z" fill="#B2D3F3"/>
<path d="M72.5487 25.497L71.8191 26.181V26.181L72.5487 25.497ZM72.5067 34.835L73.2138 35.5421L72.5067 34.835ZM71.5267 35.017L71.1677 35.9504L71.2092 35.9663L71.2519 35.9786L71.5267 35.017ZM71.2467 34.835L70.4611 35.4538L70.4771 35.4741L70.4941 35.4935L71.2467 34.835ZM65.7447 27.849L65.2206 26.9974L64.2644 27.5858L64.9591 28.4678L65.7447 27.849ZM66.1087 27.625H67.1087V25.8355L65.5846 26.7734L66.1087 27.625ZM65.8847 34.849L65.1776 34.1419L65.1661 34.1533L65.1551 34.1651L65.8847 34.849ZM64.8067 25.525L64.0996 24.8179H64.0996L64.8067 25.525ZM65.8287 25.357L65.4573 26.2855L65.4846 26.2964L65.5124 26.3057L65.8287 25.357ZM66.1367 25.581L65.293 26.1179L65.3194 26.1593L65.3497 26.198L66.1367 25.581ZM71.4707 32.385L72.0473 33.202L72.9064 32.5956L72.2577 31.7681L71.4707 32.385ZM71.2327 32.553H70.2327V34.4829L71.8093 33.37L71.2327 32.553ZM71.4427 25.497L72.1722 26.181L72.1722 26.181L71.4427 25.497ZM72.0027 26.273C72.0031 26.273 71.9956 26.2731 71.9819 26.2705C71.9679 26.268 71.9492 26.2631 71.9276 26.2542C71.8806 26.2349 71.8431 26.2065 71.8191 26.181L73.2782 24.8131C72.9302 24.4419 72.4741 24.273 72.0027 24.273V26.273ZM71.8191 26.181C71.8014 26.1621 71.7824 26.1336 71.7698 26.1002C71.7579 26.0682 71.7587 26.0502 71.7587 26.057H73.7587C73.7587 25.6051 73.609 25.166 73.2782 24.8131L71.8191 26.181ZM71.7587 26.057V34.219H73.7587V26.057H71.7587ZM71.7587 34.219C71.7587 34.2228 71.7585 34.2047 71.7701 34.1764C71.7819 34.1476 71.7964 34.1311 71.7996 34.1279L73.2138 35.5421C73.5737 35.1822 73.7587 34.7206 73.7587 34.219H71.7587ZM71.7996 34.1279C71.813 34.1145 71.8375 34.0962 71.8695 34.0836C71.8999 34.0715 71.9157 34.073 71.9047 34.073V36.073C72.3887 36.073 72.8513 35.9046 73.2138 35.5421L71.7996 34.1279ZM71.9047 34.073C71.8866 34.073 71.8533 34.0703 71.8014 34.0555L71.2519 35.9786C71.4614 36.0384 71.68 36.073 71.9047 36.073V34.073ZM71.8856 34.0837C71.8705 34.0779 71.9296 34.097 71.9992 34.1765L70.4941 35.4935C70.6944 35.7224 70.9402 35.8629 71.1677 35.9504L71.8856 34.0837ZM72.0323 34.2163L66.5303 27.2303L64.9591 28.4678L70.4611 35.4538L72.0323 34.2163ZM66.2688 28.7007L66.6328 28.4767L65.5846 26.7734L65.2206 26.9974L66.2688 28.7007ZM65.1087 27.625V34.289H67.1087V27.625H65.1087ZM65.1087 34.289C65.1087 34.2894 65.1086 34.283 65.1108 34.2711C65.113 34.2591 65.1171 34.2434 65.1242 34.2256C65.1397 34.1869 65.1614 34.1581 65.1776 34.1419L66.5918 35.5561C66.9409 35.207 67.1087 34.7604 67.1087 34.289H65.1087ZM65.1551 34.1651C65.1833 34.135 65.2232 34.1066 65.2683 34.0886C65.3104 34.0717 65.3343 34.073 65.3247 34.073V36.073C65.7919 36.073 66.2579 35.913 66.6142 35.533L65.1551 34.1651ZM65.3247 34.073C65.3242 34.073 65.3317 34.073 65.3454 34.0755C65.3594 34.0781 65.3781 34.083 65.3997 34.0919C65.4467 34.1111 65.4842 34.1395 65.5082 34.1651L64.0491 35.533C64.3971 35.9042 64.8532 36.073 65.3247 36.073V34.073ZM65.5082 34.1651C65.5259 34.184 65.5449 34.2124 65.5575 34.2459C65.5695 34.2778 65.5687 34.2958 65.5687 34.289H63.5687C63.5687 34.741 63.7183 35.1801 64.0491 35.533L65.5082 34.1651ZM65.5687 34.289V26.127H63.5687V34.289H65.5687ZM65.5687 26.127C65.5687 26.116 65.5701 26.1318 65.5581 26.1622C65.5455 26.1941 65.5272 26.2187 65.5138 26.2321L64.0996 24.8179C63.7371 25.1803 63.5687 25.643 63.5687 26.127H65.5687ZM65.5138 26.2321C65.5106 26.2353 65.4941 26.2498 65.4653 26.2616C65.4369 26.2732 65.4189 26.273 65.4227 26.273V24.273C64.9211 24.273 64.4595 24.4579 64.0996 24.8179L65.5138 26.2321ZM65.4227 26.273C65.4161 26.273 65.4147 26.2723 65.4196 26.2733C65.4246 26.2743 65.437 26.2774 65.4573 26.2855L66.2001 24.4286C65.9599 24.3325 65.6986 24.273 65.4227 24.273V26.273ZM65.5124 26.3057C65.5006 26.3018 65.4663 26.2886 65.4225 26.2568C65.3768 26.2235 65.3306 26.177 65.293 26.1179L66.9803 25.0442C66.767 24.709 66.4548 24.5116 66.1449 24.4083L65.5124 26.3057ZM65.3497 26.198L70.6837 33.002L72.2577 31.7681L66.9236 24.9641L65.3497 26.198ZM70.894 31.5681L70.656 31.7361L71.8093 33.37L72.0473 33.202L70.894 31.5681ZM72.2327 32.553V26.057H70.2327V32.553H72.2327ZM72.2327 26.057C72.2327 26.0502 72.2335 26.0682 72.2215 26.1002C72.2089 26.1336 72.1899 26.1621 72.1722 26.181L70.7131 24.8131C70.3823 25.166 70.2327 25.6051 70.2327 26.057H72.2327ZM72.1722 26.181C72.144 26.211 72.1041 26.2395 72.059 26.2575C72.0169 26.2744 71.9931 26.273 72.0027 26.273V24.273C71.5354 24.273 71.0694 24.4331 70.7131 24.8131L72.1722 26.181ZM76.1796 34.723L75.6774 35.5878L75.6856 35.5926L75.6939 35.5972L76.1796 34.723ZM74.8356 33.365L73.956 33.8409L73.9621 33.8519L74.8356 33.365ZM74.8776 29.291L74.0118 28.7905L74.0093 28.7949L74.8776 29.291ZM76.2216 27.919L75.7223 27.0526L76.2216 27.919ZM79.3156 27.737L78.8927 28.6432L78.9003 28.6467L79.3156 27.737ZM80.4496 28.549L79.723 29.2363L79.7326 29.2461L80.4496 28.549ZM81.2196 29.725L80.2965 30.1096L80.2999 30.1178L80.3034 30.1258L81.2196 29.725ZM81.5136 31.153L82.5127 31.1947L82.5136 31.1739V31.153H81.5136ZM81.2476 31.699L81.8878 32.4672L81.2476 31.699ZM75.3116 31.909L74.3538 32.1964L74.5675 32.909H75.3116V31.909ZM74.8916 30.509V29.509H73.5475L73.9338 30.7964L74.8916 30.509ZM80.0296 30.509L80.7023 31.249L82.6162 29.509H80.0296V30.509ZM79.7216 30.789H78.7216V33.0496L80.3943 31.529L79.7216 30.789ZM79.7216 30.411H80.7216V30.3766L80.7192 30.3422L79.7216 30.411ZM79.4276 29.683L78.6401 30.2993L78.6482 30.3097L78.6566 30.3199L79.4276 29.683ZM78.7836 29.179L78.3233 30.0668L78.3427 30.0768L78.3625 30.086L78.7836 29.179ZM77.1876 29.095L77.4817 30.0508H77.4817L77.1876 29.095ZM76.5576 29.473L77.2647 30.1801V30.1801L76.5576 29.473ZM76.1376 30.187L77.0833 30.5121H77.0833L76.1376 30.187ZM76.2916 32.609L75.4262 33.1101L75.434 33.1236L75.4423 33.137L76.2916 32.609ZM77.1036 33.407L76.6074 34.2753L76.622 34.2836L76.6368 34.2914L77.1036 33.407ZM78.9936 33.589L78.7305 32.6243L78.7305 32.6243L78.9936 33.589ZM79.4836 33.393L80.0077 34.2447L80.0161 34.2395L80.0243 34.2342L79.4836 33.393ZM79.8336 33.183L79.3864 32.2886L79.3704 32.2966L79.3547 32.3051L79.8336 33.183ZM80.8136 33.267L80.0825 33.9493L80.0943 33.9619L80.1065 33.9741L80.8136 33.267ZM80.6316 34.443L80.0138 33.6567L79.9995 33.6679L79.9856 33.6796L80.6316 34.443ZM79.6096 34.989L79.9318 35.9357L79.9408 35.9326L79.9497 35.9294L79.6096 34.989ZM78.2516 34.213C77.5976 34.213 77.08 34.0793 76.6652 33.8489L75.6939 35.5972C76.4551 36.0201 77.3189 36.213 78.2516 36.213V34.213ZM76.6817 33.8582C76.2542 33.61 75.9364 33.2861 75.7091 32.8782L73.9621 33.8519C74.3694 34.5826 74.9476 35.164 75.6774 35.5878L76.6817 33.8582ZM75.7151 32.8892C75.4946 32.4816 75.3736 32.0042 75.3736 31.433H73.3736C73.3736 32.2992 73.5606 33.1098 73.956 33.8408L75.7151 32.8892ZM75.3736 31.433C75.3736 30.7257 75.5146 30.1918 75.7458 29.7872L74.0093 28.7949C73.5685 29.5663 73.3736 30.4604 73.3736 31.433H75.3736ZM75.7433 29.7915C76.0085 29.3328 76.3353 29.0077 76.7209 28.7855L75.7223 27.0526C75.0066 27.465 74.4373 28.0546 74.0118 28.7905L75.7433 29.7915ZM76.7209 28.7855C77.1247 28.5527 77.5366 28.443 77.9716 28.443V26.443C77.1746 26.443 76.4198 26.6507 75.7223 27.0526L76.7209 28.7855ZM77.9716 28.443C78.3055 28.443 78.6087 28.5107 78.8927 28.6432L79.7385 26.8308C79.1824 26.5714 78.5896 26.443 77.9716 26.443V28.443ZM78.9003 28.6467C79.2117 28.7889 79.4842 28.9837 79.7231 29.2362L81.176 27.8618C80.7616 27.4237 80.2781 27.0772 79.7309 26.8273L78.9003 28.6467ZM79.7326 29.2461C79.9684 29.4886 80.1565 29.7736 80.2965 30.1096L82.1427 29.3404C81.9093 28.7804 81.5841 28.2814 81.1666 27.852L79.7326 29.2461ZM80.3034 30.1258C80.4424 30.4435 80.5136 30.7826 80.5136 31.153H82.5136C82.5136 30.5154 82.3887 29.9025 82.1357 29.3242L80.3034 30.1258ZM80.5144 31.1114C80.5149 31.1007 80.5189 31.0651 80.5411 31.0196C80.5635 30.9735 80.5916 30.944 80.6074 30.9308L81.8878 32.4672C82.2787 32.1414 82.492 31.6926 82.5127 31.1947L80.5144 31.1114ZM80.6074 30.9308C80.6074 30.9308 80.6076 30.9306 80.608 30.9303C80.6084 30.93 80.609 30.9296 80.6098 30.929C80.6114 30.9279 80.6137 30.9264 80.6166 30.9247C80.6227 30.9212 80.6301 30.9177 80.6382 30.9148C80.6561 30.9084 80.6657 30.909 80.6596 30.909V32.909C81.1113 32.909 81.5353 32.7609 81.8878 32.4672L80.6074 30.9308ZM80.6596 30.909H75.3116V32.909H80.6596V30.909ZM76.2694 31.6217L75.8494 30.2217L73.9338 30.7964L74.3538 32.1964L76.2694 31.6217ZM74.8916 31.509H80.0296V29.509H74.8916V31.509ZM79.3569 29.7691L79.0489 30.0491L80.3943 31.529L80.7023 31.249L79.3569 29.7691ZM80.7216 30.789V30.411H78.7216V30.789H80.7216ZM80.7192 30.3422C80.6858 29.8574 80.5052 29.4173 80.1985 29.0461L78.6566 30.3199C78.7047 30.3781 78.7201 30.4233 78.7239 30.4798L80.7192 30.3422ZM80.2151 29.0667C79.9441 28.7205 79.601 28.456 79.2047 28.272L78.3625 30.086C78.4888 30.1447 78.5751 30.2163 78.6401 30.2993L80.2151 29.0667ZM79.2439 28.2913C78.8468 28.0854 78.4179 27.983 77.9716 27.983V29.983C78.1039 29.983 78.2163 30.0113 78.3233 30.0668L79.2439 28.2913ZM77.9716 27.983C77.6021 27.983 77.2407 28.0324 76.8935 28.1392L77.4817 30.0508C77.6198 30.0083 77.7811 29.983 77.9716 29.983V27.983ZM76.8935 28.1392C76.4969 28.2613 76.1446 28.4718 75.8505 28.7659L77.2647 30.1801C77.3252 30.1196 77.3929 30.0781 77.4817 30.0508L76.8935 28.1392ZM75.8505 28.7659C75.5414 29.075 75.3315 29.4557 75.1919 29.8619L77.0833 30.5121C77.149 30.321 77.2191 30.2257 77.2647 30.1801L75.8505 28.7659ZM75.1919 29.8619C75.0411 30.3007 74.9836 30.7982 74.9836 31.321H76.9836C76.9836 30.9292 77.0288 30.6707 77.0833 30.5121L75.1919 29.8619ZM74.9836 31.321C74.9836 31.9608 75.1145 32.5718 75.4262 33.1101L77.157 32.108C77.058 31.9369 76.9836 31.6893 76.9836 31.321H74.9836ZM75.4423 33.137C75.7373 33.6116 76.1251 33.9997 76.6074 34.2753L77.5997 32.5388C77.4287 32.441 77.2752 32.2971 77.1409 32.0811L75.4423 33.137ZM76.6368 34.2914C77.114 34.5433 77.6286 34.673 78.1676 34.673V32.673C77.9599 32.673 77.7651 32.6254 77.5703 32.5226L76.6368 34.2914ZM78.1676 34.673C78.554 34.673 78.9293 34.6431 79.2567 34.5538L78.7305 32.6243C78.6472 32.647 78.4718 32.673 78.1676 32.673V34.673ZM79.2567 34.5538C79.5133 34.4838 79.7758 34.3874 80.0077 34.2447L78.9595 32.5414C78.9487 32.548 78.8845 32.5823 78.7305 32.6243L79.2567 34.5538ZM80.0243 34.2342C80.1409 34.1593 80.2364 34.1024 80.3124 34.0609L79.3547 32.3051C79.2255 32.3756 79.0876 32.4588 78.9428 32.5518L80.0243 34.2342ZM80.2808 34.0775C80.3448 34.0454 80.3503 34.057 80.3096 34.057V32.057C79.9702 32.057 79.6583 32.1526 79.3864 32.2886L80.2808 34.0775ZM80.3096 34.057C80.2971 34.057 80.2575 34.0545 80.205 34.0326C80.1509 34.0101 80.1091 33.9778 80.0825 33.9493L81.5446 32.5847C81.2101 32.2263 80.7697 32.057 80.3096 32.057V34.057ZM80.1065 33.9741C80.0968 33.9644 80.0725 33.9363 80.0519 33.8884C80.0309 33.8394 80.0236 33.7922 80.0236 33.757H82.0236C82.0236 33.2878 81.8356 32.8748 81.5207 32.5599L80.1065 33.9741ZM80.0236 33.757C80.0236 33.7325 80.0269 33.7058 80.0341 33.6793C80.0412 33.6531 80.0504 33.6335 80.0573 33.6214C80.0703 33.5986 80.0686 33.6136 80.0138 33.6567L81.2494 35.2293C81.669 34.8997 82.0236 34.408 82.0236 33.757H80.0236ZM79.9856 33.6796C79.8654 33.7814 79.6439 33.9132 79.2694 34.0487L79.9497 35.9294C80.4526 35.7475 80.9124 35.5154 81.2775 35.2064L79.9856 33.6796ZM79.2873 34.0424C78.9532 34.1561 78.6094 34.213 78.2516 34.213V36.213C78.8271 36.213 79.3887 36.1206 79.9318 35.9357L79.2873 34.0424ZM83.8214 27.933L83.0405 28.5577L83.0424 28.56L83.8214 27.933ZM88.4974 33.743L87.7183 34.37L87.7213 34.3736L88.4974 33.743ZM88.4134 34.849L87.7256 34.1231L88.4134 34.849ZM87.1394 34.737L87.932 34.1273L87.9253 34.1186L87.9184 34.11L87.1394 34.737ZM82.4634 28.927L83.2424 28.3L83.2395 28.2964L82.4634 28.927ZM82.5334 27.821L81.8666 27.0758L81.8566 27.0848L81.8468 27.094L82.5334 27.821ZM82.5894 34.877L81.9453 35.6419L81.9668 35.6601L81.9894 35.677L82.5894 34.877ZM82.5334 33.813L83.3016 34.4532L83.3074 34.4463L82.5334 33.813ZM84.6754 31.195L85.5329 30.6805L84.8016 29.4616L83.9014 30.5618L84.6754 31.195ZM85.5154 32.595L86.2998 33.2153L86.7285 32.6732L86.3729 32.0805L85.5154 32.595ZM83.8214 34.737L83.037 34.1167L83.0311 34.1243L83.0252 34.1319L83.8214 34.737ZM88.3714 27.821L87.6432 28.5064L87.664 28.5285L87.686 28.5492L88.3714 27.821ZM88.4134 28.885L87.666 28.2207L87.6529 28.2354L87.6404 28.2506L88.4134 28.885ZM86.2994 31.461L85.4894 32.0475L86.2499 33.0977L87.0724 32.0954L86.2994 31.461ZM85.4174 30.243L84.6192 29.6407L84.1739 30.2308L84.6074 30.8295L85.4174 30.243ZM87.1394 27.961L87.9377 28.5634L87.943 28.5563L87.1394 27.961ZM83.1354 28.583C83.1307 28.583 83.1192 28.5825 83.103 28.5787C83.0866 28.5748 83.0702 28.5688 83.0554 28.5613C83.0242 28.5454 83.0214 28.5339 83.0405 28.5577L84.6023 27.3083C84.2483 26.8659 83.7441 26.583 83.1354 26.583V28.583ZM83.0424 28.56L87.7184 34.37L89.2764 33.116L84.6004 27.306L83.0424 28.56ZM87.7213 34.3736C87.7167 34.368 87.7039 34.3501 87.6933 34.3207C87.6826 34.2909 87.6794 34.2642 87.6794 34.247H89.6794C89.6794 33.8231 89.5348 33.4341 89.2735 33.1124L87.7213 34.3736ZM87.6794 34.247C87.6794 34.2335 87.6828 34.2033 87.6982 34.1684C87.7132 34.1344 87.729 34.1199 87.7256 34.1231L89.1011 35.575C89.4673 35.2281 89.6794 34.7691 89.6794 34.247H87.6794ZM87.7256 34.1231C87.7104 34.1375 87.7143 34.1297 87.7395 34.1189C87.7517 34.1137 87.7663 34.1089 87.7825 34.1056C87.7987 34.1023 87.8134 34.101 87.8254 34.101V36.101C88.3316 36.101 88.7657 35.8928 89.1011 35.575L87.7256 34.1231ZM87.8254 34.101C87.833 34.101 87.8475 34.102 87.8664 34.1066C87.8855 34.1112 87.9038 34.1183 87.9196 34.1267C87.9525 34.1441 87.9539 34.1558 87.932 34.1273L86.3468 35.3467C86.6944 35.7987 87.2006 36.101 87.8254 36.101V34.101ZM87.9184 34.11L83.2424 28.3L81.6844 29.554L86.3604 35.364L87.9184 34.11ZM83.2395 28.2964C83.2441 28.3021 83.2568 28.32 83.2674 28.3494C83.2782 28.3792 83.2814 28.4058 83.2814 28.423H81.2814C81.2814 28.8469 81.426 29.236 81.6873 29.5576L83.2395 28.2964ZM83.2814 28.423C83.2814 28.419 83.2816 28.4413 83.2668 28.4767C83.2516 28.5131 83.2311 28.5375 83.22 28.548L81.8468 27.094C81.4678 27.452 81.2814 27.9207 81.2814 28.423H83.2814ZM83.2002 28.5663C83.2099 28.5576 83.2048 28.5645 83.1846 28.5725C83.1752 28.5762 83.1651 28.5791 83.1554 28.5809C83.1457 28.5827 83.1387 28.583 83.1354 28.583V26.583C82.6491 26.583 82.2148 26.7642 81.8666 27.0758L83.2002 28.5663ZM83.1494 34.087C83.1656 34.087 83.1806 34.0886 83.1937 34.091C83.2066 34.0935 83.2157 34.0964 83.2205 34.0982C83.2298 34.1017 83.2193 34.0994 83.1894 34.077L81.9894 35.677C82.3052 35.9139 82.6972 36.087 83.1494 36.087V34.087ZM83.2335 34.1121C83.2316 34.1105 83.2583 34.1328 83.2843 34.1848C83.3119 34.24 83.3234 34.2982 83.3234 34.345H81.3234C81.3234 34.8855 81.575 35.3301 81.9453 35.6419L83.2335 34.1121ZM83.3234 34.345C83.3234 34.3801 83.3162 34.4135 83.306 34.4392C83.2967 34.4629 83.2899 34.4672 83.3016 34.4532L81.7652 33.1728C81.5024 33.4882 81.3234 33.8855 81.3234 34.345H83.3234ZM83.3074 34.4463L85.4493 31.8283L83.9014 30.5618L81.7594 33.1798L83.3074 34.4463ZM83.8179 31.7095L84.6579 33.1095L86.3729 32.0805L85.5329 30.6805L83.8179 31.7095ZM84.731 31.9747L83.037 34.1167L84.6058 35.3573L86.2998 33.2153L84.731 31.9747ZM83.0252 34.1319C83.0116 34.1499 83.0202 34.1325 83.0585 34.1126C83.0765 34.1032 83.0957 34.0962 83.1141 34.0919C83.1322 34.0876 83.1448 34.087 83.1494 34.087V36.087C83.7613 36.087 84.2692 35.8004 84.6176 35.3421L83.0252 34.1319ZM87.8114 28.583C87.8031 28.583 87.771 28.581 87.7283 28.5629C87.6849 28.5444 87.6563 28.5203 87.6432 28.5064L89.0996 27.1357C88.7554 26.7699 88.3024 26.583 87.8114 26.583V28.583ZM87.686 28.5492C87.6852 28.5485 87.6626 28.5265 87.6412 28.48C87.6188 28.4312 87.6094 28.3805 87.6094 28.339H89.6094C89.6094 27.835 89.3914 27.4078 89.0568 27.0928L87.686 28.5492ZM87.6094 28.339C87.6094 28.3355 87.6097 28.3326 87.61 28.3307C87.6102 28.3288 87.6103 28.3291 87.6096 28.3317L89.5252 28.9064C89.5799 28.7239 89.6094 28.5339 89.6094 28.339H87.6094ZM87.6096 28.3317C87.6294 28.2657 87.6587 28.2289 87.666 28.2207L89.1608 29.5494C89.3174 29.3732 89.4494 29.1591 89.5252 28.9064L87.6096 28.3317ZM87.6404 28.2506L85.5264 30.8266L87.0724 32.0954L89.1864 29.5194L87.6404 28.2506ZM87.1093 30.8745L86.2273 29.6565L84.6074 30.8295L85.4894 32.0475L87.1093 30.8745ZM86.2156 30.8454L87.9376 28.5634L86.3412 27.3587L84.6192 29.6407L86.2156 30.8454ZM87.943 28.5563C87.9705 28.519 87.9723 28.5296 87.9377 28.5491C87.9204 28.5588 87.8986 28.5681 87.8737 28.5746C87.8489 28.581 87.8272 28.583 87.8114 28.583V26.583C87.168 26.583 86.6686 26.9166 86.3358 27.3658L87.943 28.5563ZM94.4629 27.947L93.7558 28.6541V28.6541L94.4629 27.947ZM94.4629 29.053L95.1469 29.7826L95.1586 29.7715L95.17 29.7601L94.4629 29.053ZM90.0249 27.947L90.7089 28.6766L90.7206 28.6655L90.732 28.6541L90.0249 27.947ZM92.6709 26.225L91.9235 26.8894L91.943 26.9114L91.9638 26.9321L92.6709 26.225ZM92.9789 33.379L92.1048 33.8647L92.1244 33.9001L92.1469 33.9337L92.9789 33.379ZM93.1889 33.561L92.7828 34.4748L92.8 34.4825L92.8175 34.4895L93.1889 33.561ZM93.7909 33.561L94.1623 34.4895L94.2009 34.4741L94.2381 34.4555L93.7909 33.561ZM94.4629 33.673L93.6995 34.319L93.7135 34.3354L93.7281 34.3513L94.4629 33.673ZM94.1969 34.821L93.6948 33.9562L93.6886 33.9598L93.6824 33.9635L94.1969 34.821ZM92.6289 35.031L92.4709 36.0185L92.4925 36.0219L92.5143 36.0244L92.6289 35.031ZM91.9569 34.793L91.42 35.6367L91.4421 35.6507L91.4649 35.6636L91.9569 34.793ZM91.4389 34.205L90.5574 34.6772L91.4389 34.205ZM91.4669 26.225L90.7598 25.5179L91.4669 26.225ZM90.5849 28.723H93.9029V26.723H90.5849V28.723ZM93.9029 28.723C93.9033 28.723 93.8969 28.723 93.885 28.7209C93.873 28.7187 93.8573 28.7146 93.8395 28.7075C93.8008 28.692 93.772 28.6703 93.7558 28.6541L95.17 27.2399C94.8209 26.8908 94.3743 26.723 93.9029 26.723V28.723ZM93.7558 28.6541C93.7396 28.638 93.7179 28.6091 93.7024 28.5704C93.6953 28.5526 93.6912 28.5369 93.6891 28.5249C93.6869 28.5131 93.6869 28.5067 93.6869 28.507H95.6869C95.6869 28.0357 95.5192 27.5891 95.17 27.2399L93.7558 28.6541ZM93.6869 28.507C93.6869 28.4961 93.6893 28.465 93.7058 28.425C93.7223 28.3846 93.7438 28.358 93.7558 28.3459L95.17 29.7601C95.5103 29.4198 95.6869 28.982 95.6869 28.507H93.6869ZM93.779 28.3235C93.7979 28.3058 93.8263 28.2868 93.8598 28.2742C93.8917 28.2622 93.9097 28.263 93.9029 28.263V30.263C94.3549 30.263 94.794 30.1134 95.1469 29.7826L93.779 28.3235ZM93.9029 28.263H90.5849V30.263H93.9029V28.263ZM90.5849 28.263C90.5846 28.263 90.591 28.263 90.6028 28.2652C90.6148 28.2673 90.6305 28.2714 90.6483 28.2786C90.687 28.294 90.7159 28.3157 90.732 28.3319L89.3178 29.7461C89.6669 30.0953 90.1136 30.263 90.5849 30.263V28.263ZM90.732 28.3319C90.7482 28.3481 90.7699 28.3769 90.7854 28.4156C90.7925 28.4334 90.7966 28.4491 90.7988 28.4611C90.8009 28.473 90.8009 28.4794 90.8009 28.479H88.8009C88.8009 28.9504 88.9687 29.397 89.3178 29.7461L90.732 28.3319ZM90.8009 28.479C90.8009 28.4896 90.7986 28.5255 90.7786 28.5731C90.7581 28.6218 90.7299 28.6569 90.7089 28.6766L89.341 27.2175C88.9792 27.5567 88.8009 28.0031 88.8009 28.479H90.8009ZM90.732 28.6541C90.7159 28.6703 90.687 28.692 90.6483 28.7075C90.6305 28.7146 90.6148 28.7187 90.6028 28.7209C90.591 28.723 90.5846 28.723 90.5849 28.723V26.723C90.1136 26.723 89.6669 26.8908 89.3178 27.2399L90.732 28.6541ZM92.0829 26.973C92.0874 26.973 92.0605 26.9734 92.018 26.9552C91.9736 26.9361 91.9411 26.9092 91.9235 26.8894L93.4183 25.5607C93.0629 25.1608 92.5856 24.973 92.0829 24.973V26.973ZM91.9638 26.9321C91.9504 26.9187 91.9321 26.8941 91.9195 26.8622C91.9074 26.8318 91.9089 26.816 91.9089 26.827H93.9089C93.9089 26.343 93.7404 25.8803 93.378 25.5179L91.9638 26.9321ZM91.9089 26.827V33.057H93.9089V26.827H91.9089ZM91.9089 33.057C91.9089 33.2991 91.9512 33.5882 92.1048 33.8647L93.8531 32.8934C93.9133 33.0019 93.9089 33.0763 93.9089 33.057H91.9089ZM92.1469 33.9337C92.2973 34.1593 92.5088 34.3531 92.7828 34.4748L93.5951 32.6472C93.701 32.6943 93.7726 32.7668 93.811 32.8243L92.1469 33.9337ZM92.8175 34.4895C93.0315 34.5751 93.2558 34.617 93.4829 34.617V32.617C93.4925 32.617 93.5051 32.6179 93.5195 32.6207C93.534 32.6235 93.5479 32.6276 93.5603 32.6326L92.8175 34.4895ZM93.4829 34.617C93.7076 34.617 93.9381 34.5792 94.1623 34.4895L93.4195 32.6326C93.4373 32.6254 93.453 32.6213 93.465 32.6192C93.4769 32.617 93.4833 32.617 93.4829 32.617V34.617ZM94.2381 34.4555C94.1717 34.4887 94.1216 34.491 94.1129 34.491V32.491C93.8616 32.491 93.5968 32.54 93.3437 32.6666L94.2381 34.4555ZM94.1129 34.491C94.0166 34.491 93.9203 34.467 93.8371 34.4237C93.7586 34.3829 93.7151 34.3374 93.6995 34.319L95.2263 33.0271C94.9787 32.7344 94.601 32.491 94.1129 32.491V34.491ZM93.7281 34.3513C93.6811 34.3004 93.6538 34.2468 93.6402 34.2063C93.6279 34.1693 93.6309 34.1551 93.6309 34.177H95.6309C95.6309 33.7886 95.5265 33.3509 95.1977 32.9947L93.7281 34.3513ZM93.6309 34.177C93.6309 34.1488 93.635 34.1129 93.647 34.0735C93.659 34.034 93.676 34.0006 93.6932 33.9752C93.7263 33.926 93.7456 33.9268 93.6948 33.9562L94.6991 35.6858C95.1969 35.3967 95.6309 34.8967 95.6309 34.177H93.6309ZM93.6824 33.9635C93.5579 34.0382 93.4324 34.073 93.2869 34.073V36.073C93.7948 36.073 94.2759 35.9398 94.7114 35.6785L93.6824 33.9635ZM93.2869 34.073C93.1372 34.073 92.957 34.0622 92.7435 34.0376L92.5143 36.0244C92.7862 36.0558 93.0447 36.073 93.2869 36.073V34.073ZM92.7869 34.0436C92.6761 34.0259 92.5647 33.9879 92.449 33.9225L91.4649 35.6636C91.7785 35.8409 92.1151 35.9615 92.4709 36.0185L92.7869 34.0436ZM92.4938 33.9494C92.4618 33.929 92.3969 33.8756 92.3204 33.7328L90.5574 34.6772C90.7609 35.0571 91.0414 35.3957 91.42 35.6367L92.4938 33.9494ZM92.3204 33.7328C92.2892 33.6746 92.2289 33.501 92.2289 33.127H90.2289C90.2289 33.6678 90.3086 34.2128 90.5574 34.6772L92.3204 33.7328ZM92.2289 33.127V26.827H90.2289V33.127H92.2289ZM92.2289 26.827C92.2289 26.816 92.2304 26.8318 92.2184 26.8622C92.2058 26.8941 92.1875 26.9187 92.174 26.9321L90.7598 25.5179C90.3974 25.8803 90.2289 26.343 90.2289 26.827H92.2289ZM92.174 26.9321C92.1709 26.9353 92.1543 26.9498 92.1256 26.9616C92.0972 26.9732 92.0792 26.973 92.0829 26.973V24.973C91.5814 24.973 91.1198 25.1579 90.7598 25.5179L92.174 26.9321ZM101.091 34.891L100.666 35.7963L101.091 34.891ZM99.9713 33.967L99.1392 34.5217L99.1494 34.537L99.1601 34.5518L99.9713 33.967ZM100.069 32.889L99.4216 32.1271L99.4119 32.1353L99.4025 32.1438L100.069 32.889ZM101.021 32.777L100.481 33.6182L100.494 33.6266L100.507 33.6345L101.021 32.777ZM101.399 33.071L100.692 33.7781L100.711 33.7967L100.73 33.8143L101.399 33.071ZM101.945 33.435L101.557 34.3567L101.586 34.3687L101.615 34.3789L101.945 33.435ZM103.359 33.323L102.86 32.4568H102.86L103.359 33.323ZM104.437 25.525L105.104 26.2703L105.115 26.2608L105.125 26.251L104.437 25.525ZM105.683 25.525L104.956 26.2117L104.966 26.222L104.976 26.2321L105.683 25.525ZM105.473 33.589L104.622 33.0649L105.473 33.589ZM104.269 34.765L104.779 35.6253L104.269 34.765ZM102.575 34.213C102.182 34.213 101.834 34.1347 101.516 33.9858L100.666 35.7963C101.264 36.0766 101.904 36.213 102.575 36.213V34.213ZM101.516 33.9858C101.209 33.8418 100.97 33.6426 100.782 33.3822L99.1601 34.5518C99.551 35.0941 100.059 35.511 100.666 35.7963L101.516 33.9858ZM100.803 33.4123C100.787 33.3881 100.787 33.3821 100.791 33.3942C100.796 33.4077 100.803 33.4367 100.803 33.477H98.8033C98.8033 33.8806 98.9474 34.234 99.1392 34.5217L100.803 33.4123ZM100.803 33.477C100.803 33.4903 100.8 33.525 100.781 33.5672C100.762 33.6089 100.74 33.6307 100.736 33.6343L99.4025 32.1438C99.0179 32.4879 98.8033 32.9528 98.8033 33.477H100.803ZM100.717 33.651C100.752 33.6209 100.762 33.6198 100.745 33.6272C100.725 33.6359 100.68 33.651 100.615 33.651V31.651C100.124 31.651 99.7204 31.8732 99.4216 32.1271L100.717 33.651ZM100.615 33.651C100.584 33.651 100.552 33.646 100.525 33.6376C100.499 33.6294 100.484 33.6204 100.481 33.6182L101.562 31.9359C101.288 31.7599 100.968 31.651 100.615 31.651V33.651ZM100.507 33.6345C100.579 33.6778 100.64 33.7257 100.692 33.7781L102.106 32.3639C101.935 32.1923 101.744 32.0443 101.536 31.9195L100.507 33.6345ZM100.73 33.8143C100.976 34.0355 101.251 34.2277 101.557 34.3567L102.333 32.5134C102.285 32.493 102.196 32.4426 102.068 32.3277L100.73 33.8143ZM101.615 34.3789C101.925 34.4874 102.249 34.533 102.575 34.533V32.533C102.435 32.533 102.339 32.5133 102.276 32.4912L101.615 34.3789ZM102.575 34.533C103.031 34.533 103.464 34.4168 103.859 34.1892L102.86 32.4568C102.769 32.5092 102.68 32.533 102.575 32.533V34.533ZM103.859 34.1892C104.239 33.9701 104.553 33.6719 104.79 33.3021L103.105 32.224C103.043 32.3208 102.965 32.3959 102.86 32.4568L103.859 34.1892ZM104.79 33.3021C105.039 32.9118 105.171 32.4735 105.171 32.007H103.171C103.171 32.0819 103.154 32.1476 103.105 32.224L104.79 33.3021ZM105.171 32.007V26.127H103.171V32.007H105.171ZM105.171 26.127C105.171 26.13 105.17 26.1588 105.152 26.1987C105.135 26.2391 105.112 26.2629 105.104 26.2703L103.77 24.7798C103.376 25.1324 103.171 25.6063 103.171 26.127H105.171ZM105.125 26.251C105.133 26.2435 105.126 26.2522 105.103 26.2616C105.092 26.2659 105.082 26.269 105.072 26.2709C105.062 26.2728 105.055 26.273 105.053 26.273V24.273C104.551 24.273 104.103 24.4642 103.75 24.7991L105.125 26.251ZM105.053 26.273C105.076 26.273 105.065 26.2765 105.035 26.2645C105.021 26.2587 105.005 26.2506 104.99 26.2403C104.975 26.2301 104.964 26.2198 104.956 26.2117L106.41 24.8384C106.037 24.4433 105.55 24.273 105.053 24.273V26.273ZM104.976 26.2321C104.963 26.2187 104.944 26.1941 104.932 26.1622C104.92 26.1318 104.921 26.116 104.921 26.127H106.921C106.921 25.643 106.753 25.1803 106.39 24.8179L104.976 26.2321ZM104.921 26.127V32.007H106.921V26.127H104.921ZM104.921 32.007C104.921 32.3911 104.823 32.737 104.622 33.0649L106.325 34.1131C106.72 33.4703 106.921 32.7616 106.921 32.007H104.921ZM104.622 33.0649C104.41 33.4082 104.128 33.6863 103.759 33.9047L104.779 35.6253C105.419 35.2464 105.939 34.7406 106.325 34.1131L104.622 33.0649ZM103.759 33.9047C103.42 34.1058 103.034 34.213 102.575 34.213V36.213C103.367 36.213 104.11 36.0216 104.779 35.6253L103.759 33.9047ZM107.444 33.911L106.63 34.4923L106.637 34.5017L106.644 34.511L107.444 33.911ZM107.682 32.875L107.152 32.027L107.143 32.0328L107.682 32.875ZM108.158 32.763L108.047 33.7569L108.075 33.76L108.102 33.7615L108.158 32.763ZM108.648 33.015L107.941 33.7221L108.648 33.015ZM110.622 33.869V34.869H110.655L110.688 34.8668L110.622 33.869ZM111.084 33.813L111.248 34.7994L111.275 34.795L111.301 34.7892L111.084 33.813ZM111.518 33.589L112.196 34.3238L112.198 34.3218L111.518 33.589ZM111.504 32.553L110.849 33.3087L111.504 32.553ZM110.944 32.245L110.593 33.1814L110.605 33.1859L110.944 32.245ZM110.188 32.007L109.909 32.9674L109.92 32.9704L109.93 32.9733L110.188 32.007ZM109.292 31.727L108.967 32.6728L108.976 32.6757L109.292 31.727ZM108.466 31.335L107.911 32.1671L107.922 32.1743L107.933 32.1813L108.466 31.335ZM107.85 30.677L106.987 31.1827V31.1827L107.85 30.677ZM108.004 28.465L107.223 27.8403L108.004 28.465ZM109.012 27.709L108.623 26.7877L108.615 26.791L109.012 27.709ZM111.238 27.555L111.009 28.5284L111.022 28.5317L111.036 28.5345L111.238 27.555ZM112.148 27.891L111.667 28.7678L111.678 28.7739L111.689 28.7796L112.148 27.891ZM112.876 28.493L113.682 27.9017L113.674 27.8903L113.665 27.8791L112.876 28.493ZM113.058 28.997L114.053 28.9022V28.9022L113.058 28.997ZM112.792 29.529L113.417 30.3099L113.421 30.3063L112.792 29.529ZM112.302 29.683L112.202 30.6781L112.227 30.6805L112.252 30.6818L112.302 29.683ZM111.84 29.487L111.049 30.0985L111.1 30.1649L111.162 30.2218L111.84 29.487ZM111.196 28.997L110.775 29.9041L110.787 29.9095L111.196 28.997ZM109.824 28.871L109.998 29.8558L110.019 29.852L110.041 29.8472L109.824 28.871ZM109.404 29.081L110.05 29.8444L110.066 29.8305L110.082 29.8158L109.404 29.081ZM109.432 30.103L108.75 30.8341L108.763 30.8467L108.777 30.8587L109.432 30.103ZM109.992 30.411L109.653 31.3519L109.675 31.3599L109.698 31.3668L109.992 30.411ZM110.762 30.635L110.496 31.5991L110.504 31.6013L110.762 30.635ZM112.414 31.307L112.983 30.4848V30.4848L112.414 31.307ZM113.002 31.965L112.126 32.4481L112.13 32.4547L112.134 32.4612L113.002 31.965ZM112.806 34.191L113.574 34.8312L112.806 34.191ZM111.756 34.961L112.127 35.8895L112.136 35.886L112.145 35.8823L111.756 34.961ZM108.816 34.933L108.481 35.8751L108.488 35.8777L108.495 35.8801L108.816 34.933ZM108.258 33.3298C108.289 33.3743 108.305 33.4164 108.313 33.4445C108.319 33.4702 108.316 33.4758 108.317 33.4524L106.319 33.3616C106.302 33.7272 106.374 34.1336 106.63 34.4923L108.258 33.3298ZM108.317 33.4524C108.313 33.5443 108.281 33.6271 108.241 33.6847C108.208 33.7339 108.186 33.7396 108.221 33.7173L107.143 32.0328C106.74 32.2907 106.348 32.7254 106.319 33.3616L108.317 33.4524ZM108.212 33.723C108.201 33.7297 108.177 33.7421 108.142 33.7504C108.106 33.7589 108.073 33.7597 108.047 33.7569L108.268 31.7691C107.867 31.7245 107.484 31.8197 107.152 32.027L108.212 33.723ZM108.102 33.7615C108.034 33.7577 107.981 33.7386 107.949 33.7223C107.921 33.7077 107.919 33.7005 107.941 33.7221L109.355 32.3079C109.081 32.0343 108.699 31.7916 108.213 31.7646L108.102 33.7615ZM107.941 33.7221C108.277 34.0579 108.647 34.3356 109.055 34.5395L109.949 32.7506C109.759 32.6558 109.561 32.5135 109.355 32.3079L107.941 33.7221ZM109.055 34.5395C109.531 34.7778 110.069 34.869 110.622 34.869V32.869C110.279 32.869 110.07 32.811 109.949 32.7506L109.055 34.5395ZM110.688 34.8668C110.867 34.8549 111.054 34.8317 111.248 34.7994L110.919 32.8266C110.777 32.8503 110.657 32.8645 110.555 32.8712L110.688 34.8668ZM111.301 34.7892C111.634 34.7153 111.939 34.5608 112.196 34.3238L110.84 32.8542C110.844 32.8502 110.851 32.8448 110.86 32.8404C110.868 32.8361 110.872 32.8358 110.867 32.8368L111.301 34.7892ZM112.198 34.3218C112.598 33.9505 112.714 33.4596 112.714 33.043H110.714C110.714 33.0773 110.709 33.0647 110.724 33.0237C110.74 32.9771 110.776 32.9135 110.837 32.8562L112.198 34.3218ZM112.714 33.043C112.714 32.5829 112.543 32.1306 112.159 31.7973L110.849 33.3087C110.81 33.2747 110.769 33.2238 110.742 33.1604C110.716 33.0998 110.714 33.0549 110.714 33.043H112.714ZM112.159 31.7973C111.9 31.5731 111.595 31.4166 111.283 31.3041L110.605 33.1859C110.759 33.2415 110.828 33.2903 110.849 33.3087L112.159 31.7973ZM111.295 31.3087C111.035 31.2111 110.751 31.1222 110.446 31.0408L109.93 32.9733C110.185 33.0412 110.405 33.1109 110.593 33.1814L111.295 31.3087ZM110.467 31.0467C110.191 30.9666 109.905 30.8772 109.608 30.7783L108.976 32.6757C109.295 32.7822 109.606 32.8795 109.909 32.9674L110.467 31.0467ZM109.617 30.7813C109.387 30.7022 109.182 30.604 108.999 30.4888L107.933 32.1813C108.254 32.3834 108.6 32.5465 108.967 32.6727L109.617 30.7813ZM109.021 30.503C108.899 30.4221 108.797 30.3161 108.713 30.1713L106.987 31.1827C107.22 31.5793 107.529 31.912 107.911 32.1671L109.021 30.503ZM108.713 30.1713C108.667 30.0944 108.612 29.9414 108.612 29.655H106.612C106.612 30.19 106.715 30.7183 106.987 31.1827L108.713 30.1713ZM108.612 29.655C108.612 29.3876 108.682 29.2185 108.785 29.0897L107.223 27.8403C106.803 28.3649 106.612 28.9891 106.612 29.655H108.612ZM108.785 29.0897C108.937 28.8996 109.137 28.7442 109.408 28.6271L108.615 26.791C108.065 27.0285 107.594 27.3771 107.223 27.8403L108.785 29.0897ZM109.401 28.6303C109.697 28.5051 110.004 28.443 110.328 28.443V26.443C109.737 26.443 109.166 26.5583 108.623 26.7878L109.401 28.6303ZM110.328 28.443C110.531 28.443 110.757 28.4693 111.009 28.5284L111.467 26.5816C111.084 26.4915 110.703 26.443 110.328 26.443V28.443ZM111.036 28.5345C111.254 28.5793 111.463 28.6562 111.667 28.7678L112.629 27.0142C112.254 26.8085 111.856 26.6614 111.44 26.5756L111.036 28.5345ZM111.689 28.7796C111.852 28.8638 111.981 28.9717 112.087 29.107L113.665 27.8791C113.378 27.5103 113.022 27.2169 112.607 27.0024L111.689 28.7796ZM112.069 29.0844C112.066 29.0802 112.064 29.0759 112.062 29.0718C112.059 29.0677 112.058 29.0648 112.058 29.0637C112.057 29.0611 112.06 29.069 112.062 29.0918L114.053 28.9022C114.02 28.5513 113.905 28.2058 113.682 27.9017L112.069 29.0844ZM112.062 29.0918C112.054 29.0019 112.072 28.9075 112.111 28.8298C112.145 28.7611 112.179 28.7387 112.163 28.7518L113.421 30.3063C113.795 30.0033 114.113 29.5251 114.053 28.9022L112.062 29.0918ZM112.167 28.7482C112.189 28.7305 112.223 28.7107 112.265 28.6975C112.306 28.6846 112.338 28.6836 112.352 28.6843L112.252 30.6818C112.671 30.7027 113.077 30.5814 113.417 30.3099L112.167 28.7482ZM112.401 28.688C112.396 28.6875 112.411 28.6883 112.437 28.6994C112.464 28.7111 112.493 28.7292 112.518 28.7522L111.162 30.2218C111.464 30.5008 111.83 30.6409 112.202 30.6781L112.401 28.688ZM112.631 28.8756C112.358 28.5224 112.004 28.2635 111.605 28.0845L110.787 29.9095C110.929 29.9732 111.004 30.041 111.049 30.0985L112.631 28.8756ZM111.617 28.09C111.2 27.8965 110.748 27.815 110.286 27.815V29.815C110.514 29.815 110.669 29.8549 110.775 29.904L111.617 28.09ZM110.286 27.815C110.059 27.815 109.831 27.8451 109.607 27.8948L110.041 29.8472C110.153 29.8223 110.233 29.815 110.286 29.815V27.815ZM109.65 27.8862C109.298 27.9484 108.984 28.1077 108.726 28.3462L110.082 29.8158C110.077 29.8201 110.066 29.8296 110.047 29.839C110.028 29.8484 110.011 29.8535 109.998 29.8558L109.65 27.8862ZM108.758 28.3176C108.323 28.6856 108.222 29.1985 108.222 29.585H110.222C110.222 29.5506 110.227 29.5711 110.208 29.6237C110.186 29.6835 110.139 29.7692 110.05 29.8444L108.758 28.3176ZM108.222 29.585C108.222 30.0398 108.381 30.4904 108.75 30.8341L110.114 29.372C110.147 29.4031 110.18 29.4475 110.201 29.4998C110.221 29.5496 110.222 29.583 110.222 29.585H108.222ZM108.777 30.8587C109.036 31.083 109.341 31.2395 109.653 31.3519L110.331 29.4701C110.176 29.4146 110.108 29.3658 110.087 29.3473L108.777 30.8587ZM109.698 31.3668C109.951 31.4446 110.217 31.522 110.496 31.599L111.028 29.671C110.766 29.5987 110.518 29.5268 110.286 29.4552L109.698 31.3668ZM110.504 31.6013C110.757 31.6686 111.016 31.7492 111.281 31.8435L111.95 29.9586C111.637 29.8475 111.327 29.7508 111.02 29.6688L110.504 31.6013ZM111.281 31.8435C111.491 31.9178 111.677 32.0135 111.845 32.1292L112.983 30.4848C112.665 30.2646 112.319 30.0896 111.95 29.9586L111.281 31.8435ZM111.845 32.1292C111.954 32.2052 112.048 32.306 112.126 32.4481L113.877 31.482C113.657 31.0827 113.359 30.7449 112.983 30.4848L111.845 32.1292ZM112.134 32.4612C112.171 32.5262 112.226 32.6756 112.226 32.973H114.226C114.226 32.4491 114.132 31.9265 113.87 31.4689L112.134 32.4612ZM112.226 32.973C112.226 33.2373 112.154 33.4109 112.038 33.5508L113.574 34.8312C114.017 34.2992 114.226 33.6608 114.226 32.973H112.226ZM112.038 33.5508C111.864 33.759 111.646 33.9218 111.367 34.0398L112.145 35.8823C112.705 35.6456 113.188 35.2951 113.574 34.8312L112.038 33.5508ZM111.384 34.0326C111.079 34.1548 110.775 34.213 110.468 34.213V36.213C111.038 36.213 111.593 36.1033 112.127 35.8895L111.384 34.0326ZM110.468 34.213C110.032 34.213 109.59 34.1395 109.137 33.986L108.495 35.8801C109.143 36.0998 109.802 36.213 110.468 36.213V34.213ZM109.151 33.9909C108.793 33.8634 108.495 33.6454 108.244 33.311L106.644 34.511C107.121 35.1473 107.737 35.6106 108.481 35.8751L109.151 33.9909Z" fill="black"/>
</g>
<path d="M26.3111 6.63303C26.2167 6.64186 25.9165 6.67276 25.6463 6.69483C19.4146 7.27311 13.5775 10.7339 9.88053 16.0532C7.82189 19.0108 6.50522 22.3657 6.00771 25.9192C5.83187 27.1597 5.81042 27.526 5.81042 29.2079C5.81042 30.8898 5.83187 31.2562 6.00771 32.4966C7.20001 40.9765 13.0628 48.1012 21.0143 50.741C22.4382 51.2133 23.9393 51.5356 25.6463 51.7298C26.3111 51.8049 29.1846 51.8049 29.8493 51.7298C32.7958 51.3943 35.2919 50.6439 37.7537 49.3505C38.1311 49.1518 38.204 49.0989 38.1525 49.0547C38.1182 49.0282 36.5099 46.8078 34.5799 44.1239L31.0717 39.2461L26.6756 32.5496C24.2567 28.868 22.2667 25.8574 22.2495 25.8574C22.2324 25.853 22.2152 28.8283 22.2066 32.4613C22.1938 38.8223 22.1895 39.0783 22.1123 39.2284C22.0008 39.4447 21.915 39.533 21.7349 39.6301C21.5976 39.7008 21.4775 39.714 20.8299 39.714H20.088L19.8907 39.586C19.762 39.5021 19.6677 39.3918 19.6033 39.2637L19.5133 39.0651L19.5218 30.2144L19.5347 21.3592L19.6677 21.1871C19.7363 21.0944 19.8821 20.9752 19.985 20.9178C20.1609 20.8295 20.2295 20.8207 20.9715 20.8207C21.8464 20.8207 21.9922 20.856 22.2195 21.112C22.2838 21.1827 24.6641 24.873 27.5119 29.3183C30.3597 33.7635 34.254 39.8332 36.1668 42.8129L39.6408 48.2293L39.8166 48.1101C41.3734 47.0683 43.0204 45.5851 44.3242 44.0401C47.099 40.7602 48.8875 36.7608 49.4879 32.4966C49.6638 31.2562 49.6852 30.8898 49.6852 29.2079C49.6852 27.526 49.6638 27.1597 49.4879 25.9192C48.2956 17.4393 42.4328 10.3146 34.4813 7.67482C33.0788 7.2069 31.5863 6.88465 29.9137 6.69042C29.5019 6.64628 26.667 6.59772 26.3111 6.63303ZM35.2919 20.291C35.4977 20.3969 35.665 20.6 35.725 20.8119C35.7594 20.9266 35.7679 23.381 35.7594 28.9121L35.7465 36.8491L34.3869 34.7037L33.0231 32.5584V26.7889C33.0231 23.0588 33.0402 20.9619 33.066 20.8604C33.1346 20.6132 33.2847 20.419 33.4906 20.3042C33.6664 20.2115 33.7307 20.2027 34.4041 20.2027C35.0388 20.2027 35.1503 20.2115 35.2919 20.291Z" fill="#5C7EF5"/>
<path d="M44.1354 53.7701C43.9413 53.8948 43.8803 53.9799 44.0522 53.8835C44.1742 53.8098 44.3738 53.6567 44.3405 53.651C44.3239 53.651 44.2296 53.7077 44.1354 53.7701ZM43.7528 54.0252C43.653 54.1046 43.653 54.1103 43.775 54.0479C43.8415 54.0139 43.897 53.9742 43.897 53.9629C43.897 53.9175 43.8692 53.9288 43.7528 54.0252ZM43.4756 54.1953C43.3758 54.2747 43.3758 54.2804 43.4978 54.218C43.5643 54.184 43.6197 54.1443 43.6197 54.133C43.6197 54.0876 43.592 54.099 43.4756 54.1953ZM43.1984 54.3655C43.0986 54.4448 43.0986 54.4505 43.2206 54.3881C43.2871 54.3541 43.3425 54.3144 43.3425 54.3031C43.3425 54.2577 43.3148 54.2691 43.1984 54.3655ZM42.777 54.5923C42.5663 54.7057 42.5774 54.751 42.7881 54.6433C42.8824 54.5923 42.9544 54.5412 42.9544 54.5299C42.9544 54.4902 42.9489 54.4959 42.777 54.5923Z" fill="#5C7EF5"/>
<defs>
<filter id="filter0_d_104_769" x="60.5687" y="25.273" width="56.6572" height="17.94" filterUnits="userSpaceOnUse" color-interpolation-filters="sRGB">
<feFlood flood-opacity="0" result="BackgroundImageFix"/>
<feColorMatrix in="SourceAlpha" type="matrix" values="0 0 0 0 0 0 0 0 0 0 0 0 0 0 0 0 0 0 127 0" result="hardAlpha"/>
<feOffset dy="4"/>
<feGaussianBlur stdDeviation="2"/>
<feComposite in2="hardAlpha" operator="out"/>
<feColorMatrix type="matrix" values="0 0 0 0 0 0 0 0 0 0 0 0 0 0 0 0 0 0 0.25 0"/>
<feBlend mode="normal" in2="BackgroundImageFix" result="effect1_dropShadow_104_769"/>
<feBlend mode="normal" in="SourceGraphic" in2="effect1_dropShadow_104_769" result="shape"/>
</filter>
</defs>
</svg>
