<svg width="111" height="45" viewBox="0 0 111 45" fill="none" xmlns="http://www.w3.org/2000/svg">
<path d="M25.8669 26.9133C28.3439 26.9133 30.3519 24.9053 30.3519 22.4283C30.3519 19.9513 28.3439 17.9433 25.8669 17.9433C23.3899 17.9433 21.3819 19.9513 21.3819 22.4283C21.3819 24.9053 23.3899 26.9133 25.8669 26.9133Z" fill="#35AAFF"/>
<path fill-rule="evenodd" clip-rule="evenodd" d="M25.867 13.3093C31.8888 13.3093 37.4828 14.1734 41.7006 15.6254C46.7826 17.375 49.9071 20.0269 49.9071 22.4283C49.9071 24.9306 46.5957 27.7479 41.1384 29.556C37.0125 30.923 31.5832 31.6366 25.867 31.6366C20.0064 31.6366 14.4567 30.9668 10.2844 29.541C5.00559 27.7367 1.82613 24.883 1.82613 22.4283C1.82613 20.0464 4.80945 17.415 9.81995 15.6681C14.0535 14.1921 19.7857 13.3093 25.8662 13.3093H25.867Z" stroke="#35AAFF" stroke-width="1.66272"/>
<path fill-rule="evenodd" clip-rule="evenodd" d="M17.9287 17.8951C20.9371 12.6787 24.48 8.26445 27.8451 5.33602C31.8995 1.80771 35.7578 0.42592 37.8379 1.62542C40.0057 2.87552 40.7919 7.15167 39.6319 12.7823C38.7557 17.0395 36.6607 22.099 33.8051 27.0508C30.8772 32.1277 27.5246 36.6006 24.2054 39.5019C20.0053 43.1734 15.9447 44.5021 13.8183 43.2758C11.7549 42.0868 10.9659 38.1871 11.9557 32.9738C12.7921 28.569 14.891 23.1625 17.9277 17.895L17.9287 17.8951Z" stroke="#35AAFF" stroke-width="1.66272"/>
<path fill-rule="evenodd" clip-rule="evenodd" d="M17.9362 27.0641C14.9194 21.8536 12.8654 16.5785 12.008 12.2007C10.976 6.92599 11.7057 2.8931 13.7839 1.69011C15.9495 0.436347 20.0469 1.89073 24.3457 5.70781C27.596 8.59368 30.9336 12.9347 33.7975 17.8819C36.7338 22.9539 38.9345 28.0924 39.7906 32.4169C40.8739 37.8894 39.9971 42.0708 37.8727 43.3006C35.8114 44.4939 32.0393 43.2305 28.0171 39.7693C24.6187 36.845 20.9828 32.3263 17.9362 27.064V27.0641Z" stroke="#35AAFF" stroke-width="1.66272"/>
<path fill-rule="evenodd" clip-rule="evenodd" d="M70.927 31.2507L67.1065 25.5682C69.0374 25.4005 70.7772 24.0231 70.7772 21.5068C70.7772 18.9463 68.9316 17.3076 66.3424 17.3076H60.6566V31.2401H62.4179V25.7042H65.2402L68.8473 31.2401L70.927 31.2507ZM66.1317 24.19H62.4188V18.8633H66.1317C67.8087 18.8633 68.954 19.9493 68.954 21.5165C68.954 23.0837 67.8078 24.1918 66.1317 24.1918V24.19ZM77.4837 31.5006C79.1607 31.5006 80.5391 30.9576 81.5579 29.9555L80.7938 28.9313C79.9867 29.7462 78.7993 30.2054 77.6325 30.2054C75.4263 30.2054 74.0677 28.6179 73.9403 26.7178H82.2359V26.3205C82.2359 23.2921 80.4109 20.9099 77.3124 20.9099C74.3842 20.9099 72.2633 23.2709 72.2633 26.1951C72.2633 29.3498 74.4488 31.4927 77.4828 31.4927L77.4837 31.5006ZM80.6674 25.5673H73.9412C74.0264 24.0222 75.1071 22.2034 77.2935 22.2034C79.628 22.2034 80.6459 24.0628 80.6674 25.5673ZM92.805 31.2499V24.3145C92.805 21.8705 91.0023 20.909 88.8374 20.909C87.1604 20.909 85.8456 21.452 84.7425 22.5804L85.4851 23.6664C86.3972 22.7058 87.3953 22.267 88.6258 22.267C90.1109 22.267 91.2149 23.0395 91.2149 24.3975V26.2145C90.3871 25.2742 89.2204 24.8354 87.8195 24.8354C86.0797 24.8354 84.2322 25.9011 84.2322 28.157C84.2322 30.3502 86.0779 31.4997 87.8195 31.4997C89.1988 31.4997 90.3665 31.0194 91.2149 30.1003V31.2481L92.805 31.2499ZM88.3926 30.3722C86.9075 30.3722 85.8671 29.454 85.8671 28.179C85.8671 26.8838 86.9075 25.9647 88.3926 25.9647C89.5172 25.9647 90.5988 26.3823 91.2149 27.2184V29.1194C90.5997 29.9546 89.5172 30.3731 88.3926 30.3731V30.3722ZM100.5 31.5006C102.367 31.5006 103.47 30.7484 104.256 29.7462L103.195 28.7856C102.516 29.6835 101.646 30.1012 100.594 30.1012C98.4083 30.1012 97.0514 28.4298 97.0514 26.1951C97.0514 23.9604 98.4092 22.3102 100.594 22.3102C101.655 22.3102 102.525 22.7076 103.195 23.6258L104.256 22.6652C103.471 21.6622 102.367 20.9108 100.5 20.9108C97.4442 20.9108 95.386 23.2091 95.386 26.196C95.386 29.2041 97.4442 31.4935 100.5 31.4935V31.5006ZM109.073 31.5006C110.006 31.5006 110.58 31.2287 110.984 30.8534L110.517 29.6835C110.305 29.9131 109.889 30.1012 109.435 30.1012C108.735 30.1012 108.394 29.5582 108.394 28.8059V22.5389H110.475V21.1607H108.394V18.4033H106.803V21.1607H105.105V22.5398H106.803V29.1414C106.803 30.6459 107.567 31.5024 109.073 31.5024V31.5006Z" fill="#B2D3F3"/>
</svg>
