<svg width="72" height="70" viewBox="0 0 72 70" fill="none" xmlns="http://www.w3.org/2000/svg">
<g clip-path="url(#clip0_104_756)">
<path d="M61.6192 38.9666C59.1373 38.9807 56.9892 39.5654 55.1872 40.4365C54.5218 39.143 53.8564 38.0139 53.7455 37.17C53.6202 36.1901 53.4683 35.5913 53.6202 34.4208C53.7721 33.2503 54.4663 31.5899 54.4663 31.4538C54.453 31.3308 54.3133 30.7319 52.8861 30.7189C51.4588 30.7058 50.2245 30.9911 50.0859 31.3591C49.8383 32.039 49.6389 32.735 49.4893 33.442C49.2398 34.7213 46.6337 39.254 45.1499 41.6363C44.6642 40.7108 44.2483 39.8942 44.1651 39.2409C44.0398 38.261 43.8879 37.6622 44.0398 36.4917C44.1918 35.3213 44.886 33.6608 44.886 33.5247C44.8727 33.4017 44.7329 32.8028 43.3057 32.7898C41.8784 32.7767 40.6442 33.062 40.5055 33.43C40.3669 33.798 40.2139 34.6691 39.9089 35.5129C39.6173 36.3567 36.1517 43.925 35.2513 45.8979C34.7933 46.905 34.3918 47.7086 34.1001 48.253C33.8085 48.7974 34.0868 48.2944 34.0591 48.3488L33.671 49.0707V49.0837C33.4769 49.4245 33.2684 49.7512 33.1719 49.7512C33.1032 49.7512 32.9635 48.8388 33.1997 47.5866C33.7131 44.9594 34.9607 40.8622 34.9463 40.713C34.9463 40.6455 35.1825 39.9236 34.1423 39.5556C33.1298 39.1876 32.7694 39.8006 32.6862 39.8006C32.603 39.8006 32.5332 40.0184 32.5332 40.0184C32.5332 40.0184 33.6566 35.404 30.384 35.404C28.3324 35.404 25.5045 37.5958 24.1039 39.5959L17.0331 43.3937L16.8801 43.2303C12.9178 39.0755 5.58416 36.1357 5.88913 30.5556C6.00002 28.5271 6.72085 23.1778 19.973 16.6994C30.8276 11.3915 39.5208 12.8472 41.0323 16.0864C43.1815 20.7139 36.388 29.3154 25.1031 30.5566C20.8058 31.0335 18.5458 29.3992 17.9769 28.7873C17.3802 28.1471 17.2971 28.1199 17.0753 28.2429C16.7149 28.4335 16.9367 29.0051 17.0753 29.3459C17.408 30.2039 18.7942 31.7282 21.1507 32.4904C23.2167 33.1578 28.2625 33.5247 34.363 31.211C41.1975 28.611 46.535 21.3976 44.968 15.3689C43.3733 9.23024 33.0045 7.21595 23.2023 10.6326C17.3669 12.6719 11.0569 15.8556 6.51015 20.0344C1.09284 24.9885 0.233392 29.3176 0.592698 31.1141C1.8547 37.525 10.8506 41.7038 14.4548 44.7938L13.9558 45.0661C12.1537 45.9371 5.29139 49.4626 3.57249 53.1918C1.6318 57.4109 3.87746 60.4465 5.37457 60.8548C10.0045 62.1211 14.7453 59.8477 17.3104 56.1044C19.861 52.361 19.556 47.5028 18.3783 45.2838L18.3362 45.2022L19.7501 44.3855C20.665 43.8542 21.5666 43.3643 22.3562 42.9429C21.9126 44.1275 21.5932 45.5288 21.4269 47.5703C21.2328 49.9657 22.2309 53.0688 23.5483 54.2948C24.1305 54.8261 24.8236 54.8392 25.2539 54.8392C26.7787 54.8392 27.4719 53.6001 28.2348 52.1171C29.1774 50.3065 30.0092 48.2105 30.0092 48.2105C30.0092 48.2105 28.969 53.8865 31.8112 53.8865C32.8515 53.8865 33.8906 52.5657 34.3619 51.8852V51.8983C34.3619 51.8983 34.3896 51.8569 34.445 51.7622C34.5559 51.5989 34.6114 51.5031 34.6114 51.5031V51.4758C35.0272 50.7681 35.9566 49.148 37.3428 46.4673C39.1315 43.0104 40.8504 38.6824 40.8504 38.6824C40.8504 38.6824 41.0168 39.744 41.5302 41.4861C41.8352 42.5204 42.5006 43.6506 43.014 44.7525L42.3486 45.6507L42.362 45.6649C42.0071 46.1265 41.6418 46.5803 41.2663 47.0259C39.8524 48.6863 38.1612 50.5787 37.9394 51.1231C37.6755 51.7633 37.7309 52.2391 38.2444 52.6202C38.6192 52.8924 39.2846 52.9468 39.991 52.8924C41.2663 52.8107 42.1535 52.4971 42.5971 52.3066C43.3974 52.0265 44.1534 51.6368 44.8427 51.1492C46.2289 50.1421 47.0751 48.7125 46.9919 46.8071C46.9498 45.7585 46.6038 44.7242 46.1735 43.7442L46.5483 43.1998C48.7385 40.0554 50.4297 36.5984 50.4297 36.5984C50.4297 36.5984 50.596 37.66 51.1095 39.4021C51.3734 40.2873 51.9002 41.2531 52.3715 42.2058C50.3199 43.8531 49.0302 45.7585 48.5866 47.0107C47.7682 49.3244 48.4058 50.3729 49.6124 50.6179C50.1536 50.7267 50.9298 50.4818 51.512 50.2368C52.2329 50.0049 53.1067 49.6107 53.9107 49.0249C55.297 48.0178 56.6277 46.6154 56.559 44.7242C56.5168 43.8531 56.2817 42.9951 55.9623 42.1785C57.709 41.4708 59.969 41.0625 62.8379 41.4022C69.0071 42.11 70.227 45.8935 69.9908 47.4723C69.7546 49.0511 68.4659 49.9221 68.0357 50.1943C67.6054 50.4535 67.4668 50.5482 67.5089 50.7387C67.5643 51.0251 67.7584 51.0109 68.1332 50.9565C68.6467 50.8748 71.377 49.663 71.4879 46.7504C71.6542 43.0071 68.0357 38.9241 61.6181 38.9655L61.6192 38.9666ZM14.04 54.7161C12.0018 56.9079 9.13286 57.7376 7.91299 57.0298C6.59554 56.2807 7.10899 53.0557 9.61858 50.7278C11.1434 49.3124 13.1262 48.0058 14.4293 47.2023L15.6913 46.4532C15.7745 46.3988 15.8299 46.3715 15.8299 46.3715C15.9275 46.3171 16.0384 46.2485 16.1493 46.181C17.0786 49.5018 16.1914 52.4144 14.0423 54.715L14.04 54.7161ZM28.9446 44.7666C28.237 46.4684 26.7399 50.8367 25.8395 50.5917C25.0632 50.387 24.5919 47.0803 25.6864 43.8128C26.2409 42.1655 27.4197 40.2056 28.1128 39.4435C29.2362 38.2186 30.4561 37.8103 30.761 38.3133C31.1215 38.9666 29.3881 43.7029 28.9446 44.7655V44.7666ZM41.2408 50.5373C40.9358 50.6875 40.6586 50.7964 40.5333 50.7148C40.4357 50.6603 40.6586 50.4556 40.6586 50.4556C40.6586 50.4556 42.1978 48.8355 42.8078 48.0875L44.0143 46.5762V46.7395C44.0143 48.6994 42.1014 50.006 41.2419 50.5373H41.2408ZM50.7225 48.4141C50.5007 48.2508 50.5284 47.7467 51.2769 46.1679C51.5686 45.5419 52.234 44.4933 53.384 43.5004C53.5226 43.9087 53.6058 44.3039 53.5925 44.6708C53.5781 47.1206 51.8037 48.033 50.7225 48.4141Z" fill="#B2D3F3"/>
</g>
<defs>
<clipPath id="clip0_104_756">
<rect width="70.9739" height="69.6835" fill="white" transform="translate(0.521729 0.248688)"/>
</clipPath>
</defs>
</svg>
