<svg width="134" height="28" viewBox="0 0 134 28" fill="none" xmlns="http://www.w3.org/2000/svg">
<path fill-rule="evenodd" clip-rule="evenodd" d="M12.115 9.25491C13.617 3.24148 17.3761 0.234772 23.3882 0.234772C32.4084 0.234772 33.5336 6.99665 38.0424 8.12578C41.0491 8.8781 43.679 7.75155 45.9334 4.74484C44.4313 10.757 40.6723 13.7637 34.6614 13.7637C25.6413 13.7637 24.5161 7.00181 20.0073 5.87268C17.0006 5.12036 14.3707 6.24691 12.1163 9.25362L12.115 9.25491ZM0.841736 22.7838C2.34638 16.7704 6.10155 13.7637 12.115 13.7637C21.1351 13.7637 22.2604 20.5256 26.7692 21.6547C29.7759 22.407 32.4058 21.2805 34.6602 18.2738C33.1581 24.2872 29.3991 27.2939 23.3869 27.2939C14.3668 27.2939 13.2415 20.532 8.73275 19.4029C5.72603 18.6506 3.09613 19.7771 0.841736 22.7838Z" fill="url(#paint0_linear_104_736)"/>
<path fill-rule="evenodd" clip-rule="evenodd" d="M54.1406 10.6383H51.1894V8.87037H59.1513V10.6383H56.2014V18.657H54.1406V10.6383ZM63.0059 17.7524C62.7328 18.0635 62.4101 18.3273 62.051 18.5331C61.7 18.7344 61.2444 18.8351 60.6857 18.8351C60.3773 18.8366 60.0702 18.7949 59.7733 18.7112C59.4843 18.6286 59.2313 18.5009 59.0171 18.328C58.8029 18.155 58.63 17.9344 58.5035 17.6634C58.3771 17.3924 58.31 17.0724 58.31 16.6956C58.31 16.2026 58.4197 15.8 58.6403 15.489C58.8615 15.1767 59.1592 14.9266 59.5049 14.7625C59.8611 14.5883 60.2611 14.4657 60.705 14.3921C61.153 14.3184 61.6051 14.2727 62.0587 14.2554L62.9775 14.2141V13.8579C62.9775 13.4191 62.8575 13.1172 62.6136 12.9546C62.3697 12.792 62.0845 12.7094 61.7567 12.7094C60.9954 12.7094 60.5618 12.9972 60.4534 13.574L58.6984 13.4101C58.8249 12.6617 59.1552 12.1197 59.6856 11.7842C60.216 11.4487 60.9309 11.2835 61.8277 11.2835C62.3761 11.2835 62.8433 11.348 63.2278 11.4822C63.6124 11.6164 63.9221 11.8048 64.1544 12.05C64.3924 12.305 64.5667 12.6128 64.6628 12.9481C64.7686 13.2991 64.8202 13.6966 64.8202 14.1353V18.6583H63.0059V17.755V17.7524ZM62.9646 15.4632L62.1129 15.5045C61.7103 15.5213 61.3851 15.5639 61.1386 15.6284C60.8921 15.6929 60.6999 15.7729 60.5708 15.8684C60.4418 15.9639 60.3476 16.0749 60.3037 16.2039C60.2598 16.333 60.2353 16.4749 60.2353 16.6298C60.2353 16.8672 60.3179 17.0556 60.4805 17.1911C60.6431 17.3266 60.8741 17.3976 61.1644 17.3976C61.6599 17.3976 62.0626 17.284 62.3723 17.0543C62.5465 16.9253 62.6897 16.7627 62.7981 16.5678C62.9065 16.373 62.962 16.1265 62.962 15.8348V15.4645L62.9646 15.4632ZM66.3791 11.5016H68.3018V18.6557H66.3791V11.5016ZM66.3533 8.86908H68.3276V10.5957H66.3533V8.86908ZM69.9458 8.86908H71.8686V18.6557H69.9458V8.86908ZM72.7293 11.5016H74.8146L75.8173 16.2439L77.1877 11.57H78.8627L80.1532 16.2581L81.1558 11.5158H83.1599L81.0732 18.6699H79.206L77.9285 13.9547L76.638 18.6699H74.8133L72.728 11.5158L72.7293 11.5016ZM84.0335 11.5016H85.9562V18.6557H84.0335V11.5016ZM84.0077 8.86908H85.9821V10.5957H84.0077V8.86908ZM87.5874 11.5016H89.4546V12.4887C89.7385 12.0694 90.074 11.7622 90.4612 11.57C90.8483 11.3777 91.2548 11.2822 91.6742 11.2822C92.4897 11.2822 93.0936 11.4951 93.4872 11.9197C93.8808 12.3442 94.0782 13.014 94.0782 13.9276V18.6557H92.1568V14.1895C92.1568 13.6734 92.0613 13.3443 91.8677 13.1611C91.6742 12.9778 91.42 12.8875 91.0999 12.8875C90.8547 12.8875 90.6405 12.9262 90.4612 12.9972C90.2818 13.0682 90.1153 13.1753 89.9605 13.312C89.8314 13.4411 89.7243 13.5934 89.6379 13.7714C89.5513 13.9532 89.5072 14.1522 89.5088 14.3534V18.657H87.5732V11.5029L87.5874 11.5016ZM100.595 17.7111C100.354 18.0785 100.024 18.3784 99.6345 18.5823C99.2454 18.7862 98.8107 18.8874 98.3715 18.8764C97.365 18.8764 96.6165 18.5383 96.1197 17.8621C95.6229 17.1859 95.379 16.2491 95.379 15.0528C95.3733 14.5357 95.4455 14.0206 95.5932 13.525C95.7352 13.063 95.9378 12.6655 96.2036 12.3326C96.4646 12.0031 96.7979 11.7382 97.1779 11.5583C97.565 11.3777 97.9973 11.2848 98.4812 11.2848C98.8374 11.2848 99.1909 11.3493 99.5432 11.4783C99.8955 11.6074 100.227 11.8655 100.539 12.219V8.87424H102.462V18.6609H100.596V17.715L100.595 17.7111ZM100.554 14.9973C100.554 14.5405 100.515 14.1753 100.425 13.9005C100.334 13.6256 100.221 13.4037 100.048 13.2295C99.8826 13.0656 99.702 12.9714 99.5058 12.9068C99.3158 12.8571 99.1202 12.832 98.9238 12.832C98.7182 12.8311 98.5147 12.8733 98.3264 12.9559C98.138 13.0385 97.9754 13.1662 97.8321 13.3391C97.6889 13.5121 97.5779 13.7418 97.4966 14.0231C97.4153 14.3044 97.3727 14.6425 97.3727 15.0374C97.3727 15.4658 97.4114 15.8245 97.5018 16.1136C97.5921 16.4026 97.6863 16.6349 97.8244 16.813C97.9625 16.9911 98.1212 17.1188 98.3044 17.1963C98.4877 17.2737 98.6851 17.3253 98.8954 17.3253C99.3523 17.3253 99.7278 17.1924 100.021 16.9278C100.206 16.741 100.344 16.5134 100.425 16.2633C100.51 16.0026 100.554 15.6671 100.554 15.2567V15.0115V14.9973ZM115.577 15.2709C115.53 15.7923 115.409 16.2736 115.213 16.7162C115.023 17.1499 114.747 17.5412 114.404 17.8673C114.04 18.2051 113.61 18.4638 113.141 18.6273C112.642 18.808 112.064 18.9009 111.405 18.9009C110.664 18.9009 110.011 18.777 109.449 18.5306C108.904 18.297 108.42 17.9406 108.036 17.4892C107.655 17.0414 107.37 16.4994 107.177 15.8632C106.985 15.227 106.89 14.5263 106.89 13.7598C106.89 12.9649 106.993 12.2526 107.205 11.6216C107.416 10.9906 107.718 10.4524 108.11 10.0047C108.503 9.55688 108.98 9.21362 109.538 8.97618C110.095 8.73874 110.729 8.62002 111.435 8.62002C112.057 8.62002 112.6 8.69745 113.061 8.8523C113.521 9.00715 113.912 9.23169 114.228 9.52333C114.545 9.81497 114.796 10.1685 114.99 10.5789C115.191 11.02 115.334 11.4855 115.414 11.9635L113.382 12.2242C113.281 11.6487 113.085 11.1957 112.801 10.8667C112.517 10.5376 112.055 10.3737 111.433 10.3737C110.646 10.3737 110.049 10.6679 109.643 11.2577C109.238 11.8474 109.031 12.6797 109.031 13.7585C109.031 14.8464 109.25 15.6942 109.683 16.2671C109.88 16.5468 110.142 16.7733 110.448 16.9264C110.753 17.0796 111.092 17.1546 111.433 17.1446C112.066 17.1446 112.53 16.982 112.827 16.6581C113.124 16.3342 113.308 15.871 113.382 15.2671L115.577 15.2709ZM118.567 15.4645C118.612 16.0671 118.807 16.5059 119.148 16.7807C119.488 17.0556 119.995 17.1937 120.664 17.1937C120.984 17.1937 121.255 17.1588 121.474 17.0904C121.694 17.022 121.872 16.9304 122.01 16.8169C122.141 16.7103 122.243 16.571 122.304 16.413C122.365 16.2509 122.395 16.0789 122.393 15.9058C122.393 15.6477 122.299 15.409 122.106 15.1858C121.914 14.9625 121.562 14.7986 121.048 14.6993L119.771 14.467C119.255 14.3767 118.824 14.2566 118.439 14.1108C118.055 13.965 117.732 13.7753 117.471 13.543C117.211 13.3108 117.012 13.0243 116.875 12.6862C116.738 12.3481 116.669 11.9455 116.669 11.4796C116.66 11.0516 116.757 10.628 116.95 10.246C117.136 9.89143 117.404 9.58625 117.732 9.35557C118.067 9.11813 118.467 8.93747 118.932 8.81359C119.397 8.6897 119.913 8.62905 120.47 8.62905C121.184 8.62905 121.779 8.71164 122.255 8.87424C122.731 9.03683 123.116 9.25491 123.409 9.52591C123.701 9.7969 123.918 10.1066 124.06 10.4653C124.202 10.8241 124.296 11.1919 124.344 11.5751L122.408 11.8203C122.308 11.2809 122.114 10.8912 121.828 10.655C121.541 10.4189 121.103 10.2989 120.517 10.2989C120.168 10.2989 119.884 10.3286 119.659 10.3892C119.433 10.4499 119.253 10.526 119.117 10.6215C118.991 10.7039 118.89 10.8202 118.827 10.957C118.773 11.086 118.745 11.2177 118.745 11.3545C118.745 11.7196 118.848 11.9945 119.055 12.1765C119.261 12.3584 119.609 12.5016 120.104 12.6023L121.448 12.863C122.51 13.0733 123.289 13.414 123.784 13.8824C124.28 14.3508 124.525 15.0438 124.525 15.9174C124.525 16.3459 124.445 16.7433 124.285 17.1046C124.121 17.4697 123.876 17.7931 123.57 18.0505C123.221 18.3387 122.818 18.5533 122.384 18.6815C121.909 18.8325 121.352 18.9074 120.709 18.9074C119.372 18.9074 118.35 18.6235 117.642 18.0505C116.933 17.4776 116.55 16.631 116.48 15.4671H118.553L118.567 15.4645ZM127.471 15.4645C127.516 16.0671 127.711 16.5059 128.052 16.7807C128.392 17.0556 128.903 17.1937 129.568 17.1937C129.89 17.1937 130.159 17.1588 130.381 17.0904C130.603 17.022 130.778 16.9304 130.916 16.8169C131.048 16.7103 131.149 16.571 131.211 16.413C131.271 16.2509 131.302 16.0789 131.3 15.9058C131.296 15.6385 131.193 15.3821 131.012 15.1858C130.818 14.9625 130.467 14.7986 129.954 14.6993L128.676 14.467C128.16 14.3767 127.729 14.2566 127.344 14.1108C126.96 13.965 126.637 13.7753 126.377 13.543C126.116 13.3108 125.917 13.0243 125.779 12.6862C125.641 12.3481 125.573 11.9455 125.573 11.4796C125.564 11.0516 125.661 10.628 125.854 10.246C126.042 9.88981 126.303 9.59172 126.636 9.34266C126.969 9.09361 127.371 8.92456 127.836 8.80068C128.301 8.6768 128.817 8.61615 129.374 8.61615C130.088 8.61615 130.683 8.69874 131.159 8.86133C131.635 9.02393 132.018 9.24201 132.313 9.513C132.607 9.78399 132.824 10.0937 132.964 10.4524C133.105 10.8112 133.2 11.179 133.248 11.5622L131.312 11.8074C131.212 11.268 131.018 10.8783 130.732 10.6421C130.445 10.406 130.007 10.286 129.421 10.286C129.072 10.286 128.788 10.3157 128.563 10.3763C128.337 10.437 128.157 10.5131 128.021 10.6086C127.895 10.691 127.794 10.8073 127.731 10.9441C127.676 11.0731 127.649 11.2048 127.649 11.3415C127.649 11.7067 127.752 11.9816 127.959 12.1636C128.165 12.3455 128.513 12.4887 129.009 12.5894L130.367 12.8604C131.429 13.0707 132.207 13.4114 132.702 13.8798C133.198 14.3483 133.443 15.0412 133.443 15.9148C133.448 16.3227 133.366 16.7268 133.203 17.1008C133.039 17.4661 132.795 17.7895 132.488 18.0466C132.173 18.3176 131.778 18.5267 131.301 18.679C130.823 18.8312 130.268 18.9048 129.627 18.9048C128.29 18.9048 127.268 18.6209 126.558 18.0479C125.849 17.475 125.467 16.6285 125.413 15.4645H127.471Z" fill="#B2D3F3"/>
<defs>
<linearGradient id="paint0_linear_104_736" x1="0.841736" y1="-23.8125" x2="45.9334" y2="51.3399" gradientUnits="userSpaceOnUse">
<stop stop-color="#2383AE"/>
<stop offset="1" stop-color="#6DD7B9"/>
</linearGradient>
</defs>
</svg>
