<svg width="152" height="43" viewBox="0 0 152 43" fill="none" xmlns="http://www.w3.org/2000/svg">
<path d="M0.648682 0.024353H41.9426V42.3254H0.648682V0.024353Z" fill="#017ACB"/>
<path d="M20.4763 15.6889H22.4571V19.192H17.1018V34.7773L16.9598 34.817C16.7663 34.8698 14.2176 34.8698 13.6692 34.8104L13.2305 34.7707V19.192H7.87516V15.6889L9.57208 15.6691C10.5012 15.6559 12.8885 15.6559 14.8758 15.6691C16.863 15.6823 19.3794 15.6889 20.4763 15.6889ZM35.5937 33.1249C34.8065 33.9776 33.9613 34.4534 32.5547 34.8434C31.9418 35.0153 31.8385 35.0219 30.4578 35.0153C29.077 35.0086 28.9673 35.0086 28.2963 34.8302C26.5607 34.3741 25.1605 33.4818 24.2056 32.2194C23.9346 31.8625 23.4894 31.1222 23.4894 31.0297C23.4894 31.0033 23.5539 30.9438 23.6378 30.9041C23.7217 30.8645 23.8959 30.7521 24.0379 30.6662C24.1798 30.5803 24.4379 30.4216 24.6121 30.3291C24.7863 30.2366 25.2896 29.9325 25.7283 29.6615C26.1671 29.3905 26.5671 29.1724 26.6123 29.1724C26.6574 29.1724 26.7413 29.265 26.8058 29.3773C27.193 30.0449 28.0963 30.8975 28.735 31.1883C29.1286 31.3602 29.9997 31.5519 30.4191 31.5519C30.8062 31.5519 31.5159 31.38 31.8966 31.2015C32.3031 31.0099 32.5096 30.8182 32.7547 30.4348C32.9225 30.1638 32.9419 30.0911 32.9354 29.5756C32.9354 29.0997 32.9096 28.9675 32.7806 28.7494C32.4192 28.1413 31.9289 27.8241 29.9416 26.9252C27.8898 25.9932 26.9671 25.438 26.2187 24.6911C25.6638 24.1359 25.5541 23.9839 25.2057 23.2899C24.754 22.3976 24.696 22.1068 24.6895 20.7783C24.6831 19.8464 24.7024 19.5423 24.7992 19.2251C24.9347 18.7492 25.3735 17.8304 25.5735 17.5991C25.9864 17.1034 26.1348 16.9514 26.4252 16.7068C27.3027 15.9665 28.6705 15.4774 29.9803 15.4312C30.1287 15.4312 30.6191 15.4576 31.0772 15.4907C32.3934 15.603 33.2903 15.9335 34.1549 16.6407C34.8065 17.1695 35.7937 18.4121 35.6969 18.5773C35.6324 18.6765 33.058 20.4346 32.8902 20.4875C32.787 20.5205 32.716 20.4809 32.5741 20.309C31.6966 19.2317 31.3417 19.0003 30.49 18.9475C29.8835 18.9078 29.5609 18.9805 29.1544 19.2581C28.7286 19.5489 28.5221 19.9918 28.5221 20.6064C28.5286 21.5053 28.8641 21.9284 30.1029 22.5563C30.903 22.9594 31.5869 23.2899 31.6385 23.2899C31.7159 23.2899 33.3742 24.1359 33.8064 24.4003C35.8195 25.6099 36.6389 26.8525 36.8519 28.994C37.0067 30.6067 36.5615 32.0806 35.5937 33.1249Z" fill="white"/>
<path d="M66.5354 28.4765C66.2741 28.4765 66.0594 28.3972 65.8914 28.2385C65.7234 28.0705 65.6394 27.8652 65.6394 27.6225V19.5025H67.4594V27.6225C67.4594 27.8652 67.3707 28.0705 67.1934 28.2385C67.0254 28.3972 66.8061 28.4765 66.5354 28.4765ZM63.4414 20.2865C63.1987 20.2865 62.9934 20.2118 62.8254 20.0625C62.6667 19.9132 62.5874 19.7172 62.5874 19.4745C62.5874 19.2318 62.6667 19.0405 62.8254 18.9005C62.9934 18.7512 63.1987 18.6765 63.4414 18.6765H69.6574C69.9001 18.6765 70.1007 18.7512 70.2594 18.9005C70.4274 19.0498 70.5114 19.2458 70.5114 19.4885C70.5114 19.7312 70.4274 19.9272 70.2594 20.0765C70.1007 20.2165 69.9001 20.2865 69.6574 20.2865H63.4414ZM77.2623 20.9865C77.505 20.9865 77.7057 21.0705 77.8643 21.2385C78.023 21.3972 78.1023 21.5978 78.1023 21.8405V27.7905C78.1023 28.6492 77.939 29.3305 77.6123 29.8345C77.295 30.3478 76.8657 30.7165 76.3243 30.9405C75.783 31.1645 75.1763 31.2765 74.5043 31.2765C74.2057 31.2765 73.8883 31.2532 73.5523 31.2065C73.2163 31.1598 72.941 31.0898 72.7263 30.9965C72.4463 30.8752 72.2503 30.7212 72.1383 30.5345C72.0357 30.3572 72.017 30.1658 72.0823 29.9605C72.1663 29.6898 72.3017 29.5032 72.4883 29.4005C72.675 29.3072 72.871 29.2978 73.0763 29.3725C73.2257 29.4192 73.4217 29.4892 73.6643 29.5825C73.907 29.6852 74.187 29.7365 74.5043 29.7365C74.9337 29.7365 75.2883 29.6758 75.5683 29.5545C75.8577 29.4425 76.0723 29.2465 76.2123 28.9665C76.3617 28.6958 76.4363 28.3225 76.4363 27.8465V26.9085L76.7303 27.2445C76.5717 27.5525 76.371 27.8092 76.1283 28.0145C75.895 28.2105 75.615 28.3598 75.2883 28.4625C74.9617 28.5652 74.5883 28.6165 74.1683 28.6165C73.6737 28.6165 73.2397 28.5045 72.8663 28.2805C72.5023 28.0472 72.2177 27.7298 72.0123 27.3285C71.807 26.9178 71.7043 26.4512 71.7043 25.9285V21.8405C71.7043 21.5978 71.7837 21.3972 71.9423 21.2385C72.101 21.0705 72.3017 20.9865 72.5443 20.9865C72.787 20.9865 72.9877 21.0705 73.1463 21.2385C73.305 21.3972 73.3843 21.5978 73.3843 21.8405V25.4245C73.3843 26.0312 73.515 26.4605 73.7763 26.7125C74.047 26.9552 74.4203 27.0765 74.8963 27.0765C75.223 27.0765 75.4983 27.0158 75.7223 26.8945C75.9463 26.7638 76.119 26.5772 76.2403 26.3345C76.3617 26.0825 76.4223 25.7792 76.4223 25.4245V21.8405C76.4223 21.5978 76.5017 21.3972 76.6603 21.2385C76.819 21.0705 77.0197 20.9865 77.2623 20.9865ZM83.7991 20.8465C84.4525 20.8465 85.0358 21.0145 85.5491 21.3505C86.0718 21.6772 86.4825 22.1298 86.7811 22.7085C87.0891 23.2872 87.2431 23.9592 87.2431 24.7245C87.2431 25.4898 87.0891 26.1665 86.7811 26.7545C86.4825 27.3332 86.0765 27.7905 85.5631 28.1265C85.0591 28.4532 84.4898 28.6165 83.8551 28.6165C83.4818 28.6165 83.1318 28.5558 82.8051 28.4345C82.4785 28.3132 82.1891 28.1592 81.9371 27.9725C81.6945 27.7858 81.5031 27.5992 81.3631 27.4125C81.2325 27.2165 81.1671 27.0532 81.1671 26.9225L81.6011 26.7405V30.4225C81.6011 30.6652 81.5218 30.8658 81.3631 31.0245C81.2045 31.1925 81.0038 31.2765 80.7611 31.2765C80.5185 31.2765 80.3178 31.1972 80.1591 31.0385C80.0005 30.8798 79.9211 30.6745 79.9211 30.4225V21.8405C79.9211 21.5978 80.0005 21.3972 80.1591 21.2385C80.3178 21.0705 80.5185 20.9865 80.7611 20.9865C81.0038 20.9865 81.2045 21.0705 81.3631 21.2385C81.5218 21.3972 81.6011 21.5978 81.6011 21.8405V22.5265L81.3631 22.4005C81.3631 22.2792 81.4285 22.1345 81.5591 21.9665C81.6898 21.7892 81.8671 21.6165 82.0911 21.4485C82.3151 21.2712 82.5718 21.1265 82.8611 21.0145C83.1598 20.9025 83.4725 20.8465 83.7991 20.8465ZM83.5891 22.3865C83.1785 22.3865 82.8191 22.4892 82.5111 22.6945C82.2031 22.8998 81.9605 23.1798 81.7831 23.5345C81.6151 23.8798 81.5311 24.2765 81.5311 24.7245C81.5311 25.1632 81.6151 25.5645 81.7831 25.9285C81.9605 26.2832 82.2031 26.5632 82.5111 26.7685C82.8191 26.9738 83.1785 27.0765 83.5891 27.0765C83.9998 27.0765 84.3545 26.9738 84.6531 26.7685C84.9611 26.5632 85.1991 26.2832 85.3671 25.9285C85.5445 25.5645 85.6331 25.1632 85.6331 24.7245C85.6331 24.2765 85.5445 23.8798 85.3671 23.5345C85.1991 23.1798 84.9611 22.8998 84.6531 22.6945C84.3545 22.4892 83.9998 22.3865 83.5891 22.3865ZM92.2402 28.6165C91.4468 28.6165 90.7562 28.4532 90.1682 28.1265C89.5895 27.7905 89.1415 27.3378 88.8242 26.7685C88.5162 26.1992 88.3622 25.5552 88.3622 24.8365C88.3622 23.9965 88.5302 23.2825 88.8662 22.6945C89.2115 22.0972 89.6595 21.6398 90.2102 21.3225C90.7608 21.0052 91.3442 20.8465 91.9602 20.8465C92.4362 20.8465 92.8842 20.9445 93.3042 21.1405C93.7335 21.3365 94.1115 21.6072 94.4382 21.9525C94.7648 22.2885 95.0215 22.6805 95.2082 23.1285C95.4042 23.5765 95.5022 24.0525 95.5022 24.5565C95.4928 24.7805 95.4042 24.9625 95.2362 25.1025C95.0682 25.2425 94.8722 25.3125 94.6482 25.3125H89.3002L88.8802 23.9125H94.0182L93.7102 24.1925V23.8145C93.6915 23.5438 93.5935 23.3012 93.4162 23.0865C93.2482 22.8718 93.0335 22.7038 92.7722 22.5825C92.5202 22.4518 92.2495 22.3865 91.9602 22.3865C91.6802 22.3865 91.4188 22.4238 91.1762 22.4985C90.9335 22.5732 90.7235 22.6992 90.5462 22.8765C90.3688 23.0538 90.2288 23.2918 90.1262 23.5905C90.0235 23.8892 89.9722 24.2672 89.9722 24.7245C89.9722 25.2285 90.0748 25.6578 90.2802 26.0125C90.4948 26.3578 90.7655 26.6238 91.0922 26.8105C91.4282 26.9878 91.7828 27.0765 92.1562 27.0765C92.5015 27.0765 92.7768 27.0485 92.9822 26.9925C93.1875 26.9365 93.3508 26.8712 93.4722 26.7965C93.6028 26.7125 93.7195 26.6425 93.8222 26.5865C93.9902 26.5025 94.1488 26.4605 94.2982 26.4605C94.5035 26.4605 94.6715 26.5305 94.8022 26.6705C94.9422 26.8105 95.0122 26.9738 95.0122 27.1605C95.0122 27.4125 94.8815 27.6412 94.6202 27.8465C94.3775 28.0518 94.0368 28.2338 93.5982 28.3925C93.1595 28.5418 92.7068 28.6165 92.2402 28.6165ZM96.536 27.3145C96.4426 27.1838 96.4006 27.0158 96.41 26.8105C96.4193 26.6052 96.5406 26.4278 96.774 26.2785C96.9233 26.1852 97.082 26.1478 97.25 26.1665C97.418 26.1758 97.5813 26.2598 97.74 26.4185C98.0106 26.6892 98.2953 26.8992 98.594 27.0485C98.8926 27.1978 99.266 27.2725 99.714 27.2725C99.854 27.2632 100.008 27.2445 100.176 27.2165C100.344 27.1792 100.489 27.1045 100.61 26.9925C100.741 26.8712 100.806 26.6892 100.806 26.4465C100.806 26.2412 100.736 26.0778 100.596 25.9565C100.456 25.8352 100.269 25.7325 100.036 25.6485C99.812 25.5645 99.56 25.4852 99.28 25.4105C98.9906 25.3265 98.692 25.2332 98.384 25.1305C98.0853 25.0278 97.81 24.8972 97.558 24.7385C97.306 24.5705 97.1006 24.3512 96.942 24.0805C96.7833 23.8098 96.704 23.4692 96.704 23.0585C96.704 22.5918 96.8346 22.1952 97.096 21.8685C97.3573 21.5418 97.6933 21.2898 98.104 21.1125C98.524 20.9352 98.9626 20.8465 99.42 20.8465C99.7093 20.8465 100.013 20.8838 100.33 20.9585C100.647 21.0238 100.951 21.1358 101.24 21.2945C101.529 21.4438 101.772 21.6445 101.968 21.8965C102.071 22.0365 102.131 22.2045 102.15 22.4005C102.169 22.5965 102.08 22.7738 101.884 22.9325C101.744 23.0445 101.581 23.0958 101.394 23.0865C101.207 23.0678 101.053 23.0025 100.932 22.8905C100.773 22.6852 100.559 22.5218 100.288 22.4005C100.027 22.2792 99.7233 22.2185 99.378 22.2185C99.238 22.2185 99.084 22.2372 98.916 22.2745C98.7573 22.3025 98.6173 22.3725 98.496 22.4845C98.3746 22.5872 98.314 22.7552 98.314 22.9885C98.314 23.2032 98.384 23.3758 98.524 23.5065C98.664 23.6278 98.8506 23.7305 99.084 23.8145C99.3266 23.8892 99.5833 23.9638 99.854 24.0385C100.134 24.1132 100.419 24.2018 100.708 24.3045C100.997 24.4072 101.263 24.5425 101.506 24.7105C101.749 24.8785 101.945 25.0978 102.094 25.3685C102.243 25.6298 102.318 25.9658 102.318 26.3765C102.318 26.8525 102.178 27.2585 101.898 27.5945C101.618 27.9305 101.268 28.1872 100.848 28.3645C100.428 28.5325 99.9986 28.6165 99.56 28.6165C99.0093 28.6165 98.4586 28.5232 97.908 28.3365C97.3573 28.1405 96.9 27.7998 96.536 27.3145ZM107.056 20.8465C107.588 20.8465 108.05 20.9025 108.442 21.0145C108.843 21.1265 109.151 21.2852 109.366 21.4905C109.59 21.6865 109.702 21.9245 109.702 22.2045C109.702 22.3912 109.646 22.5685 109.534 22.7365C109.422 22.8952 109.259 22.9745 109.044 22.9745C108.895 22.9745 108.769 22.9558 108.666 22.9185C108.573 22.8718 108.489 22.8158 108.414 22.7505C108.339 22.6852 108.251 22.6245 108.148 22.5685C108.055 22.5125 107.91 22.4705 107.714 22.4425C107.527 22.4052 107.387 22.3865 107.294 22.3865C106.818 22.3865 106.412 22.4892 106.076 22.6945C105.749 22.8998 105.497 23.1798 105.32 23.5345C105.143 23.8798 105.054 24.2812 105.054 24.7385C105.054 25.1865 105.143 25.5878 105.32 25.9425C105.507 26.2878 105.759 26.5632 106.076 26.7685C106.403 26.9738 106.776 27.0765 107.196 27.0765C107.429 27.0765 107.63 27.0625 107.798 27.0345C107.966 27.0065 108.106 26.9645 108.218 26.9085C108.349 26.8338 108.465 26.7545 108.568 26.6705C108.671 26.5865 108.825 26.5445 109.03 26.5445C109.273 26.5445 109.459 26.6238 109.59 26.7825C109.721 26.9318 109.786 27.1185 109.786 27.3425C109.786 27.5758 109.655 27.7905 109.394 27.9865C109.133 28.1732 108.787 28.3272 108.358 28.4485C107.938 28.5605 107.481 28.6165 106.986 28.6165C106.249 28.6165 105.609 28.4485 105.068 28.1125C104.527 27.7672 104.107 27.3005 103.808 26.7125C103.519 26.1245 103.374 25.4665 103.374 24.7385C103.374 23.9732 103.528 23.3012 103.836 22.7225C104.153 22.1345 104.587 21.6772 105.138 21.3505C105.698 21.0145 106.337 20.8465 107.056 20.8465ZM111.837 28.4765C111.595 28.4765 111.394 28.3972 111.235 28.2385C111.077 28.0705 110.997 27.8652 110.997 27.6225V21.8405C110.997 21.5978 111.077 21.3972 111.235 21.2385C111.394 21.0705 111.595 20.9865 111.837 20.9865C112.08 20.9865 112.281 21.0705 112.439 21.2385C112.598 21.3972 112.677 21.5978 112.677 21.8405V23.1565L112.579 22.2185C112.682 21.9945 112.813 21.7985 112.971 21.6305C113.139 21.4532 113.326 21.3085 113.531 21.1965C113.737 21.0752 113.956 20.9865 114.189 20.9305C114.423 20.8745 114.656 20.8465 114.889 20.8465C115.169 20.8465 115.403 20.9258 115.589 21.0845C115.785 21.2432 115.883 21.4298 115.883 21.6445C115.883 21.9525 115.804 22.1765 115.645 22.3165C115.487 22.4472 115.314 22.5125 115.127 22.5125C114.95 22.5125 114.787 22.4798 114.637 22.4145C114.497 22.3492 114.334 22.3165 114.147 22.3165C113.979 22.3165 113.807 22.3585 113.629 22.4425C113.461 22.5172 113.303 22.6385 113.153 22.8065C113.013 22.9745 112.897 23.1845 112.803 23.4365C112.719 23.6792 112.677 23.9685 112.677 24.3045V27.6225C112.677 27.8652 112.598 28.0705 112.439 28.2385C112.281 28.3972 112.08 28.4765 111.837 28.4765ZM118.65 27.6225C118.65 27.8652 118.57 28.0705 118.412 28.2385C118.253 28.3972 118.052 28.4765 117.81 28.4765C117.567 28.4765 117.366 28.3972 117.208 28.2385C117.049 28.0705 116.97 27.8652 116.97 27.6225V21.8405C116.97 21.5978 117.049 21.3972 117.208 21.2385C117.366 21.0705 117.567 20.9865 117.81 20.9865C118.052 20.9865 118.253 21.0705 118.412 21.2385C118.57 21.3972 118.65 21.5978 118.65 21.8405V27.6225ZM117.796 20.0765C117.478 20.0765 117.254 20.0252 117.124 19.9225C116.993 19.8198 116.928 19.6378 116.928 19.3765V19.1105C116.928 18.8398 116.998 18.6578 117.138 18.5645C117.287 18.4618 117.511 18.4105 117.81 18.4105C118.136 18.4105 118.365 18.4618 118.496 18.5645C118.626 18.6672 118.692 18.8492 118.692 19.1105V19.3765C118.692 19.6472 118.622 19.8338 118.482 19.9365C118.342 20.0298 118.113 20.0765 117.796 20.0765ZM124.254 20.8465C124.908 20.8465 125.491 21.0145 126.004 21.3505C126.527 21.6772 126.938 22.1298 127.236 22.7085C127.544 23.2872 127.698 23.9592 127.698 24.7245C127.698 25.4898 127.544 26.1665 127.236 26.7545C126.938 27.3332 126.532 27.7905 126.018 28.1265C125.514 28.4532 124.945 28.6165 124.31 28.6165C123.937 28.6165 123.587 28.5558 123.26 28.4345C122.934 28.3132 122.644 28.1592 122.392 27.9725C122.15 27.7858 121.958 27.5992 121.818 27.4125C121.688 27.2165 121.622 27.0532 121.622 26.9225L122.056 26.7405V30.4225C122.056 30.6652 121.977 30.8658 121.818 31.0245C121.66 31.1925 121.459 31.2765 121.216 31.2765C120.974 31.2765 120.773 31.1972 120.614 31.0385C120.456 30.8798 120.376 30.6745 120.376 30.4225V21.8405C120.376 21.5978 120.456 21.3972 120.614 21.2385C120.773 21.0705 120.974 20.9865 121.216 20.9865C121.459 20.9865 121.66 21.0705 121.818 21.2385C121.977 21.3972 122.056 21.5978 122.056 21.8405V22.5265L121.818 22.4005C121.818 22.2792 121.884 22.1345 122.014 21.9665C122.145 21.7892 122.322 21.6165 122.546 21.4485C122.77 21.2712 123.027 21.1265 123.316 21.0145C123.615 20.9025 123.928 20.8465 124.254 20.8465ZM124.044 22.3865C123.634 22.3865 123.274 22.4892 122.966 22.6945C122.658 22.8998 122.416 23.1798 122.238 23.5345C122.07 23.8798 121.986 24.2765 121.986 24.7245C121.986 25.1632 122.07 25.5645 122.238 25.9285C122.416 26.2832 122.658 26.5632 122.966 26.7685C123.274 26.9738 123.634 27.0765 124.044 27.0765C124.455 27.0765 124.81 26.9738 125.108 26.7685C125.416 26.5632 125.654 26.2832 125.822 25.9285C126 25.5645 126.088 25.1632 126.088 24.7245C126.088 24.2765 126 23.8798 125.822 23.5345C125.654 23.1798 125.416 22.8998 125.108 22.6945C124.81 22.4892 124.455 22.3865 124.044 22.3865ZM129.251 21.1265H132.569C132.793 21.1265 132.98 21.2012 133.129 21.3505C133.279 21.4998 133.353 21.6865 133.353 21.9105C133.353 22.1252 133.279 22.3072 133.129 22.4565C132.98 22.5965 132.793 22.6665 132.569 22.6665H129.251C129.027 22.6665 128.841 22.5918 128.691 22.4425C128.542 22.2932 128.467 22.1065 128.467 21.8825C128.467 21.6678 128.542 21.4905 128.691 21.3505C128.841 21.2012 129.027 21.1265 129.251 21.1265ZM130.749 19.3765C130.992 19.3765 131.188 19.4605 131.337 19.6285C131.496 19.7872 131.575 19.9878 131.575 20.2305V26.4605C131.575 26.5912 131.599 26.6985 131.645 26.7825C131.701 26.8665 131.771 26.9272 131.855 26.9645C131.949 27.0018 132.047 27.0205 132.149 27.0205C132.261 27.0205 132.364 27.0018 132.457 26.9645C132.551 26.9178 132.658 26.8945 132.779 26.8945C132.91 26.8945 133.027 26.9552 133.129 27.0765C133.241 27.1978 133.297 27.3658 133.297 27.5805C133.297 27.8418 133.153 28.0565 132.863 28.2245C132.583 28.3925 132.28 28.4765 131.953 28.4765C131.757 28.4765 131.538 28.4625 131.295 28.4345C131.062 28.3972 130.838 28.3178 130.623 28.1965C130.418 28.0658 130.245 27.8698 130.105 27.6085C129.965 27.3472 129.895 26.9878 129.895 26.5305V20.2305C129.895 19.9878 129.975 19.7872 130.133 19.6285C130.301 19.4605 130.507 19.3765 130.749 19.3765Z" fill="#B2D3F3"/>
</svg>
