<svg width="140" height="43" viewBox="0 0 140 43" fill="none" xmlns="http://www.w3.org/2000/svg">
<path d="M57.344 27.5512H60.9314L64.5885 15.3644H61.1043L58.939 24.0103L56.6162 15.3644H53.5888L51.2583 24.0103L49.1136 15.3644H45.6294L49.2659 27.5512H52.8533L55.1154 19.7441L57.344 27.5512ZM64.7769 21.4927C64.7769 25.1497 67.2674 27.8545 71.1878 27.8545C74.2203 27.8545 75.8501 26.035 76.316 25.1756L74.1932 23.5664C73.8448 24.08 72.8899 25.0581 71.2316 25.0581C69.4354 25.0581 68.1307 23.8929 68.061 22.2617H76.6424C76.6644 22.0269 76.6644 21.7972 76.6644 21.561C76.6644 17.5775 74.5197 15.0573 70.7452 15.0573C67.27 15.0573 64.7782 17.8059 64.7782 21.4901L64.7769 21.4927ZM68.1578 20.1635C68.2972 18.7673 69.2753 17.6936 70.7929 17.6936C72.264 17.6936 73.3325 18.6718 73.4022 20.1635H68.1578ZM77.8787 27.5525H80.9112V26.2956C81.2377 26.6918 82.4507 27.8442 84.5244 27.8442C88.0086 27.8442 90.4914 25.2117 90.4914 21.4591C90.4914 17.6846 88.2073 15.0534 84.7102 15.0534C82.6146 15.0534 81.4003 16.2186 81.097 16.6367V10.6917H77.8838V27.5512L77.8787 27.5525ZM81.0015 21.4939C81.0015 19.2099 82.3539 17.9065 84.1244 17.9065C85.9904 17.9065 87.2472 19.3776 87.2472 21.4939C87.2472 23.6593 85.9439 25.013 84.1244 25.013C82.1668 25.013 81.0015 23.4257 81.0015 21.4939ZM91.7444 31.9103H94.9576V26.2918C95.2621 26.6879 96.4713 27.8403 98.5708 27.8403C102.055 27.8403 104.352 25.2078 104.352 21.4346C104.352 17.7078 101.882 15.0495 98.385 15.0495C96.31 15.0495 95.097 16.2148 94.7718 16.6329V15.3502H91.7392V31.8987L91.7444 31.9103ZM94.8673 21.4243C94.8673 19.4886 96.0325 17.9052 97.9901 17.9052C99.8096 17.9052 101.113 19.2576 101.113 21.4243C101.113 23.547 99.8561 25.0117 97.9901 25.0117C96.2196 25.0117 94.8673 23.7083 94.8673 21.4243ZM104.935 23.7767C104.935 26.3382 107.031 27.8545 109.503 27.8545C110.903 27.8545 111.834 27.4364 112.465 26.7576L112.674 27.5487H115.518V19.8319C115.518 17.1052 114.353 15.0573 110.438 15.0573C108.733 15.0793 107.07 15.5796 105.636 16.5012L106.849 18.695C107.757 18.2304 108.875 17.8343 110.088 17.8343C111.51 17.8343 112.301 18.5569 112.301 19.6306V20.4216C111.857 20.117 110.901 19.748 109.666 19.748C106.822 19.7441 104.934 21.3739 104.934 23.7741L104.935 23.7767ZM108.148 23.6812C108.148 22.6811 109.009 21.9804 110.244 21.9804C111.479 21.9804 112.367 22.6127 112.367 23.6812C112.367 24.7071 111.479 25.3588 110.271 25.3588C109.063 25.3588 108.148 24.6852 108.148 23.6812ZM123.324 25.0104C121.298 25.0104 119.84 23.5393 119.84 21.4707C119.84 19.5131 121.122 17.904 123.197 17.904C124.572 17.904 125.52 18.5776 126.042 19.0692L126.95 16.3645C126.159 15.7605 124.898 15.0611 123.105 15.0611C119.398 15.0611 116.624 17.7878 116.624 21.4939C116.624 25.2001 119.329 27.8558 123.128 27.8558C124.898 27.8558 126.229 27.1125 126.924 26.5524L126.064 23.92C125.524 24.3587 124.546 25.0117 123.311 25.0117L123.324 25.0104ZM128.148 27.55H131.361V21.2565L135.439 27.55H139.213L134.598 20.8823L138.887 15.3592H135.273L131.359 20.4874V10.702H128.146L128.148 27.55Z" fill="#B2D3F3"/>
<path d="M37.4648 32.7104L20.3923 42.3693V34.8486L31.0307 28.9952L37.4648 32.7104ZM38.6339 31.6522V11.4569L32.3882 15.0663V28.048L38.6339 31.6522ZM1.81782 32.7104L18.8903 42.3693V34.8486L8.24934 28.9939L1.81782 32.7104ZM0.648682 31.6522V11.4569L6.89439 15.0663V28.048L0.648682 31.6522ZM1.38165 10.1471L18.8929 0.24176V7.51078L7.58348 13.7333L1.38165 10.1471ZM37.901 10.1471L20.3898 0.24176V7.51078L31.6991 13.7281L37.901 10.1471Z" fill="#8ED6FB"/>
<path d="M18.8955 33.4653L8.39778 27.6906V16.2573L18.8955 22.3172V33.4653ZM20.395 33.4653L30.8926 27.697V16.2586L20.395 22.3185V33.4653ZM9.10881 14.9372L19.6465 9.14575L30.1842 14.9372L19.6465 21.0203L9.10881 14.9372Z" fill="#1C78C0"/>
</svg>
